<?xml version="1.0" encoding="utf-8" standalone="no"?>
<!DOCTYPE svg PUBLIC "-//W3C//DTD SVG 1.1//EN"
  "http://www.w3.org/Graphics/SVG/1.1/DTD/svg11.dtd">
<!-- Created with matplotlib (https://matplotlib.org/) -->
<svg height="288pt" version="1.1" viewBox="0 0 360 288" width="360pt" xmlns="http://www.w3.org/2000/svg" xmlns:xlink="http://www.w3.org/1999/xlink">
 <defs>
  <style type="text/css">
*{stroke-linecap:butt;stroke-linejoin:round;}
  </style>
 </defs>
 <g id="figure_1">
  <g id="patch_1">
   <path d="M 0 288 
L 360 288 
L 360 0 
L 0 0 
z
" style="fill:#ffffff;"/>
  </g>
  <g id="axes_1">
   <g id="patch_2">
    <path d="M 43.51399 255.64351 
L 352.15257 255.64351 
L 352.15257 24.563583 
L 43.51399 24.563583 
z
" style="fill:#e5e5e5;"/>
   </g>
   <g id="line2d_1">
    <path clip-path="url(#pdc425fb12d)" d="M 57.543016 132.972376 
L 61.386585 132.993796 
L 65.230154 133.015215 
L 69.073723 133.036635 
L 72.917292 133.058054 
L 76.760861 133.079474 
L 80.60443 133.100893 
L 84.447998 133.122312 
L 88.291567 133.143732 
L 92.135136 133.165151 
L 95.978705 133.186571 
L 99.822274 133.20799 
L 103.665843 133.22941 
L 107.509412 133.250829 
L 111.35298 133.272249 
L 115.196549 133.293668 
L 119.040118 133.315088 
L 122.883687 133.336507 
L 126.727256 133.357926 
L 130.570825 133.379346 
L 134.414394 133.400765 
L 138.257963 133.422185 
L 142.101531 133.443604 
L 145.9451 133.465024 
L 149.788669 133.486443 
L 153.632238 133.507863 
L 157.475807 133.529282 
L 161.319376 133.550701 
L 165.162945 133.572121 
L 169.006513 133.59354 
L 172.850082 133.61496 
L 176.693651 133.636379 
L 180.53722 133.657799 
L 184.380789 133.679218 
L 188.224358 133.700638 
L 192.067927 133.722057 
L 195.911496 133.743477 
L 199.755064 133.764896 
L 203.598633 133.786315 
L 207.442202 133.807735 
L 211.285771 133.829154 
L 215.12934 133.850574 
L 218.972909 133.871993 
L 222.816478 133.893413 
L 226.660047 133.914832 
L 230.503615 133.936252 
L 234.347184 133.957671 
L 238.190753 133.97909 
L 242.034322 134.00051 
L 245.877891 134.021929 
L 249.72146 134.043349 
L 253.565029 134.064768 
L 257.408597 134.086188 
L 261.252166 134.107607 
L 265.095735 134.129027 
L 268.939304 134.150446 
L 272.782873 134.171866 
L 276.626442 134.193285 
L 280.470011 134.214704 
L 284.31358 134.236124 
L 288.157148 134.257543 
" style="fill:none;stroke:#988ed5;stroke-linecap:square;stroke-opacity:0.25;stroke-width:3;"/>
   </g>
   <g id="line2d_2">
    <path clip-path="url(#pdc425fb12d)" d="M 113.230504 -1 
L 115.196549 0.891708 
L 119.040118 4.589948 
L 122.883687 8.288188 
L 126.727256 11.986428 
L 130.570825 15.684668 
L 134.414394 19.382909 
L 138.257963 23.081149 
L 142.101531 26.779389 
L 145.9451 30.477629 
L 149.788669 34.175869 
L 153.632238 37.874109 
L 157.475807 41.57235 
L 161.319376 45.27059 
L 165.162945 48.96883 
L 169.006513 52.66707 
L 172.850082 56.36531 
L 176.693651 60.063551 
L 180.53722 63.761791 
L 184.380789 67.460031 
L 188.224358 71.158271 
L 192.067927 74.856511 
L 195.911496 78.554751 
L 199.755064 82.252992 
L 203.598633 85.951232 
L 207.442202 89.649472 
L 211.285771 93.347712 
L 215.12934 97.045952 
L 218.972909 100.744192 
L 222.816478 104.442433 
L 226.660047 108.140673 
L 230.503615 111.838913 
L 234.347184 115.537153 
L 238.190753 119.235393 
L 242.034322 122.933634 
L 245.877891 126.631874 
L 249.72146 130.330114 
L 253.565029 134.028354 
L 257.408597 137.726594 
L 261.252166 141.424834 
L 265.095735 145.123075 
L 268.939304 148.821315 
L 272.782873 152.519555 
L 276.626442 156.217795 
L 280.470011 159.916035 
L 284.31358 163.614275 
L 288.157148 167.312516 
" style="fill:none;stroke:#348abd;stroke-linecap:square;stroke-opacity:0.25;stroke-width:3;"/>
   </g>
   <g id="line2d_3">
    <path clip-path="url(#pdc425fb12d)" d="M 107.509412 255.64351 
L 107.509412 24.563583 
" style="fill:none;stroke:#0000ff;stroke-dasharray:7.4,3.2;stroke-dashoffset:0;stroke-opacity:0.3;stroke-width:2;"/>
   </g>
   <g id="line2d_4">
    <path clip-path="url(#pdc425fb12d)" d="M 134.414394 255.64351 
L 134.414394 24.563583 
" style="fill:none;stroke:#0000ff;stroke-dasharray:7.4,3.2;stroke-dashoffset:0;stroke-opacity:0.3;stroke-width:2;"/>
   </g>
   <g id="line2d_5">
    <path clip-path="url(#pdc425fb12d)" d="M 207.442202 255.64351 
L 207.442202 24.563583 
" style="fill:none;stroke:#008000;stroke-dasharray:7.4,3.2;stroke-dashoffset:0;stroke-opacity:0.3;stroke-width:2;"/>
   </g>
   <g id="matplotlib.axis_1">
    <g id="xtick_1">
     <g id="line2d_6">
      <path clip-path="url(#pdc425fb12d)" d="M 57.543016 255.64351 
L 57.543016 24.563583 
" style="fill:none;stroke:#ffffff;stroke-linecap:square;stroke-width:0.8;"/>
     </g>
     <g id="line2d_7">
      <defs>
       <path d="M 0 0 
L 0 3.5 
" id="m4b9a0f67fd" style="stroke:#555555;stroke-width:0.8;"/>
      </defs>
      <g>
       <use style="fill:#555555;stroke:#555555;stroke-width:0.8;" x="57.543016" xlink:href="#m4b9a0f67fd" y="255.64351"/>
      </g>
     </g>
     <g id="text_1">
      <!-- Mar -->
      <defs>
       <path d="M 9.8125 72.90625 
L 24.515625 72.90625 
L 43.109375 23.296875 
L 61.8125 72.90625 
L 76.515625 72.90625 
L 76.515625 0 
L 66.890625 0 
L 66.890625 64.015625 
L 48.09375 14.015625 
L 38.1875 14.015625 
L 19.390625 64.015625 
L 19.390625 0 
L 9.8125 0 
z
" id="BitstreamVeraSans-Roman-77"/>
       <path d="M 34.28125 27.484375 
Q 23.390625 27.484375 19.1875 25 
Q 14.984375 22.515625 14.984375 16.5 
Q 14.984375 11.71875 18.140625 8.90625 
Q 21.296875 6.109375 26.703125 6.109375 
Q 34.1875 6.109375 38.703125 11.40625 
Q 43.21875 16.703125 43.21875 25.484375 
L 43.21875 27.484375 
z
M 52.203125 31.203125 
L 52.203125 0 
L 43.21875 0 
L 43.21875 8.296875 
Q 40.140625 3.328125 35.546875 0.953125 
Q 30.953125 -1.421875 24.3125 -1.421875 
Q 15.921875 -1.421875 10.953125 3.296875 
Q 6 8.015625 6 15.921875 
Q 6 25.140625 12.171875 29.828125 
Q 18.359375 34.515625 30.609375 34.515625 
L 43.21875 34.515625 
L 43.21875 35.40625 
Q 43.21875 41.609375 39.140625 45 
Q 35.0625 48.390625 27.6875 48.390625 
Q 23 48.390625 18.546875 47.265625 
Q 14.109375 46.140625 10.015625 43.890625 
L 10.015625 52.203125 
Q 14.9375 54.109375 19.578125 55.046875 
Q 24.21875 56 28.609375 56 
Q 40.484375 56 46.34375 49.84375 
Q 52.203125 43.703125 52.203125 31.203125 
z
" id="BitstreamVeraSans-Roman-97"/>
       <path d="M 41.109375 46.296875 
Q 39.59375 47.171875 37.8125 47.578125 
Q 36.03125 48 33.890625 48 
Q 26.265625 48 22.1875 43.046875 
Q 18.109375 38.09375 18.109375 28.8125 
L 18.109375 0 
L 9.078125 0 
L 9.078125 54.6875 
L 18.109375 54.6875 
L 18.109375 46.1875 
Q 20.953125 51.171875 25.484375 53.578125 
Q 30.03125 56 36.53125 56 
Q 37.453125 56 38.578125 55.875 
Q 39.703125 55.765625 41.0625 55.515625 
z
" id="BitstreamVeraSans-Roman-114"/>
      </defs>
      <g style="fill:#555555;" transform="translate(48.109423 270.241947)scale(0.1 -0.1)">
       <use xlink:href="#BitstreamVeraSans-Roman-77"/>
       <use x="86.279297" xlink:href="#BitstreamVeraSans-Roman-97"/>
       <use x="147.558594" xlink:href="#BitstreamVeraSans-Roman-114"/>
      </g>
     </g>
    </g>
    <g id="xtick_2">
     <g id="line2d_8">
      <path clip-path="url(#pdc425fb12d)" d="M 111.35298 255.64351 
L 111.35298 24.563583 
" style="fill:none;stroke:#ffffff;stroke-linecap:square;stroke-width:0.8;"/>
     </g>
     <g id="line2d_9">
      <g>
       <use style="fill:#555555;stroke:#555555;stroke-width:0.8;" x="111.35298" xlink:href="#m4b9a0f67fd" y="255.64351"/>
      </g>
     </g>
     <g id="text_2">
      <!-- 15 -->
      <defs>
       <path d="M 12.40625 8.296875 
L 28.515625 8.296875 
L 28.515625 63.921875 
L 10.984375 60.40625 
L 10.984375 69.390625 
L 28.421875 72.90625 
L 38.28125 72.90625 
L 38.28125 8.296875 
L 54.390625 8.296875 
L 54.390625 0 
L 12.40625 0 
z
" id="BitstreamVeraSans-Roman-49"/>
       <path d="M 10.796875 72.90625 
L 49.515625 72.90625 
L 49.515625 64.59375 
L 19.828125 64.59375 
L 19.828125 46.734375 
Q 21.96875 47.46875 24.109375 47.828125 
Q 26.265625 48.1875 28.421875 48.1875 
Q 40.625 48.1875 47.75 41.5 
Q 54.890625 34.8125 54.890625 23.390625 
Q 54.890625 11.625 47.5625 5.09375 
Q 40.234375 -1.421875 26.90625 -1.421875 
Q 22.3125 -1.421875 17.546875 -0.640625 
Q 12.796875 0.140625 7.71875 1.703125 
L 7.71875 11.625 
Q 12.109375 9.234375 16.796875 8.0625 
Q 21.484375 6.890625 26.703125 6.890625 
Q 35.15625 6.890625 40.078125 11.328125 
Q 45.015625 15.765625 45.015625 23.390625 
Q 45.015625 31 40.078125 35.4375 
Q 35.15625 39.890625 26.703125 39.890625 
Q 22.75 39.890625 18.8125 39.015625 
Q 14.890625 38.140625 10.796875 36.28125 
z
" id="BitstreamVeraSans-Roman-53"/>
      </defs>
      <g style="fill:#555555;" transform="translate(104.99048 270.241947)scale(0.1 -0.1)">
       <use xlink:href="#BitstreamVeraSans-Roman-49"/>
       <use x="63.623047" xlink:href="#BitstreamVeraSans-Roman-53"/>
      </g>
     </g>
    </g>
    <g id="xtick_3">
     <g id="line2d_10">
      <path clip-path="url(#pdc425fb12d)" d="M 176.693651 255.64351 
L 176.693651 24.563583 
" style="fill:none;stroke:#ffffff;stroke-linecap:square;stroke-width:0.8;"/>
     </g>
     <g id="line2d_11">
      <g>
       <use style="fill:#555555;stroke:#555555;stroke-width:0.8;" x="176.693651" xlink:href="#m4b9a0f67fd" y="255.64351"/>
      </g>
     </g>
     <g id="text_3">
      <!-- Apr -->
      <defs>
       <path d="M 34.1875 63.1875 
L 20.796875 26.90625 
L 47.609375 26.90625 
z
M 28.609375 72.90625 
L 39.796875 72.90625 
L 67.578125 0 
L 57.328125 0 
L 50.6875 18.703125 
L 17.828125 18.703125 
L 11.1875 0 
L 0.78125 0 
z
" id="BitstreamVeraSans-Roman-65"/>
       <path d="M 18.109375 8.203125 
L 18.109375 -20.796875 
L 9.078125 -20.796875 
L 9.078125 54.6875 
L 18.109375 54.6875 
L 18.109375 46.390625 
Q 20.953125 51.265625 25.265625 53.625 
Q 29.59375 56 35.59375 56 
Q 45.5625 56 51.78125 48.09375 
Q 58.015625 40.1875 58.015625 27.296875 
Q 58.015625 14.40625 51.78125 6.484375 
Q 45.5625 -1.421875 35.59375 -1.421875 
Q 29.59375 -1.421875 25.265625 0.953125 
Q 20.953125 3.328125 18.109375 8.203125 
z
M 48.6875 27.296875 
Q 48.6875 37.203125 44.609375 42.84375 
Q 40.53125 48.484375 33.40625 48.484375 
Q 26.265625 48.484375 22.1875 42.84375 
Q 18.109375 37.203125 18.109375 27.296875 
Q 18.109375 17.390625 22.1875 11.75 
Q 26.265625 6.109375 33.40625 6.109375 
Q 40.53125 6.109375 44.609375 11.75 
Q 48.6875 17.390625 48.6875 27.296875 
z
" id="BitstreamVeraSans-Roman-112"/>
      </defs>
      <g style="fill:#555555;" transform="translate(168.043651 270.241947)scale(0.1 -0.1)">
       <use xlink:href="#BitstreamVeraSans-Roman-65"/>
       <use x="68.408203" xlink:href="#BitstreamVeraSans-Roman-112"/>
       <use x="131.884766" xlink:href="#BitstreamVeraSans-Roman-114"/>
      </g>
     </g>
    </g>
    <g id="xtick_4">
     <g id="line2d_12">
      <path clip-path="url(#pdc425fb12d)" d="M 230.503615 255.64351 
L 230.503615 24.563583 
" style="fill:none;stroke:#ffffff;stroke-linecap:square;stroke-width:0.8;"/>
     </g>
     <g id="line2d_13">
      <g>
       <use style="fill:#555555;stroke:#555555;stroke-width:0.8;" x="230.503615" xlink:href="#m4b9a0f67fd" y="255.64351"/>
      </g>
     </g>
     <g id="text_4">
      <!-- 15 -->
      <g style="fill:#555555;" transform="translate(224.141115 270.241947)scale(0.1 -0.1)">
       <use xlink:href="#BitstreamVeraSans-Roman-49"/>
       <use x="63.623047" xlink:href="#BitstreamVeraSans-Roman-53"/>
      </g>
     </g>
    </g>
    <g id="xtick_5">
     <g id="line2d_14">
      <path clip-path="url(#pdc425fb12d)" d="M 292.000717 255.64351 
L 292.000717 24.563583 
" style="fill:none;stroke:#ffffff;stroke-linecap:square;stroke-width:0.8;"/>
     </g>
     <g id="line2d_15">
      <g>
       <use style="fill:#555555;stroke:#555555;stroke-width:0.8;" x="292.000717" xlink:href="#m4b9a0f67fd" y="255.64351"/>
      </g>
     </g>
     <g id="text_5">
      <!-- May -->
      <defs>
       <path d="M 32.171875 -5.078125 
Q 28.375 -14.84375 24.75 -17.8125 
Q 21.140625 -20.796875 15.09375 -20.796875 
L 7.90625 -20.796875 
L 7.90625 -13.28125 
L 13.1875 -13.28125 
Q 16.890625 -13.28125 18.9375 -11.515625 
Q 21 -9.765625 23.484375 -3.21875 
L 25.09375 0.875 
L 2.984375 54.6875 
L 12.5 54.6875 
L 29.59375 11.921875 
L 46.6875 54.6875 
L 56.203125 54.6875 
z
" id="BitstreamVeraSans-Roman-121"/>
      </defs>
      <g style="fill:#555555;" transform="translate(281.663217 270.241947)scale(0.1 -0.1)">
       <use xlink:href="#BitstreamVeraSans-Roman-77"/>
       <use x="86.279297" xlink:href="#BitstreamVeraSans-Roman-97"/>
       <use x="147.558594" xlink:href="#BitstreamVeraSans-Roman-121"/>
      </g>
     </g>
    </g>
    <g id="xtick_6">
     <g id="line2d_16">
      <path clip-path="url(#pdc425fb12d)" d="M 345.810681 255.64351 
L 345.810681 24.563583 
" style="fill:none;stroke:#ffffff;stroke-linecap:square;stroke-width:0.8;"/>
     </g>
     <g id="line2d_17">
      <g>
       <use style="fill:#555555;stroke:#555555;stroke-width:0.8;" x="345.810681" xlink:href="#m4b9a0f67fd" y="255.64351"/>
      </g>
     </g>
     <g id="text_6">
      <!-- 15 -->
      <g style="fill:#555555;" transform="translate(339.448181 270.241947)scale(0.1 -0.1)">
       <use xlink:href="#BitstreamVeraSans-Roman-49"/>
       <use x="63.623047" xlink:href="#BitstreamVeraSans-Roman-53"/>
      </g>
     </g>
    </g>
    <g id="text_7">
     <!-- 2020-May -->
     <defs>
      <path d="M 19.1875 8.296875 
L 53.609375 8.296875 
L 53.609375 0 
L 7.328125 0 
L 7.328125 8.296875 
Q 12.9375 14.109375 22.625 23.890625 
Q 32.328125 33.6875 34.8125 36.53125 
Q 39.546875 41.84375 41.421875 45.53125 
Q 43.3125 49.21875 43.3125 52.78125 
Q 43.3125 58.59375 39.234375 62.25 
Q 35.15625 65.921875 28.609375 65.921875 
Q 23.96875 65.921875 18.8125 64.3125 
Q 13.671875 62.703125 7.8125 59.421875 
L 7.8125 69.390625 
Q 13.765625 71.78125 18.9375 73 
Q 24.125 74.21875 28.421875 74.21875 
Q 39.75 74.21875 46.484375 68.546875 
Q 53.21875 62.890625 53.21875 53.421875 
Q 53.21875 48.921875 51.53125 44.890625 
Q 49.859375 40.875 45.40625 35.40625 
Q 44.1875 33.984375 37.640625 27.21875 
Q 31.109375 20.453125 19.1875 8.296875 
z
" id="BitstreamVeraSans-Roman-50"/>
      <path d="M 31.78125 66.40625 
Q 24.171875 66.40625 20.328125 58.90625 
Q 16.5 51.421875 16.5 36.375 
Q 16.5 21.390625 20.328125 13.890625 
Q 24.171875 6.390625 31.78125 6.390625 
Q 39.453125 6.390625 43.28125 13.890625 
Q 47.125 21.390625 47.125 36.375 
Q 47.125 51.421875 43.28125 58.90625 
Q 39.453125 66.40625 31.78125 66.40625 
z
M 31.78125 74.21875 
Q 44.046875 74.21875 50.515625 64.515625 
Q 56.984375 54.828125 56.984375 36.375 
Q 56.984375 17.96875 50.515625 8.265625 
Q 44.046875 -1.421875 31.78125 -1.421875 
Q 19.53125 -1.421875 13.0625 8.265625 
Q 6.59375 17.96875 6.59375 36.375 
Q 6.59375 54.828125 13.0625 64.515625 
Q 19.53125 74.21875 31.78125 74.21875 
z
" id="BitstreamVeraSans-Roman-48"/>
      <path d="M 4.890625 31.390625 
L 31.203125 31.390625 
L 31.203125 23.390625 
L 4.890625 23.390625 
z
" id="BitstreamVeraSans-Roman-45"/>
     </defs>
     <g style="fill:#555555;" transform="translate(302.419758 282.920073)scale(0.1 -0.1)">
      <use xlink:href="#BitstreamVeraSans-Roman-50"/>
      <use x="63.623047" xlink:href="#BitstreamVeraSans-Roman-48"/>
      <use x="127.246094" xlink:href="#BitstreamVeraSans-Roman-50"/>
      <use x="190.869141" xlink:href="#BitstreamVeraSans-Roman-48"/>
      <use x="254.492188" xlink:href="#BitstreamVeraSans-Roman-45"/>
      <use x="290.576172" xlink:href="#BitstreamVeraSans-Roman-77"/>
      <use x="376.855469" xlink:href="#BitstreamVeraSans-Roman-97"/>
      <use x="438.134766" xlink:href="#BitstreamVeraSans-Roman-121"/>
     </g>
    </g>
   </g>
   <g id="matplotlib.axis_2">
    <g id="ytick_1">
     <g id="line2d_18">
      <path clip-path="url(#pdc425fb12d)" d="M 43.51399 255.64351 
L 352.15257 255.64351 
" style="fill:none;stroke:#ffffff;stroke-linecap:square;stroke-width:0.8;"/>
     </g>
     <g id="line2d_19">
      <defs>
       <path d="M 0 0 
L -3.5 0 
" id="m2562762b4c" style="stroke:#555555;stroke-width:0.8;"/>
      </defs>
      <g>
       <use style="fill:#555555;stroke:#555555;stroke-width:0.8;" x="43.51399" xlink:href="#m2562762b4c" y="255.64351"/>
      </g>
     </g>
     <g id="text_8">
      <!-- $\mathdefault{10^{0}}$ -->
      <g style="fill:#555555;" transform="translate(18.61399 261.003666)scale(0.1 -0.1)">
       <use transform="translate(0 0.546875)" xlink:href="#BitstreamVeraSans-Roman-49"/>
       <use transform="translate(63.623047 0.546875)" xlink:href="#BitstreamVeraSans-Roman-48"/>
       <use transform="translate(129.083594 74.046875)scale(0.7)" xlink:href="#BitstreamVeraSans-Roman-48"/>
      </g>
     </g>
    </g>
    <g id="ytick_2">
     <g id="line2d_20">
      <path clip-path="url(#pdc425fb12d)" d="M 43.51399 197.873528 
L 352.15257 197.873528 
" style="fill:none;stroke:#ffffff;stroke-linecap:square;stroke-width:0.8;"/>
     </g>
     <g id="line2d_21">
      <g>
       <use style="fill:#555555;stroke:#555555;stroke-width:0.8;" x="43.51399" xlink:href="#m2562762b4c" y="197.873528"/>
      </g>
     </g>
     <g id="text_9">
      <!-- $\mathdefault{10^{1}}$ -->
      <g style="fill:#555555;" transform="translate(18.61399 203.183685)scale(0.1 -0.1)">
       <use transform="translate(0 0.465625)" xlink:href="#BitstreamVeraSans-Roman-49"/>
       <use transform="translate(63.623047 0.465625)" xlink:href="#BitstreamVeraSans-Roman-48"/>
       <use transform="translate(129.083594 73.965625)scale(0.7)" xlink:href="#BitstreamVeraSans-Roman-49"/>
      </g>
     </g>
    </g>
    <g id="ytick_3">
     <g id="line2d_22">
      <path clip-path="url(#pdc425fb12d)" d="M 43.51399 140.103547 
L 352.15257 140.103547 
" style="fill:none;stroke:#ffffff;stroke-linecap:square;stroke-width:0.8;"/>
     </g>
     <g id="line2d_23">
      <g>
       <use style="fill:#555555;stroke:#555555;stroke-width:0.8;" x="43.51399" xlink:href="#m2562762b4c" y="140.103547"/>
      </g>
     </g>
     <g id="text_10">
      <!-- $\mathdefault{10^{2}}$ -->
      <g style="fill:#555555;" transform="translate(18.61399 145.463703)scale(0.1 -0.1)">
       <use transform="translate(0 0.546875)" xlink:href="#BitstreamVeraSans-Roman-49"/>
       <use transform="translate(63.623047 0.546875)" xlink:href="#BitstreamVeraSans-Roman-48"/>
       <use transform="translate(129.083594 74.046875)scale(0.7)" xlink:href="#BitstreamVeraSans-Roman-50"/>
      </g>
     </g>
    </g>
    <g id="ytick_4">
     <g id="line2d_24">
      <path clip-path="url(#pdc425fb12d)" d="M 43.51399 82.333565 
L 352.15257 82.333565 
" style="fill:none;stroke:#ffffff;stroke-linecap:square;stroke-width:0.8;"/>
     </g>
     <g id="line2d_25">
      <g>
       <use style="fill:#555555;stroke:#555555;stroke-width:0.8;" x="43.51399" xlink:href="#m2562762b4c" y="82.333565"/>
      </g>
     </g>
     <g id="text_11">
      <!-- $\mathdefault{10^{3}}$ -->
      <defs>
       <path d="M 40.578125 39.3125 
Q 47.65625 37.796875 51.625 33 
Q 55.609375 28.21875 55.609375 21.1875 
Q 55.609375 10.40625 48.1875 4.484375 
Q 40.765625 -1.421875 27.09375 -1.421875 
Q 22.515625 -1.421875 17.65625 -0.515625 
Q 12.796875 0.390625 7.625 2.203125 
L 7.625 11.71875 
Q 11.71875 9.328125 16.59375 8.109375 
Q 21.484375 6.890625 26.8125 6.890625 
Q 36.078125 6.890625 40.9375 10.546875 
Q 45.796875 14.203125 45.796875 21.1875 
Q 45.796875 27.640625 41.28125 31.265625 
Q 36.765625 34.90625 28.71875 34.90625 
L 20.21875 34.90625 
L 20.21875 43.015625 
L 29.109375 43.015625 
Q 36.375 43.015625 40.234375 45.921875 
Q 44.09375 48.828125 44.09375 54.296875 
Q 44.09375 59.90625 40.109375 62.90625 
Q 36.140625 65.921875 28.71875 65.921875 
Q 24.65625 65.921875 20.015625 65.03125 
Q 15.375 64.15625 9.8125 62.3125 
L 9.8125 71.09375 
Q 15.4375 72.65625 20.34375 73.4375 
Q 25.25 74.21875 29.59375 74.21875 
Q 40.828125 74.21875 47.359375 69.109375 
Q 53.90625 64.015625 53.90625 55.328125 
Q 53.90625 49.265625 50.4375 45.09375 
Q 46.96875 40.921875 40.578125 39.3125 
z
" id="BitstreamVeraSans-Roman-51"/>
      </defs>
      <g style="fill:#555555;" transform="translate(18.61399 87.693721)scale(0.1 -0.1)">
       <use transform="translate(0 0.546875)" xlink:href="#BitstreamVeraSans-Roman-49"/>
       <use transform="translate(63.623047 0.546875)" xlink:href="#BitstreamVeraSans-Roman-48"/>
       <use transform="translate(129.083594 74.046875)scale(0.7)" xlink:href="#BitstreamVeraSans-Roman-51"/>
      </g>
     </g>
    </g>
    <g id="ytick_5">
     <g id="line2d_26">
      <path clip-path="url(#pdc425fb12d)" d="M 43.51399 24.563583 
L 352.15257 24.563583 
" style="fill:none;stroke:#ffffff;stroke-linecap:square;stroke-width:0.8;"/>
     </g>
     <g id="line2d_27">
      <g>
       <use style="fill:#555555;stroke:#555555;stroke-width:0.8;" x="43.51399" xlink:href="#m2562762b4c" y="24.563583"/>
      </g>
     </g>
     <g id="text_12">
      <!-- $\mathdefault{10^{4}}$ -->
      <defs>
       <path d="M 37.796875 64.3125 
L 12.890625 25.390625 
L 37.796875 25.390625 
z
M 35.203125 72.90625 
L 47.609375 72.90625 
L 47.609375 25.390625 
L 58.015625 25.390625 
L 58.015625 17.1875 
L 47.609375 17.1875 
L 47.609375 0 
L 37.796875 0 
L 37.796875 17.1875 
L 4.890625 17.1875 
L 4.890625 26.703125 
z
" id="BitstreamVeraSans-Roman-52"/>
      </defs>
      <g style="fill:#555555;" transform="translate(18.61399 29.87374)scale(0.1 -0.1)">
       <use transform="translate(0 0.465625)" xlink:href="#BitstreamVeraSans-Roman-49"/>
       <use transform="translate(63.623047 0.465625)" xlink:href="#BitstreamVeraSans-Roman-48"/>
       <use transform="translate(129.083594 73.965625)scale(0.7)" xlink:href="#BitstreamVeraSans-Roman-52"/>
      </g>
     </g>
    </g>
    <g id="ytick_6">
     <g id="line2d_28">
      <defs>
       <path d="M 0 0 
L -2 0 
" id="md81c352374" style="stroke:#555555;stroke-width:0.6;"/>
      </defs>
      <g>
       <use style="fill:#555555;stroke:#555555;stroke-width:0.6;" x="43.51399" xlink:href="#md81c352374" y="238.253013"/>
      </g>
     </g>
    </g>
    <g id="ytick_7">
     <g id="line2d_29">
      <g>
       <use style="fill:#555555;stroke:#555555;stroke-width:0.6;" x="43.51399" xlink:href="#md81c352374" y="228.080224"/>
      </g>
     </g>
    </g>
    <g id="ytick_8">
     <g id="line2d_30">
      <g>
       <use style="fill:#555555;stroke:#555555;stroke-width:0.6;" x="43.51399" xlink:href="#md81c352374" y="220.862515"/>
      </g>
     </g>
    </g>
    <g id="ytick_9">
     <g id="line2d_31">
      <g>
       <use style="fill:#555555;stroke:#555555;stroke-width:0.6;" x="43.51399" xlink:href="#md81c352374" y="215.264026"/>
      </g>
     </g>
    </g>
    <g id="ytick_10">
     <g id="line2d_32">
      <g>
       <use style="fill:#555555;stroke:#555555;stroke-width:0.6;" x="43.51399" xlink:href="#md81c352374" y="210.689727"/>
      </g>
     </g>
    </g>
    <g id="ytick_11">
     <g id="line2d_33">
      <g>
       <use style="fill:#555555;stroke:#555555;stroke-width:0.6;" x="43.51399" xlink:href="#md81c352374" y="206.822212"/>
      </g>
     </g>
    </g>
    <g id="ytick_12">
     <g id="line2d_34">
      <g>
       <use style="fill:#555555;stroke:#555555;stroke-width:0.6;" x="43.51399" xlink:href="#md81c352374" y="203.472018"/>
      </g>
     </g>
    </g>
    <g id="ytick_13">
     <g id="line2d_35">
      <g>
       <use style="fill:#555555;stroke:#555555;stroke-width:0.6;" x="43.51399" xlink:href="#md81c352374" y="200.516938"/>
      </g>
     </g>
    </g>
    <g id="ytick_14">
     <g id="line2d_36">
      <g>
       <use style="fill:#555555;stroke:#555555;stroke-width:0.6;" x="43.51399" xlink:href="#md81c352374" y="180.483031"/>
      </g>
     </g>
    </g>
    <g id="ytick_15">
     <g id="line2d_37">
      <g>
       <use style="fill:#555555;stroke:#555555;stroke-width:0.6;" x="43.51399" xlink:href="#md81c352374" y="170.310242"/>
      </g>
     </g>
    </g>
    <g id="ytick_16">
     <g id="line2d_38">
      <g>
       <use style="fill:#555555;stroke:#555555;stroke-width:0.6;" x="43.51399" xlink:href="#md81c352374" y="163.092534"/>
      </g>
     </g>
    </g>
    <g id="ytick_17">
     <g id="line2d_39">
      <g>
       <use style="fill:#555555;stroke:#555555;stroke-width:0.6;" x="43.51399" xlink:href="#md81c352374" y="157.494044"/>
      </g>
     </g>
    </g>
    <g id="ytick_18">
     <g id="line2d_40">
      <g>
       <use style="fill:#555555;stroke:#555555;stroke-width:0.6;" x="43.51399" xlink:href="#md81c352374" y="152.919745"/>
      </g>
     </g>
    </g>
    <g id="ytick_19">
     <g id="line2d_41">
      <g>
       <use style="fill:#555555;stroke:#555555;stroke-width:0.6;" x="43.51399" xlink:href="#md81c352374" y="149.05223"/>
      </g>
     </g>
    </g>
    <g id="ytick_20">
     <g id="line2d_42">
      <g>
       <use style="fill:#555555;stroke:#555555;stroke-width:0.6;" x="43.51399" xlink:href="#md81c352374" y="145.702036"/>
      </g>
     </g>
    </g>
    <g id="ytick_21">
     <g id="line2d_43">
      <g>
       <use style="fill:#555555;stroke:#555555;stroke-width:0.6;" x="43.51399" xlink:href="#md81c352374" y="142.746956"/>
      </g>
     </g>
    </g>
    <g id="ytick_22">
     <g id="line2d_44">
      <g>
       <use style="fill:#555555;stroke:#555555;stroke-width:0.6;" x="43.51399" xlink:href="#md81c352374" y="122.713049"/>
      </g>
     </g>
    </g>
    <g id="ytick_23">
     <g id="line2d_45">
      <g>
       <use style="fill:#555555;stroke:#555555;stroke-width:0.6;" x="43.51399" xlink:href="#md81c352374" y="112.540261"/>
      </g>
     </g>
    </g>
    <g id="ytick_24">
     <g id="line2d_46">
      <g>
       <use style="fill:#555555;stroke:#555555;stroke-width:0.6;" x="43.51399" xlink:href="#md81c352374" y="105.322552"/>
      </g>
     </g>
    </g>
    <g id="ytick_25">
     <g id="line2d_47">
      <g>
       <use style="fill:#555555;stroke:#555555;stroke-width:0.6;" x="43.51399" xlink:href="#md81c352374" y="99.724062"/>
      </g>
     </g>
    </g>
    <g id="ytick_26">
     <g id="line2d_48">
      <g>
       <use style="fill:#555555;stroke:#555555;stroke-width:0.6;" x="43.51399" xlink:href="#md81c352374" y="95.149763"/>
      </g>
     </g>
    </g>
    <g id="ytick_27">
     <g id="line2d_49">
      <g>
       <use style="fill:#555555;stroke:#555555;stroke-width:0.6;" x="43.51399" xlink:href="#md81c352374" y="91.282248"/>
      </g>
     </g>
    </g>
    <g id="ytick_28">
     <g id="line2d_50">
      <g>
       <use style="fill:#555555;stroke:#555555;stroke-width:0.6;" x="43.51399" xlink:href="#md81c352374" y="87.932055"/>
      </g>
     </g>
    </g>
    <g id="ytick_29">
     <g id="line2d_51">
      <g>
       <use style="fill:#555555;stroke:#555555;stroke-width:0.6;" x="43.51399" xlink:href="#md81c352374" y="84.976974"/>
      </g>
     </g>
    </g>
    <g id="ytick_30">
     <g id="line2d_52">
      <g>
       <use style="fill:#555555;stroke:#555555;stroke-width:0.6;" x="43.51399" xlink:href="#md81c352374" y="64.943068"/>
      </g>
     </g>
    </g>
    <g id="ytick_31">
     <g id="line2d_53">
      <g>
       <use style="fill:#555555;stroke:#555555;stroke-width:0.6;" x="43.51399" xlink:href="#md81c352374" y="54.770279"/>
      </g>
     </g>
    </g>
    <g id="ytick_32">
     <g id="line2d_54">
      <g>
       <use style="fill:#555555;stroke:#555555;stroke-width:0.6;" x="43.51399" xlink:href="#md81c352374" y="47.55257"/>
      </g>
     </g>
    </g>
    <g id="ytick_33">
     <g id="line2d_55">
      <g>
       <use style="fill:#555555;stroke:#555555;stroke-width:0.6;" x="43.51399" xlink:href="#md81c352374" y="41.954081"/>
      </g>
     </g>
    </g>
    <g id="ytick_34">
     <g id="line2d_56">
      <g>
       <use style="fill:#555555;stroke:#555555;stroke-width:0.6;" x="43.51399" xlink:href="#md81c352374" y="37.379782"/>
      </g>
     </g>
    </g>
    <g id="ytick_35">
     <g id="line2d_57">
      <g>
       <use style="fill:#555555;stroke:#555555;stroke-width:0.6;" x="43.51399" xlink:href="#md81c352374" y="33.512267"/>
      </g>
     </g>
    </g>
    <g id="ytick_36">
     <g id="line2d_58">
      <g>
       <use style="fill:#555555;stroke:#555555;stroke-width:0.6;" x="43.51399" xlink:href="#md81c352374" y="30.162073"/>
      </g>
     </g>
    </g>
    <g id="ytick_37">
     <g id="line2d_59">
      <g>
       <use style="fill:#555555;stroke:#555555;stroke-width:0.6;" x="43.51399" xlink:href="#md81c352374" y="27.206993"/>
      </g>
     </g>
    </g>
    <g id="text_13">
     <!-- Cases -->
     <defs>
      <path d="M 64.40625 67.28125 
L 64.40625 56.890625 
Q 59.421875 61.53125 53.78125 63.8125 
Q 48.140625 66.109375 41.796875 66.109375 
Q 29.296875 66.109375 22.65625 58.46875 
Q 16.015625 50.828125 16.015625 36.375 
Q 16.015625 21.96875 22.65625 14.328125 
Q 29.296875 6.6875 41.796875 6.6875 
Q 48.140625 6.6875 53.78125 8.984375 
Q 59.421875 11.28125 64.40625 15.921875 
L 64.40625 5.609375 
Q 59.234375 2.09375 53.4375 0.328125 
Q 47.65625 -1.421875 41.21875 -1.421875 
Q 24.65625 -1.421875 15.125 8.703125 
Q 5.609375 18.84375 5.609375 36.375 
Q 5.609375 53.953125 15.125 64.078125 
Q 24.65625 74.21875 41.21875 74.21875 
Q 47.75 74.21875 53.53125 72.484375 
Q 59.328125 70.75 64.40625 67.28125 
z
" id="BitstreamVeraSans-Roman-67"/>
      <path d="M 44.28125 53.078125 
L 44.28125 44.578125 
Q 40.484375 46.53125 36.375 47.5 
Q 32.28125 48.484375 27.875 48.484375 
Q 21.1875 48.484375 17.84375 46.4375 
Q 14.5 44.390625 14.5 40.28125 
Q 14.5 37.15625 16.890625 35.375 
Q 19.28125 33.59375 26.515625 31.984375 
L 29.59375 31.296875 
Q 39.15625 29.25 43.1875 25.515625 
Q 47.21875 21.78125 47.21875 15.09375 
Q 47.21875 7.46875 41.1875 3.015625 
Q 35.15625 -1.421875 24.609375 -1.421875 
Q 20.21875 -1.421875 15.453125 -0.5625 
Q 10.6875 0.296875 5.421875 2 
L 5.421875 11.28125 
Q 10.40625 8.6875 15.234375 7.390625 
Q 20.0625 6.109375 24.8125 6.109375 
Q 31.15625 6.109375 34.5625 8.28125 
Q 37.984375 10.453125 37.984375 14.40625 
Q 37.984375 18.0625 35.515625 20.015625 
Q 33.0625 21.96875 24.703125 23.78125 
L 21.578125 24.515625 
Q 13.234375 26.265625 9.515625 29.90625 
Q 5.8125 33.546875 5.8125 39.890625 
Q 5.8125 47.609375 11.28125 51.796875 
Q 16.75 56 26.8125 56 
Q 31.78125 56 36.171875 55.265625 
Q 40.578125 54.546875 44.28125 53.078125 
z
" id="BitstreamVeraSans-Roman-115"/>
      <path d="M 56.203125 29.59375 
L 56.203125 25.203125 
L 14.890625 25.203125 
Q 15.484375 15.921875 20.484375 11.0625 
Q 25.484375 6.203125 34.421875 6.203125 
Q 39.59375 6.203125 44.453125 7.46875 
Q 49.3125 8.734375 54.109375 11.28125 
L 54.109375 2.78125 
Q 49.265625 0.734375 44.1875 -0.34375 
Q 39.109375 -1.421875 33.890625 -1.421875 
Q 20.796875 -1.421875 13.15625 6.1875 
Q 5.515625 13.8125 5.515625 26.8125 
Q 5.515625 40.234375 12.765625 48.109375 
Q 20.015625 56 32.328125 56 
Q 43.359375 56 49.78125 48.890625 
Q 56.203125 41.796875 56.203125 29.59375 
z
M 47.21875 32.234375 
Q 47.125 39.59375 43.09375 43.984375 
Q 39.0625 48.390625 32.421875 48.390625 
Q 24.90625 48.390625 20.390625 44.140625 
Q 15.875 39.890625 15.1875 32.171875 
z
" id="BitstreamVeraSans-Roman-101"/>
     </defs>
     <g style="fill:#555555;" transform="translate(12.118365 157.913234)rotate(-90)scale(0.12 -0.12)">
      <use xlink:href="#BitstreamVeraSans-Roman-67"/>
      <use x="69.824219" xlink:href="#BitstreamVeraSans-Roman-97"/>
      <use x="131.103516" xlink:href="#BitstreamVeraSans-Roman-115"/>
      <use x="183.203125" xlink:href="#BitstreamVeraSans-Roman-101"/>
      <use x="244.726562" xlink:href="#BitstreamVeraSans-Roman-115"/>
     </g>
    </g>
   </g>
   <g id="line2d_60">
    <defs>
     <path d="M 0 1.5 
C 0.397805 1.5 0.77937 1.341951 1.06066 1.06066 
C 1.341951 0.77937 1.5 0.397805 1.5 0 
C 1.5 -0.397805 1.341951 -0.77937 1.06066 -1.06066 
C 0.77937 -1.341951 0.397805 -1.5 0 -1.5 
C -0.397805 -1.5 -0.77937 -1.341951 -1.06066 -1.06066 
C -1.341951 -0.77937 -1.5 -0.397805 -1.5 0 
C -1.5 0.397805 -1.341951 0.77937 -1.06066 1.06066 
C -0.77937 1.341951 -0.397805 1.5 0 1.5 
z
" id="md78f06ac05" style="stroke:#777777;stroke-opacity:0.5;"/>
    </defs>
    <g clip-path="url(#pdc425fb12d)">
     <use style="fill:#777777;fill-opacity:0.5;stroke:#777777;stroke-opacity:0.5;" x="142.101531" xlink:href="#md78f06ac05" y="220.862515"/>
     <use style="fill:#777777;fill-opacity:0.5;stroke:#777777;stroke-opacity:0.5;" x="145.9451" xlink:href="#md78f06ac05" y="220.862515"/>
     <use style="fill:#777777;fill-opacity:0.5;stroke:#777777;stroke-opacity:0.5;" x="149.788669" xlink:href="#md78f06ac05" y="215.264026"/>
     <use style="fill:#777777;fill-opacity:0.5;stroke:#777777;stroke-opacity:0.5;" x="153.632238" xlink:href="#md78f06ac05" y="215.264026"/>
     <use style="fill:#777777;fill-opacity:0.5;stroke:#777777;stroke-opacity:0.5;" x="157.475807" xlink:href="#md78f06ac05" y="203.472018"/>
     <use style="fill:#777777;fill-opacity:0.5;stroke:#777777;stroke-opacity:0.5;" x="169.006513" xlink:href="#md78f06ac05" y="200.516938"/>
     <use style="fill:#777777;fill-opacity:0.5;stroke:#777777;stroke-opacity:0.5;" x="172.850082" xlink:href="#md78f06ac05" y="200.516938"/>
     <use style="fill:#777777;fill-opacity:0.5;stroke:#777777;stroke-opacity:0.5;" x="176.693651" xlink:href="#md78f06ac05" y="195.482274"/>
     <use style="fill:#777777;fill-opacity:0.5;stroke:#777777;stroke-opacity:0.5;" x="180.53722" xlink:href="#md78f06ac05" y="195.482274"/>
     <use style="fill:#777777;fill-opacity:0.5;stroke:#777777;stroke-opacity:0.5;" x="184.380789" xlink:href="#md78f06ac05" y="189.431714"/>
     <use style="fill:#777777;fill-opacity:0.5;stroke:#777777;stroke-opacity:0.5;" x="195.911496" xlink:href="#md78f06ac05" y="183.12644"/>
     <use style="fill:#777777;fill-opacity:0.5;stroke:#777777;stroke-opacity:0.5;" x="199.755064" xlink:href="#md78f06ac05" y="183.12644"/>
     <use style="fill:#777777;fill-opacity:0.5;stroke:#777777;stroke-opacity:0.5;" x="203.598633" xlink:href="#md78f06ac05" y="180.483031"/>
     <use style="fill:#777777;fill-opacity:0.5;stroke:#777777;stroke-opacity:0.5;" x="207.442202" xlink:href="#md78f06ac05" y="179.258926"/>
     <use style="fill:#777777;fill-opacity:0.5;stroke:#777777;stroke-opacity:0.5;" x="226.660047" xlink:href="#md78f06ac05" y="176.976518"/>
     <use style="fill:#777777;fill-opacity:0.5;stroke:#777777;stroke-opacity:0.5;" x="230.503615" xlink:href="#md78f06ac05" y="176.976518"/>
     <use style="fill:#777777;fill-opacity:0.5;stroke:#777777;stroke-opacity:0.5;" x="234.347184" xlink:href="#md78f06ac05" y="178.091776"/>
     <use style="fill:#777777;fill-opacity:0.5;stroke:#777777;stroke-opacity:0.5;" x="238.190753" xlink:href="#md78f06ac05" y="176.976518"/>
     <use style="fill:#777777;fill-opacity:0.5;stroke:#777777;stroke-opacity:0.5;" x="249.72146" xlink:href="#md78f06ac05" y="178.091776"/>
     <use style="fill:#777777;fill-opacity:0.5;stroke:#777777;stroke-opacity:0.5;" x="253.565029" xlink:href="#md78f06ac05" y="176.976518"/>
     <use style="fill:#777777;fill-opacity:0.5;stroke:#777777;stroke-opacity:0.5;" x="257.408597" xlink:href="#md78f06ac05" y="176.976518"/>
     <use style="fill:#777777;fill-opacity:0.5;stroke:#777777;stroke-opacity:0.5;" x="261.252166" xlink:href="#md78f06ac05" y="178.091776"/>
     <use style="fill:#777777;fill-opacity:0.5;stroke:#777777;stroke-opacity:0.5;" x="265.095735" xlink:href="#md78f06ac05" y="178.091776"/>
     <use style="fill:#777777;fill-opacity:0.5;stroke:#777777;stroke-opacity:0.5;" x="276.626442" xlink:href="#md78f06ac05" y="175.908732"/>
     <use style="fill:#777777;fill-opacity:0.5;stroke:#777777;stroke-opacity:0.5;" x="280.470011" xlink:href="#md78f06ac05" y="175.908732"/>
     <use style="fill:#777777;fill-opacity:0.5;stroke:#777777;stroke-opacity:0.5;" x="284.31358" xlink:href="#md78f06ac05" y="175.908732"/>
     <use style="fill:#777777;fill-opacity:0.5;stroke:#777777;stroke-opacity:0.5;" x="288.157148" xlink:href="#md78f06ac05" y="175.908732"/>
     <use style="fill:#777777;fill-opacity:0.5;stroke:#777777;stroke-opacity:0.5;" x="292.000717" xlink:href="#md78f06ac05" y="174.884541"/>
     <use style="fill:#777777;fill-opacity:0.5;stroke:#777777;stroke-opacity:0.5;" x="303.531424" xlink:href="#md78f06ac05" y="174.884541"/>
     <use style="fill:#777777;fill-opacity:0.5;stroke:#777777;stroke-opacity:0.5;" x="307.374993" xlink:href="#md78f06ac05" y="174.884541"/>
     <use style="fill:#777777;fill-opacity:0.5;stroke:#777777;stroke-opacity:0.5;" x="311.218562" xlink:href="#md78f06ac05" y="174.884541"/>
     <use style="fill:#777777;fill-opacity:0.5;stroke:#777777;stroke-opacity:0.5;" x="315.06213" xlink:href="#md78f06ac05" y="174.884541"/>
     <use style="fill:#777777;fill-opacity:0.5;stroke:#777777;stroke-opacity:0.5;" x="318.905699" xlink:href="#md78f06ac05" y="174.884541"/>
     <use style="fill:#777777;fill-opacity:0.5;stroke:#777777;stroke-opacity:0.5;" x="330.436406" xlink:href="#md78f06ac05" y="174.884541"/>
     <use style="fill:#777777;fill-opacity:0.5;stroke:#777777;stroke-opacity:0.5;" x="334.279975" xlink:href="#md78f06ac05" y="174.884541"/>
     <use style="fill:#777777;fill-opacity:0.5;stroke:#777777;stroke-opacity:0.5;" x="338.123544" xlink:href="#md78f06ac05" y="174.884541"/>
    </g>
   </g>
   <g id="line2d_61">
    <defs>
     <path d="M 0 1.5 
C 0.397805 1.5 0.77937 1.341951 1.06066 1.06066 
C 1.341951 0.77937 1.5 0.397805 1.5 0 
C 1.5 -0.397805 1.341951 -0.77937 1.06066 -1.06066 
C 0.77937 -1.341951 0.397805 -1.5 0 -1.5 
C -0.397805 -1.5 -0.77937 -1.341951 -1.06066 -1.06066 
C -1.341951 -0.77937 -1.5 -0.397805 -1.5 0 
C -1.5 0.397805 -1.341951 0.77937 -1.06066 1.06066 
C -0.77937 1.341951 -0.397805 1.5 0 1.5 
z
" id="m3972a3c339" style="stroke:#348abd;stroke-opacity:0.5;"/>
    </defs>
    <g clip-path="url(#pdc425fb12d)">
     <use style="fill:#348abd;fill-opacity:0.5;stroke:#348abd;stroke-opacity:0.5;" x="142.101531" xlink:href="#m3972a3c339" y="238.253013"/>
     <use style="fill:#348abd;fill-opacity:0.5;stroke:#348abd;stroke-opacity:0.5;" x="145.9451" xlink:href="#m3972a3c339" y="238.253013"/>
     <use style="fill:#348abd;fill-opacity:0.5;stroke:#348abd;stroke-opacity:0.5;" x="149.788669" xlink:href="#m3972a3c339" y="228.080224"/>
     <use style="fill:#348abd;fill-opacity:0.5;stroke:#348abd;stroke-opacity:0.5;" x="153.632238" xlink:href="#m3972a3c339" y="228.080224"/>
     <use style="fill:#348abd;fill-opacity:0.5;stroke:#348abd;stroke-opacity:0.5;" x="157.475807" xlink:href="#m3972a3c339" y="228.080224"/>
     <use style="fill:#348abd;fill-opacity:0.5;stroke:#348abd;stroke-opacity:0.5;" x="184.380789" xlink:href="#m3972a3c339" y="215.264026"/>
     <use style="fill:#348abd;fill-opacity:0.5;stroke:#348abd;stroke-opacity:0.5;" x="195.911496" xlink:href="#m3972a3c339" y="220.862515"/>
     <use style="fill:#348abd;fill-opacity:0.5;stroke:#348abd;stroke-opacity:0.5;" x="199.755064" xlink:href="#m3972a3c339" y="228.080224"/>
     <use style="fill:#348abd;fill-opacity:0.5;stroke:#348abd;stroke-opacity:0.5;" x="203.598633" xlink:href="#m3972a3c339" y="220.862515"/>
     <use style="fill:#348abd;fill-opacity:0.5;stroke:#348abd;stroke-opacity:0.5;" x="207.442202" xlink:href="#m3972a3c339" y="228.080224"/>
     <use style="fill:#348abd;fill-opacity:0.5;stroke:#348abd;stroke-opacity:0.5;" x="226.660047" xlink:href="#m3972a3c339" y="238.253013"/>
     <use style="fill:#348abd;fill-opacity:0.5;stroke:#348abd;stroke-opacity:0.5;" x="230.503615" xlink:href="#m3972a3c339" y="238.253013"/>
     <use style="fill:#348abd;fill-opacity:0.5;stroke:#348abd;stroke-opacity:0.5;" x="234.347184" xlink:href="#m3972a3c339" y="238.253013"/>
     <use style="fill:#348abd;fill-opacity:0.5;stroke:#348abd;stroke-opacity:0.5;" x="238.190753" xlink:href="#m3972a3c339" y="238.253013"/>
     <use style="fill:#348abd;fill-opacity:0.5;stroke:#348abd;stroke-opacity:0.5;" x="249.72146" xlink:href="#m3972a3c339" y="238.253013"/>
     <use style="fill:#348abd;fill-opacity:0.5;stroke:#348abd;stroke-opacity:0.5;" x="253.565029" xlink:href="#m3972a3c339" y="255.64351"/>
     <use style="fill:#348abd;fill-opacity:0.5;stroke:#348abd;stroke-opacity:0.5;" x="257.408597" xlink:href="#m3972a3c339" y="255.64351"/>
     <use style="fill:#348abd;fill-opacity:0.5;stroke:#348abd;stroke-opacity:0.5;" x="261.252166" xlink:href="#m3972a3c339" y="255.64351"/>
     <use style="fill:#348abd;fill-opacity:0.5;stroke:#348abd;stroke-opacity:0.5;" x="265.095735" xlink:href="#m3972a3c339" y="255.64351"/>
     <use style="fill:#348abd;fill-opacity:0.5;stroke:#348abd;stroke-opacity:0.5;" x="276.626442" xlink:href="#m3972a3c339" y="255.64351"/>
     <use style="fill:#348abd;fill-opacity:0.5;stroke:#348abd;stroke-opacity:0.5;" x="280.470011" xlink:href="#m3972a3c339" y="255.64351"/>
     <use style="fill:#348abd;fill-opacity:0.5;stroke:#348abd;stroke-opacity:0.5;" x="281.832682" xlink:href="#m3972a3c339" y="20737"/>
     <use style="fill:#348abd;fill-opacity:0.5;stroke:#348abd;stroke-opacity:0.5;" x="313.699459" xlink:href="#m3972a3c339" y="20737"/>
     <use style="fill:#348abd;fill-opacity:0.5;stroke:#348abd;stroke-opacity:0.5;" x="315.06213" xlink:href="#m3972a3c339" y="255.64351"/>
     <use style="fill:#348abd;fill-opacity:0.5;stroke:#348abd;stroke-opacity:0.5;" x="318.905699" xlink:href="#m3972a3c339" y="255.64351"/>
    </g>
   </g>
   <g id="line2d_62">
    <defs>
     <path d="M 0 1.5 
C 0.397805 1.5 0.77937 1.341951 1.06066 1.06066 
C 1.341951 0.77937 1.5 0.397805 1.5 0 
C 1.5 -0.397805 1.341951 -0.77937 1.06066 -1.06066 
C 0.77937 -1.341951 0.397805 -1.5 0 -1.5 
C -0.397805 -1.5 -0.77937 -1.341951 -1.06066 -1.06066 
C -1.341951 -0.77937 -1.5 -0.397805 -1.5 0 
C -1.5 0.397805 -1.341951 0.77937 -1.06066 1.06066 
C -0.77937 1.341951 -0.397805 1.5 0 1.5 
z
" id="m55cc0d143d" style="stroke:#e24a33;stroke-opacity:0.5;"/>
    </defs>
    <g clip-path="url(#pdc425fb12d)">
     <use style="fill:#e24a33;fill-opacity:0.5;stroke:#e24a33;stroke-opacity:0.5;" x="179.173802" xlink:href="#m55cc0d143d" y="20737"/>
     <use style="fill:#e24a33;fill-opacity:0.5;stroke:#e24a33;stroke-opacity:0.5;" x="180.53722" xlink:href="#m55cc0d143d" y="238.253013"/>
     <use style="fill:#e24a33;fill-opacity:0.5;stroke:#e24a33;stroke-opacity:0.5;" x="184.380789" xlink:href="#m55cc0d143d" y="238.253013"/>
     <use style="fill:#e24a33;fill-opacity:0.5;stroke:#e24a33;stroke-opacity:0.5;" x="195.911496" xlink:href="#m55cc0d143d" y="238.253013"/>
     <use style="fill:#e24a33;fill-opacity:0.5;stroke:#e24a33;stroke-opacity:0.5;" x="199.755064" xlink:href="#m55cc0d143d" y="238.253013"/>
     <use style="fill:#e24a33;fill-opacity:0.5;stroke:#e24a33;stroke-opacity:0.5;" x="203.598633" xlink:href="#m55cc0d143d" y="238.253013"/>
     <use style="fill:#e24a33;fill-opacity:0.5;stroke:#e24a33;stroke-opacity:0.5;" x="207.442202" xlink:href="#m55cc0d143d" y="238.253013"/>
     <use style="fill:#e24a33;fill-opacity:0.5;stroke:#e24a33;stroke-opacity:0.5;" x="211.285771" xlink:href="#m55cc0d143d" y="238.253013"/>
     <use style="fill:#e24a33;fill-opacity:0.5;stroke:#e24a33;stroke-opacity:0.5;" x="226.660047" xlink:href="#m55cc0d143d" y="238.253013"/>
     <use style="fill:#e24a33;fill-opacity:0.5;stroke:#e24a33;stroke-opacity:0.5;" x="230.503615" xlink:href="#m55cc0d143d" y="238.253013"/>
     <use style="fill:#e24a33;fill-opacity:0.5;stroke:#e24a33;stroke-opacity:0.5;" x="234.347184" xlink:href="#m55cc0d143d" y="228.080224"/>
     <use style="fill:#e24a33;fill-opacity:0.5;stroke:#e24a33;stroke-opacity:0.5;" x="238.190753" xlink:href="#m55cc0d143d" y="228.080224"/>
     <use style="fill:#e24a33;fill-opacity:0.5;stroke:#e24a33;stroke-opacity:0.5;" x="249.72146" xlink:href="#m55cc0d143d" y="228.080224"/>
     <use style="fill:#e24a33;fill-opacity:0.5;stroke:#e24a33;stroke-opacity:0.5;" x="253.565029" xlink:href="#m55cc0d143d" y="228.080224"/>
     <use style="fill:#e24a33;fill-opacity:0.5;stroke:#e24a33;stroke-opacity:0.5;" x="257.408597" xlink:href="#m55cc0d143d" y="228.080224"/>
     <use style="fill:#e24a33;fill-opacity:0.5;stroke:#e24a33;stroke-opacity:0.5;" x="261.252166" xlink:href="#m55cc0d143d" y="228.080224"/>
     <use style="fill:#e24a33;fill-opacity:0.5;stroke:#e24a33;stroke-opacity:0.5;" x="265.095735" xlink:href="#m55cc0d143d" y="228.080224"/>
     <use style="fill:#e24a33;fill-opacity:0.5;stroke:#e24a33;stroke-opacity:0.5;" x="276.626442" xlink:href="#m55cc0d143d" y="220.862515"/>
     <use style="fill:#e24a33;fill-opacity:0.5;stroke:#e24a33;stroke-opacity:0.5;" x="280.470011" xlink:href="#m55cc0d143d" y="220.862515"/>
     <use style="fill:#e24a33;fill-opacity:0.5;stroke:#e24a33;stroke-opacity:0.5;" x="284.31358" xlink:href="#m55cc0d143d" y="220.862515"/>
     <use style="fill:#e24a33;fill-opacity:0.5;stroke:#e24a33;stroke-opacity:0.5;" x="288.157148" xlink:href="#m55cc0d143d" y="220.862515"/>
     <use style="fill:#e24a33;fill-opacity:0.5;stroke:#e24a33;stroke-opacity:0.5;" x="292.000717" xlink:href="#m55cc0d143d" y="220.862515"/>
     <use style="fill:#e24a33;fill-opacity:0.5;stroke:#e24a33;stroke-opacity:0.5;" x="303.531424" xlink:href="#m55cc0d143d" y="220.862515"/>
     <use style="fill:#e24a33;fill-opacity:0.5;stroke:#e24a33;stroke-opacity:0.5;" x="307.374993" xlink:href="#m55cc0d143d" y="220.862515"/>
     <use style="fill:#e24a33;fill-opacity:0.5;stroke:#e24a33;stroke-opacity:0.5;" x="311.218562" xlink:href="#m55cc0d143d" y="215.264026"/>
     <use style="fill:#e24a33;fill-opacity:0.5;stroke:#e24a33;stroke-opacity:0.5;" x="315.06213" xlink:href="#m55cc0d143d" y="215.264026"/>
     <use style="fill:#e24a33;fill-opacity:0.5;stroke:#e24a33;stroke-opacity:0.5;" x="318.905699" xlink:href="#m55cc0d143d" y="215.264026"/>
     <use style="fill:#e24a33;fill-opacity:0.5;stroke:#e24a33;stroke-opacity:0.5;" x="330.436406" xlink:href="#m55cc0d143d" y="215.264026"/>
     <use style="fill:#e24a33;fill-opacity:0.5;stroke:#e24a33;stroke-opacity:0.5;" x="334.279975" xlink:href="#m55cc0d143d" y="215.264026"/>
     <use style="fill:#e24a33;fill-opacity:0.5;stroke:#e24a33;stroke-opacity:0.5;" x="338.123544" xlink:href="#m55cc0d143d" y="215.264026"/>
    </g>
   </g>
   <g id="line2d_63">
    <path clip-path="url(#pdc425fb12d)" d="M 119.040118 193.299229 
L 122.883687 186.081521 
L 126.727256 178.091776 
L 130.570825 170.310242 
L 134.414394 165.048525 
L 142.101531 163.727737 
L 145.9451 160.701279 
L 149.788669 159.046447 
L 153.632238 156.510028 
L 157.475807 154.206652 
L 161.319376 152.919745 
L 169.006513 150.151202 
L 172.850082 150.151202 
L 176.693651 148.345446 
L 180.53722 148.345446 
L 184.380789 147.658028 
L 188.224358 146.988943 
L 195.911496 146.017628 
L 199.755064 146.017628 
L 203.598633 145.390365 
L 207.442202 145.082519 
L 211.285771 144.477931 
L 215.12934 144.477931 
L 222.816478 143.597518 
L 226.660047 143.027285 
L 230.503615 142.195523 
L 234.347184 141.65595 
L 238.190753 141.65595 
L 242.034322 140.867743 
L 249.72146 139.606715 
L 253.565029 137.941419 
L 257.408597 137.712292 
L 261.252166 137.485239 
L 265.095735 136.816154 
L 268.939304 136.597034 
L 276.626442 136.164451 
L 280.470011 135.7392 
L 284.31358 135.529248 
L 288.157148 135.529248 
L 292.000717 135.321037 
L 295.844286 134.90973 
L 303.531424 134.706578 
L 307.374993 134.706578 
L 311.218562 134.706578 
L 315.06213 134.305142 
L 318.905699 134.505057 
L 322.749268 134.505057 
L 330.436406 134.505057 
L 334.279975 134.505057 
L 338.123544 134.505057 
" style="fill:none;stroke:#988ed5;stroke-linecap:square;stroke-opacity:0.5;stroke-width:1.5;"/>
   </g>
   <g id="line2d_64">
    <defs>
     <path d="M 0 1.5 
C 0.397805 1.5 0.77937 1.341951 1.06066 1.06066 
C 1.341951 0.77937 1.5 0.397805 1.5 0 
C 1.5 -0.397805 1.341951 -0.77937 1.06066 -1.06066 
C 0.77937 -1.341951 0.397805 -1.5 0 -1.5 
C -0.397805 -1.5 -0.77937 -1.341951 -1.06066 -1.06066 
C -1.341951 -0.77937 -1.5 -0.397805 -1.5 0 
C -1.5 0.397805 -1.341951 0.77937 -1.06066 1.06066 
C -0.77937 1.341951 -0.397805 1.5 0 1.5 
z
" id="m4076a0beef" style="stroke:#988ed5;"/>
    </defs>
    <g clip-path="url(#pdc425fb12d)">
     <use style="fill:#988ed5;stroke:#988ed5;" x="119.040118" xlink:href="#m4076a0beef" y="193.299229"/>
     <use style="fill:#988ed5;stroke:#988ed5;" x="122.883687" xlink:href="#m4076a0beef" y="186.081521"/>
     <use style="fill:#988ed5;stroke:#988ed5;" x="126.727256" xlink:href="#m4076a0beef" y="178.091776"/>
     <use style="fill:#988ed5;stroke:#988ed5;" x="130.570825" xlink:href="#m4076a0beef" y="170.310242"/>
     <use style="fill:#988ed5;stroke:#988ed5;" x="134.414394" xlink:href="#m4076a0beef" y="165.048525"/>
     <use style="fill:#988ed5;stroke:#988ed5;" x="142.101531" xlink:href="#m4076a0beef" y="163.727737"/>
     <use style="fill:#988ed5;stroke:#988ed5;" x="145.9451" xlink:href="#m4076a0beef" y="160.701279"/>
     <use style="fill:#988ed5;stroke:#988ed5;" x="149.788669" xlink:href="#m4076a0beef" y="159.046447"/>
     <use style="fill:#988ed5;stroke:#988ed5;" x="153.632238" xlink:href="#m4076a0beef" y="156.510028"/>
     <use style="fill:#988ed5;stroke:#988ed5;" x="157.475807" xlink:href="#m4076a0beef" y="154.206652"/>
     <use style="fill:#988ed5;stroke:#988ed5;" x="161.319376" xlink:href="#m4076a0beef" y="152.919745"/>
     <use style="fill:#988ed5;stroke:#988ed5;" x="169.006513" xlink:href="#m4076a0beef" y="150.151202"/>
     <use style="fill:#988ed5;stroke:#988ed5;" x="172.850082" xlink:href="#m4076a0beef" y="150.151202"/>
     <use style="fill:#988ed5;stroke:#988ed5;" x="176.693651" xlink:href="#m4076a0beef" y="148.345446"/>
     <use style="fill:#988ed5;stroke:#988ed5;" x="180.53722" xlink:href="#m4076a0beef" y="148.345446"/>
     <use style="fill:#988ed5;stroke:#988ed5;" x="184.380789" xlink:href="#m4076a0beef" y="147.658028"/>
     <use style="fill:#988ed5;stroke:#988ed5;" x="188.224358" xlink:href="#m4076a0beef" y="146.988943"/>
     <use style="fill:#988ed5;stroke:#988ed5;" x="195.911496" xlink:href="#m4076a0beef" y="146.017628"/>
     <use style="fill:#988ed5;stroke:#988ed5;" x="199.755064" xlink:href="#m4076a0beef" y="146.017628"/>
     <use style="fill:#988ed5;stroke:#988ed5;" x="203.598633" xlink:href="#m4076a0beef" y="145.390365"/>
     <use style="fill:#988ed5;stroke:#988ed5;" x="207.442202" xlink:href="#m4076a0beef" y="145.082519"/>
     <use style="fill:#988ed5;stroke:#988ed5;" x="211.285771" xlink:href="#m4076a0beef" y="144.477931"/>
     <use style="fill:#988ed5;stroke:#988ed5;" x="215.12934" xlink:href="#m4076a0beef" y="144.477931"/>
     <use style="fill:#988ed5;stroke:#988ed5;" x="222.816478" xlink:href="#m4076a0beef" y="143.597518"/>
     <use style="fill:#988ed5;stroke:#988ed5;" x="226.660047" xlink:href="#m4076a0beef" y="143.027285"/>
     <use style="fill:#988ed5;stroke:#988ed5;" x="230.503615" xlink:href="#m4076a0beef" y="142.195523"/>
     <use style="fill:#988ed5;stroke:#988ed5;" x="234.347184" xlink:href="#m4076a0beef" y="141.65595"/>
     <use style="fill:#988ed5;stroke:#988ed5;" x="238.190753" xlink:href="#m4076a0beef" y="141.65595"/>
     <use style="fill:#988ed5;stroke:#988ed5;" x="242.034322" xlink:href="#m4076a0beef" y="140.867743"/>
     <use style="fill:#988ed5;stroke:#988ed5;" x="249.72146" xlink:href="#m4076a0beef" y="139.606715"/>
     <use style="fill:#988ed5;stroke:#988ed5;" x="253.565029" xlink:href="#m4076a0beef" y="137.941419"/>
     <use style="fill:#988ed5;stroke:#988ed5;" x="257.408597" xlink:href="#m4076a0beef" y="137.712292"/>
     <use style="fill:#988ed5;stroke:#988ed5;" x="261.252166" xlink:href="#m4076a0beef" y="137.485239"/>
     <use style="fill:#988ed5;stroke:#988ed5;" x="265.095735" xlink:href="#m4076a0beef" y="136.816154"/>
     <use style="fill:#988ed5;stroke:#988ed5;" x="268.939304" xlink:href="#m4076a0beef" y="136.597034"/>
     <use style="fill:#988ed5;stroke:#988ed5;" x="276.626442" xlink:href="#m4076a0beef" y="136.164451"/>
     <use style="fill:#988ed5;stroke:#988ed5;" x="280.470011" xlink:href="#m4076a0beef" y="135.7392"/>
     <use style="fill:#988ed5;stroke:#988ed5;" x="284.31358" xlink:href="#m4076a0beef" y="135.529248"/>
     <use style="fill:#988ed5;stroke:#988ed5;" x="288.157148" xlink:href="#m4076a0beef" y="135.529248"/>
     <use style="fill:#988ed5;stroke:#988ed5;" x="292.000717" xlink:href="#m4076a0beef" y="135.321037"/>
     <use style="fill:#988ed5;stroke:#988ed5;" x="295.844286" xlink:href="#m4076a0beef" y="134.90973"/>
     <use style="fill:#988ed5;stroke:#988ed5;" x="303.531424" xlink:href="#m4076a0beef" y="134.706578"/>
     <use style="fill:#988ed5;stroke:#988ed5;" x="307.374993" xlink:href="#m4076a0beef" y="134.706578"/>
     <use style="fill:#988ed5;stroke:#988ed5;" x="311.218562" xlink:href="#m4076a0beef" y="134.706578"/>
     <use style="fill:#988ed5;stroke:#988ed5;" x="315.06213" xlink:href="#m4076a0beef" y="134.305142"/>
     <use style="fill:#988ed5;stroke:#988ed5;" x="318.905699" xlink:href="#m4076a0beef" y="134.505057"/>
     <use style="fill:#988ed5;stroke:#988ed5;" x="322.749268" xlink:href="#m4076a0beef" y="134.505057"/>
     <use style="fill:#988ed5;stroke:#988ed5;" x="330.436406" xlink:href="#m4076a0beef" y="134.505057"/>
     <use style="fill:#988ed5;stroke:#988ed5;" x="334.279975" xlink:href="#m4076a0beef" y="134.505057"/>
     <use style="fill:#988ed5;stroke:#988ed5;" x="338.123544" xlink:href="#m4076a0beef" y="134.505057"/>
    </g>
   </g>
   <g id="line2d_65">
    <path clip-path="url(#pdc425fb12d)" d="M 142.101531 163.727737 
L 145.9451 160.701279 
L 149.788669 162.473016 
L 153.632238 160.701279 
L 157.475807 158.000913 
L 169.006513 161.278067 
L 172.850082 162.473016 
L 176.693651 160.137453 
L 180.53722 162.473016 
L 184.380789 162.473016 
L 195.911496 161.278067 
L 199.755064 161.868428 
L 203.598633 161.868428 
L 207.442202 161.278067 
L 226.660047 163.092534 
L 230.503615 161.868428 
L 234.347184 164.379441 
L 238.190753 167.918988 
L 249.72146 172.041217 
L 253.565029 166.442727 
L 257.408597 169.487572 
L 261.252166 172.041217 
L 265.095735 170.310242 
L 276.626442 168.691023 
L 280.470011 171.160804 
L 284.31358 173.900526 
L 288.157148 175.908732 
L 292.000717 186.081521 
L 303.531424 187.70074 
L 307.374993 187.70074 
L 311.218562 191.291023 
L 315.06213 193.299229 
L 318.905699 197.873528 
L 330.436406 203.472018 
L 334.279975 215.264026 
L 338.123544 215.264026 
" style="fill:none;stroke:#348abd;stroke-linecap:square;stroke-opacity:0.5;stroke-width:1.5;"/>
   </g>
   <g id="line2d_66">
    <defs>
     <path d="M 0 1.5 
C 0.397805 1.5 0.77937 1.341951 1.06066 1.06066 
C 1.341951 0.77937 1.5 0.397805 1.5 0 
C 1.5 -0.397805 1.341951 -0.77937 1.06066 -1.06066 
C 0.77937 -1.341951 0.397805 -1.5 0 -1.5 
C -0.397805 -1.5 -0.77937 -1.341951 -1.06066 -1.06066 
C -1.341951 -0.77937 -1.5 -0.397805 -1.5 0 
C -1.5 0.397805 -1.341951 0.77937 -1.06066 1.06066 
C -0.77937 1.341951 -0.397805 1.5 0 1.5 
z
" id="mf017663bdb" style="stroke:#348abd;"/>
    </defs>
    <g clip-path="url(#pdc425fb12d)">
     <use style="fill:#348abd;stroke:#348abd;" x="142.101531" xlink:href="#mf017663bdb" y="163.727737"/>
     <use style="fill:#348abd;stroke:#348abd;" x="145.9451" xlink:href="#mf017663bdb" y="160.701279"/>
     <use style="fill:#348abd;stroke:#348abd;" x="149.788669" xlink:href="#mf017663bdb" y="162.473016"/>
     <use style="fill:#348abd;stroke:#348abd;" x="153.632238" xlink:href="#mf017663bdb" y="160.701279"/>
     <use style="fill:#348abd;stroke:#348abd;" x="157.475807" xlink:href="#mf017663bdb" y="158.000913"/>
     <use style="fill:#348abd;stroke:#348abd;" x="169.006513" xlink:href="#mf017663bdb" y="161.278067"/>
     <use style="fill:#348abd;stroke:#348abd;" x="172.850082" xlink:href="#mf017663bdb" y="162.473016"/>
     <use style="fill:#348abd;stroke:#348abd;" x="176.693651" xlink:href="#mf017663bdb" y="160.137453"/>
     <use style="fill:#348abd;stroke:#348abd;" x="180.53722" xlink:href="#mf017663bdb" y="162.473016"/>
     <use style="fill:#348abd;stroke:#348abd;" x="184.380789" xlink:href="#mf017663bdb" y="162.473016"/>
     <use style="fill:#348abd;stroke:#348abd;" x="195.911496" xlink:href="#mf017663bdb" y="161.278067"/>
     <use style="fill:#348abd;stroke:#348abd;" x="199.755064" xlink:href="#mf017663bdb" y="161.868428"/>
     <use style="fill:#348abd;stroke:#348abd;" x="203.598633" xlink:href="#mf017663bdb" y="161.868428"/>
     <use style="fill:#348abd;stroke:#348abd;" x="207.442202" xlink:href="#mf017663bdb" y="161.278067"/>
     <use style="fill:#348abd;stroke:#348abd;" x="226.660047" xlink:href="#mf017663bdb" y="163.092534"/>
     <use style="fill:#348abd;stroke:#348abd;" x="230.503615" xlink:href="#mf017663bdb" y="161.868428"/>
     <use style="fill:#348abd;stroke:#348abd;" x="234.347184" xlink:href="#mf017663bdb" y="164.379441"/>
     <use style="fill:#348abd;stroke:#348abd;" x="238.190753" xlink:href="#mf017663bdb" y="167.918988"/>
     <use style="fill:#348abd;stroke:#348abd;" x="249.72146" xlink:href="#mf017663bdb" y="172.041217"/>
     <use style="fill:#348abd;stroke:#348abd;" x="253.565029" xlink:href="#mf017663bdb" y="166.442727"/>
     <use style="fill:#348abd;stroke:#348abd;" x="257.408597" xlink:href="#mf017663bdb" y="169.487572"/>
     <use style="fill:#348abd;stroke:#348abd;" x="261.252166" xlink:href="#mf017663bdb" y="172.041217"/>
     <use style="fill:#348abd;stroke:#348abd;" x="265.095735" xlink:href="#mf017663bdb" y="170.310242"/>
     <use style="fill:#348abd;stroke:#348abd;" x="276.626442" xlink:href="#mf017663bdb" y="168.691023"/>
     <use style="fill:#348abd;stroke:#348abd;" x="280.470011" xlink:href="#mf017663bdb" y="171.160804"/>
     <use style="fill:#348abd;stroke:#348abd;" x="284.31358" xlink:href="#mf017663bdb" y="173.900526"/>
     <use style="fill:#348abd;stroke:#348abd;" x="288.157148" xlink:href="#mf017663bdb" y="175.908732"/>
     <use style="fill:#348abd;stroke:#348abd;" x="292.000717" xlink:href="#mf017663bdb" y="186.081521"/>
     <use style="fill:#348abd;stroke:#348abd;" x="303.531424" xlink:href="#mf017663bdb" y="187.70074"/>
     <use style="fill:#348abd;stroke:#348abd;" x="307.374993" xlink:href="#mf017663bdb" y="187.70074"/>
     <use style="fill:#348abd;stroke:#348abd;" x="311.218562" xlink:href="#mf017663bdb" y="191.291023"/>
     <use style="fill:#348abd;stroke:#348abd;" x="315.06213" xlink:href="#mf017663bdb" y="193.299229"/>
     <use style="fill:#348abd;stroke:#348abd;" x="318.905699" xlink:href="#mf017663bdb" y="197.873528"/>
     <use style="fill:#348abd;stroke:#348abd;" x="330.436406" xlink:href="#mf017663bdb" y="203.472018"/>
     <use style="fill:#348abd;stroke:#348abd;" x="334.279975" xlink:href="#mf017663bdb" y="215.264026"/>
     <use style="fill:#348abd;stroke:#348abd;" x="338.123544" xlink:href="#mf017663bdb" y="215.264026"/>
    </g>
   </g>
   <g id="line2d_67">
    <path clip-path="url(#pdc425fb12d)" d="M 142.101531 220.862515 
L 145.9451 220.862515 
L 149.788669 215.264026 
L 153.632238 215.264026 
L 157.475807 203.472018 
L 169.006513 200.516938 
L 172.850082 200.516938 
L 176.693651 195.482274 
L 180.53722 195.482274 
L 184.380789 189.431714 
L 195.911496 183.12644 
L 199.755064 183.12644 
L 203.598633 180.483031 
L 207.442202 179.258926 
L 226.660047 176.976518 
L 230.503615 176.976518 
L 234.347184 178.091776 
L 238.190753 176.976518 
L 249.72146 178.091776 
L 253.565029 176.976518 
L 257.408597 176.976518 
L 261.252166 178.091776 
L 265.095735 178.091776 
L 276.626442 175.908732 
L 280.470011 175.908732 
L 284.31358 175.908732 
L 288.157148 175.908732 
L 292.000717 174.884541 
L 303.531424 174.884541 
L 307.374993 174.884541 
L 311.218562 174.884541 
L 315.06213 174.884541 
L 318.905699 174.884541 
L 330.436406 174.884541 
L 334.279975 174.884541 
L 338.123544 174.884541 
" style="fill:none;stroke:#777777;stroke-linecap:square;stroke-opacity:0.5;stroke-width:1.5;"/>
   </g>
   <g id="line2d_68">
    <path clip-path="url(#pdc425fb12d)" d="M 142.101531 238.253013 
L 145.9451 238.253013 
L 149.788669 228.080224 
L 153.632238 228.080224 
L 157.475807 228.080224 
L 184.380789 215.264026 
L 195.911496 220.862515 
L 199.755064 228.080224 
L 203.598633 220.862515 
L 207.442202 228.080224 
L 226.660047 238.253013 
L 230.503615 238.253013 
L 234.347184 238.253013 
L 238.190753 238.253013 
L 249.72146 238.253013 
L 253.565029 255.64351 
L 257.408597 255.64351 
L 261.252166 255.64351 
L 265.095735 255.64351 
L 276.626442 255.64351 
L 280.470011 255.64351 
L 280.47223 289 
M 315.059911 289 
L 315.06213 255.64351 
L 318.905699 255.64351 
L 318.912357 289 
" style="fill:none;stroke:#348abd;stroke-linecap:square;stroke-opacity:0.5;stroke-width:1.5;"/>
   </g>
   <g id="line2d_69">
    <path clip-path="url(#pdc425fb12d)" d="M 180.533845 289 
L 180.53722 238.253013 
L 184.380789 238.253013 
L 195.911496 238.253013 
L 199.755064 238.253013 
L 203.598633 238.253013 
L 207.442202 238.253013 
L 211.285771 238.253013 
L 226.660047 238.253013 
L 230.503615 238.253013 
L 234.347184 228.080224 
L 238.190753 228.080224 
L 249.72146 228.080224 
L 253.565029 228.080224 
L 257.408597 228.080224 
L 261.252166 228.080224 
L 265.095735 228.080224 
L 276.626442 220.862515 
L 280.470011 220.862515 
L 284.31358 220.862515 
L 288.157148 220.862515 
L 292.000717 220.862515 
L 303.531424 220.862515 
L 307.374993 220.862515 
L 311.218562 215.264026 
L 315.06213 215.264026 
L 318.905699 215.264026 
L 330.436406 215.264026 
L 334.279975 215.264026 
L 338.123544 215.264026 
" style="fill:none;stroke:#e24a33;stroke-linecap:square;stroke-opacity:0.5;stroke-width:1.5;"/>
   </g>
   <g id="line2d_70">
    <path clip-path="url(#pdc425fb12d)" style="fill:none;stroke:#e24a33;stroke-linecap:square;stroke-width:1.5;"/>
   </g>
   <g id="patch_3">
    <path d="M 43.51399 255.64351 
L 43.51399 24.563583 
" style="fill:none;stroke:#ffffff;stroke-linecap:square;stroke-linejoin:miter;"/>
   </g>
   <g id="patch_4">
    <path d="M 352.15257 255.64351 
L 352.15257 24.563583 
" style="fill:none;stroke:#ffffff;stroke-linecap:square;stroke-linejoin:miter;"/>
   </g>
   <g id="patch_5">
    <path d="M 43.51399 255.64351 
L 352.15257 255.64351 
" style="fill:none;stroke:#ffffff;stroke-linecap:square;stroke-linejoin:miter;"/>
   </g>
   <g id="patch_6">
    <path d="M 43.51399 24.563583 
L 352.15257 24.563583 
" style="fill:none;stroke:#ffffff;stroke-linecap:square;stroke-linejoin:miter;"/>
   </g>
   <g id="text_14">
    <!--  Doubling time:  -->
    <defs>
     <path id="BitstreamVeraSans-Oblique-32"/>
     <path d="M 16.890625 72.90625 
L 38.09375 72.90625 
Q 54.984375 72.90625 63.59375 65.75 
Q 72.21875 58.59375 72.21875 44.484375 
Q 72.21875 35.15625 68.9375 26.53125 
Q 65.671875 17.921875 59.90625 12.015625 
Q 54.109375 5.953125 45.171875 2.96875 
Q 36.234375 0 24.03125 0 
L 2.6875 0 
z
M 25.203125 64.796875 
L 14.203125 8.109375 
L 27.09375 8.109375 
Q 43.65625 8.109375 52.734375 17.625 
Q 61.8125 27.15625 61.8125 44.484375 
Q 61.8125 54.984375 55.953125 59.890625 
Q 50.09375 64.796875 37.59375 64.796875 
z
" id="BitstreamVeraSans-Oblique-68"/>
     <path d="M 25.390625 -1.421875 
Q 15.765625 -1.421875 10.171875 4.515625 
Q 4.59375 10.453125 4.59375 20.703125 
Q 4.59375 26.65625 6.515625 32.828125 
Q 8.453125 39.015625 11.53125 43.21875 
Q 16.359375 49.75 22.3125 52.875 
Q 28.265625 56 35.796875 56 
Q 45.125 56 50.859375 50.1875 
Q 56.59375 44.390625 56.59375 35.015625 
Q 56.59375 28.515625 54.6875 22.0625 
Q 52.78125 15.625 49.703125 11.375 
Q 44.921875 4.828125 38.96875 1.703125 
Q 33.015625 -1.421875 25.390625 -1.421875 
z
M 13.921875 21 
Q 13.921875 13.578125 17.015625 9.890625 
Q 20.125 6.203125 26.421875 6.203125 
Q 35.453125 6.203125 41.375 14.078125 
Q 47.3125 21.96875 47.3125 34.078125 
Q 47.3125 41.15625 44.140625 44.765625 
Q 40.96875 48.390625 34.8125 48.390625 
Q 29.734375 48.390625 25.78125 46.015625 
Q 21.828125 43.65625 18.703125 38.8125 
Q 16.40625 35.203125 15.15625 30.5625 
Q 13.921875 25.921875 13.921875 21 
z
" id="BitstreamVeraSans-Oblique-111"/>
     <path d="M 6.6875 21.6875 
L 13.09375 54.6875 
L 22.125 54.6875 
L 15.71875 22.015625 
Q 15.234375 19.625 15.015625 17.921875 
Q 14.796875 16.21875 14.796875 15.09375 
Q 14.796875 10.9375 17.328125 8.65625 
Q 19.875 6.390625 24.515625 6.390625 
Q 31.734375 6.390625 37 11.265625 
Q 42.28125 16.15625 43.890625 24.421875 
L 49.90625 54.6875 
L 58.890625 54.6875 
L 48.296875 0 
L 39.3125 0 
L 41.109375 8.59375 
Q 37.3125 3.8125 32.0625 1.1875 
Q 26.8125 -1.421875 20.90625 -1.421875 
Q 13.71875 -1.421875 9.71875 2.515625 
Q 5.71875 6.453125 5.71875 13.484375 
Q 5.71875 14.9375 5.953125 17.140625 
Q 6.203125 19.34375 6.6875 21.6875 
z
" id="BitstreamVeraSans-Oblique-117"/>
     <path d="M 49.515625 33.40625 
Q 49.515625 40.484375 46.265625 44.484375 
Q 43.015625 48.484375 37.3125 48.484375 
Q 33.15625 48.484375 29.515625 46.453125 
Q 25.875 44.4375 23.1875 40.578125 
Q 20.359375 36.53125 18.71875 31.171875 
Q 17.09375 25.828125 17.09375 20.515625 
Q 17.09375 13.765625 20.28125 9.9375 
Q 23.484375 6.109375 29.109375 6.109375 
Q 33.34375 6.109375 36.953125 8.078125 
Q 40.578125 10.0625 43.3125 13.921875 
Q 46.09375 17.921875 47.796875 23.234375 
Q 49.515625 28.5625 49.515625 33.40625 
z
M 21.578125 46.390625 
Q 24.90625 50.875 29.90625 53.4375 
Q 34.90625 56 40.375 56 
Q 48.78125 56 53.734375 50.328125 
Q 58.6875 44.671875 58.6875 35.015625 
Q 58.6875 27.09375 55.78125 19.671875 
Q 52.875 12.25 47.515625 6.5 
Q 44 2.6875 39.40625 0.625 
Q 34.8125 -1.421875 29.78125 -1.421875 
Q 24.46875 -1.421875 20.5625 1.015625 
Q 16.65625 3.46875 14.203125 8.296875 
L 12.59375 0 
L 3.609375 0 
L 18.40625 75.984375 
L 27.390625 75.984375 
z
" id="BitstreamVeraSans-Oblique-98"/>
     <path d="M 18.3125 75.984375 
L 27.296875 75.984375 
L 12.5 0 
L 3.515625 0 
z
" id="BitstreamVeraSans-Oblique-108"/>
     <path d="M 18.3125 75.984375 
L 27.296875 75.984375 
L 25.09375 64.59375 
L 16.109375 64.59375 
z
M 14.203125 54.6875 
L 23.1875 54.6875 
L 12.5 0 
L 3.515625 0 
z
" id="BitstreamVeraSans-Oblique-105"/>
     <path d="M 55.71875 33.015625 
L 49.3125 0 
L 40.28125 0 
L 46.6875 32.671875 
Q 47.125 34.96875 47.359375 36.71875 
Q 47.609375 38.484375 47.609375 39.5 
Q 47.609375 43.609375 45.015625 45.890625 
Q 42.4375 48.1875 37.796875 48.1875 
Q 30.5625 48.1875 25.34375 43.375 
Q 20.125 38.578125 18.5 30.328125 
L 12.5 0 
L 3.515625 0 
L 14.109375 54.6875 
L 23.09375 54.6875 
L 21.296875 46.09375 
Q 25.046875 50.828125 30.3125 53.40625 
Q 35.59375 56 41.40625 56 
Q 48.640625 56 52.609375 52.09375 
Q 56.59375 48.1875 56.59375 41.109375 
Q 56.59375 39.359375 56.375 37.359375 
Q 56.15625 35.359375 55.71875 33.015625 
z
" id="BitstreamVeraSans-Oblique-110"/>
     <path d="M 59.625 54.6875 
L 50.296875 6.78125 
Q 47.609375 -7.125 40.015625 -13.953125 
Q 32.421875 -20.796875 19.578125 -20.796875 
Q 14.84375 -20.796875 10.78125 -20.09375 
Q 6.734375 -19.390625 3.21875 -17.921875 
L 4.890625 -9.1875 
Q 8.203125 -11.328125 11.90625 -12.34375 
Q 15.625 -13.375 19.828125 -13.375 
Q 28.375 -13.375 33.859375 -8.703125 
Q 39.359375 -4.046875 41.109375 4.6875 
L 41.890625 8.796875 
Q 38.140625 4.5 33.15625 2.25 
Q 28.171875 0 22.40625 0 
Q 14.109375 0 9.34375 5.484375 
Q 4.59375 10.984375 4.59375 20.609375 
Q 4.59375 28.171875 7.46875 35.421875 
Q 10.359375 42.671875 15.578125 48.296875 
Q 19.046875 52 23.65625 54 
Q 28.265625 56 33.296875 56 
Q 38.8125 56 42.90625 53.4375 
Q 47.015625 50.875 49.03125 46.1875 
L 50.59375 54.6875 
z
M 46.09375 34.625 
Q 46.09375 41.265625 42.96875 44.875 
Q 39.84375 48.484375 34.078125 48.484375 
Q 30.515625 48.484375 27.296875 47.0625 
Q 24.078125 45.65625 21.78125 43.109375 
Q 18.0625 38.921875 15.984375 33.234375 
Q 13.921875 27.546875 13.921875 21.484375 
Q 13.921875 14.75 17.0625 11.125 
Q 20.21875 7.515625 26.125 7.515625 
Q 34.671875 7.515625 40.375 15.25 
Q 46.09375 23 46.09375 34.625 
z
" id="BitstreamVeraSans-Oblique-103"/>
     <path d="M 42.28125 54.6875 
L 40.921875 47.703125 
L 23 47.703125 
L 17.1875 18.015625 
Q 16.890625 16.359375 16.75 15.234375 
Q 16.609375 14.109375 16.609375 13.484375 
Q 16.609375 10.359375 18.484375 8.9375 
Q 20.359375 7.515625 24.515625 7.515625 
L 33.59375 7.515625 
L 32.078125 0 
L 23.484375 0 
Q 15.484375 0 11.546875 3.125 
Q 7.625 6.25 7.625 12.59375 
Q 7.625 13.71875 7.765625 15.0625 
Q 7.90625 16.40625 8.203125 18.015625 
L 14.015625 47.703125 
L 6.390625 47.703125 
L 7.8125 54.6875 
L 15.28125 54.6875 
L 18.3125 70.21875 
L 27.296875 70.21875 
L 24.3125 54.6875 
z
" id="BitstreamVeraSans-Oblique-116"/>
     <path d="M 89.796875 33.015625 
L 83.40625 0 
L 74.421875 0 
L 80.71875 32.71875 
Q 81.109375 34.8125 81.296875 36.328125 
Q 81.5 37.84375 81.5 38.921875 
Q 81.5 43.3125 79.046875 45.75 
Q 76.609375 48.1875 72.21875 48.1875 
Q 65.671875 48.1875 60.546875 43.28125 
Q 55.421875 38.375 53.90625 30.515625 
L 47.90625 0 
L 38.921875 0 
L 45.3125 32.71875 
Q 45.703125 34.515625 45.890625 36.046875 
Q 46.09375 37.59375 46.09375 38.8125 
Q 46.09375 43.265625 43.65625 45.71875 
Q 41.21875 48.1875 36.921875 48.1875 
Q 30.28125 48.1875 25.140625 43.28125 
Q 20.015625 38.375 18.5 30.515625 
L 12.5 0 
L 3.515625 0 
L 14.203125 54.6875 
L 23.1875 54.6875 
L 21.484375 46.1875 
Q 25.140625 50.984375 30.046875 53.484375 
Q 34.96875 56 40.578125 56 
Q 46.53125 56 50.359375 52.875 
Q 54.203125 49.75 54.984375 44.1875 
Q 59.078125 49.953125 64.46875 52.96875 
Q 69.875 56 75.875 56 
Q 82.90625 56 86.734375 51.953125 
Q 90.578125 47.90625 90.578125 40.484375 
Q 90.578125 38.875 90.375 36.9375 
Q 90.1875 35.015625 89.796875 33.015625 
z
" id="BitstreamVeraSans-Oblique-109"/>
     <path d="M 48.09375 32.234375 
Q 48.25 33.015625 48.3125 33.84375 
Q 48.390625 34.671875 48.390625 35.5 
Q 48.390625 41.453125 44.890625 44.921875 
Q 41.40625 48.390625 35.40625 48.390625 
Q 28.71875 48.390625 23.578125 44.15625 
Q 18.453125 39.9375 15.828125 32.171875 
z
M 55.90625 25.203125 
L 14.109375 25.203125 
Q 13.8125 23.34375 13.71875 22.265625 
Q 13.625 21.1875 13.625 20.40625 
Q 13.625 13.625 17.796875 9.90625 
Q 21.96875 6.203125 29.59375 6.203125 
Q 35.453125 6.203125 40.671875 7.515625 
Q 45.90625 8.84375 50.390625 11.375 
L 48.6875 2.484375 
Q 43.84375 0.53125 38.6875 -0.4375 
Q 33.546875 -1.421875 28.21875 -1.421875 
Q 16.84375 -1.421875 10.71875 4.015625 
Q 4.59375 9.46875 4.59375 19.484375 
Q 4.59375 28.03125 7.640625 35.375 
Q 10.6875 42.71875 16.609375 48.484375 
Q 20.40625 52.09375 25.65625 54.046875 
Q 30.90625 56 36.8125 56 
Q 46.09375 56 51.578125 50.4375 
Q 57.078125 44.875 57.078125 35.5 
Q 57.078125 33.25 56.78125 30.6875 
Q 56.5 28.125 55.90625 25.203125 
z
" id="BitstreamVeraSans-Oblique-101"/>
     <path d="M 15.28125 51.703125 
L 25.59375 51.703125 
L 23.1875 39.3125 
L 12.890625 39.3125 
z
M 7.625 12.40625 
L 17.921875 12.40625 
L 15.484375 0 
L 5.171875 0 
z
" id="BitstreamVeraSans-Oblique-58"/>
    </defs>
    <g transform="translate(222.816478 124.565635)scale(0.0833 -0.0833)">
     <use xlink:href="#BitstreamVeraSans-Oblique-32"/>
     <use x="31.787109" xlink:href="#BitstreamVeraSans-Oblique-68"/>
     <use x="108.789062" xlink:href="#BitstreamVeraSans-Oblique-111"/>
     <use x="169.970703" xlink:href="#BitstreamVeraSans-Oblique-117"/>
     <use x="233.349609" xlink:href="#BitstreamVeraSans-Oblique-98"/>
     <use x="296.826172" xlink:href="#BitstreamVeraSans-Oblique-108"/>
     <use x="324.609375" xlink:href="#BitstreamVeraSans-Oblique-105"/>
     <use x="352.392578" xlink:href="#BitstreamVeraSans-Oblique-110"/>
     <use x="415.771484" xlink:href="#BitstreamVeraSans-Oblique-103"/>
     <use x="479.248047" xlink:href="#BitstreamVeraSans-Oblique-32"/>
     <use x="511.035156" xlink:href="#BitstreamVeraSans-Oblique-116"/>
     <use x="550.244141" xlink:href="#BitstreamVeraSans-Oblique-105"/>
     <use x="578.027344" xlink:href="#BitstreamVeraSans-Oblique-109"/>
     <use x="675.439453" xlink:href="#BitstreamVeraSans-Oblique-101"/>
     <use x="736.962891" xlink:href="#BitstreamVeraSans-Oblique-58"/>
     <use x="770.654297" xlink:href="#BitstreamVeraSans-Oblique-32"/>
    </g>
    <!--    -811.90d  -->
    <defs>
     <path d="M 6.109375 31.390625 
L 32.421875 31.390625 
L 30.90625 23.390625 
L 4.5 23.390625 
z
" id="BitstreamVeraSans-Oblique-45"/>
     <path d="M 44.484375 22.125 
Q 44.484375 27.640625 40.625 31.125 
Q 36.765625 34.625 30.515625 34.625 
Q 22.90625 34.625 17.9375 30.046875 
Q 12.984375 25.484375 12.984375 18.5 
Q 12.984375 12.9375 16.765625 9.65625 
Q 20.5625 6.390625 27 6.390625 
Q 34.671875 6.390625 39.578125 10.828125 
Q 44.484375 15.28125 44.484375 22.125 
z
M 49.515625 56.109375 
Q 49.515625 60.75 46.09375 63.578125 
Q 42.671875 66.40625 37.015625 66.40625 
Q 30.328125 66.40625 26 62.640625 
Q 21.6875 58.890625 21.6875 53.21875 
Q 21.6875 48.34375 25.078125 45.359375 
Q 28.46875 42.390625 34.078125 42.390625 
Q 40.828125 42.390625 45.171875 46.265625 
Q 49.515625 50.140625 49.515625 56.109375 
z
M 42.828125 38.375 
Q 48.34375 36.28125 51.265625 32.03125 
Q 54.203125 27.78125 54.203125 21.78125 
Q 54.203125 11.671875 46.390625 5.125 
Q 38.578125 -1.421875 26.21875 -1.421875 
Q 15.71875 -1.421875 9.515625 3.734375 
Q 3.328125 8.890625 3.328125 17.484375 
Q 3.328125 25.296875 8.640625 31.375 
Q 13.96875 37.453125 22.515625 39.109375 
Q 17.390625 40.875 14.703125 44.5625 
Q 12.015625 48.25 12.015625 53.515625 
Q 12.015625 62.359375 19.359375 68.28125 
Q 26.703125 74.21875 37.984375 74.21875 
Q 47.40625 74.21875 53.34375 69.40625 
Q 59.28125 64.59375 59.28125 57.171875 
Q 59.28125 50.734375 54.859375 45.671875 
Q 50.4375 40.625 42.828125 38.375 
z
" id="BitstreamVeraSans-Oblique-56"/>
     <path d="M 6.5 8.296875 
L 22.609375 8.296875 
L 33.5 64.40625 
L 15.28125 60.890625 
L 17 69.390625 
L 35.109375 72.90625 
L 45.015625 72.90625 
L 32.421875 8.296875 
L 48.484375 8.296875 
L 46.921875 0 
L 4.890625 0 
z
" id="BitstreamVeraSans-Oblique-49"/>
     <path d="M 8.203125 12.40625 
L 18.5 12.40625 
L 16.109375 0 
L 5.8125 0 
z
" id="BitstreamVeraSans-Oblique-46"/>
     <path d="M 4.390625 1.609375 
L 6.203125 10.59375 
Q 9.03125 8.734375 12.640625 7.75 
Q 16.265625 6.78125 20.40625 6.78125 
Q 30.515625 6.78125 36.6875 13.171875 
Q 42.875 19.578125 45.90625 33.109375 
Q 42.28125 28.953125 37.515625 26.78125 
Q 32.765625 24.609375 27.296875 24.609375 
Q 18.40625 24.609375 13.15625 29.75 
Q 7.90625 34.90625 7.90625 43.609375 
Q 7.90625 50.734375 10.5 56.859375 
Q 13.09375 62.984375 18.109375 67.578125 
Q 21.53125 70.796875 26.015625 72.5 
Q 30.515625 74.21875 35.59375 74.21875 
Q 45.703125 74.21875 51.5625 67.796875 
Q 57.421875 61.375 57.421875 50.296875 
Q 57.421875 39.984375 54.703125 30.359375 
Q 52 20.75 47.21875 13.71875 
Q 42.140625 6.296875 35 2.4375 
Q 27.875 -1.421875 19.1875 -1.421875 
Q 15.4375 -1.421875 11.6875 -0.65625 
Q 7.953125 0.09375 4.390625 1.609375 
z
M 17.671875 45.90625 
Q 17.671875 39.703125 20.890625 36.0625 
Q 24.125 32.421875 29.59375 32.421875 
Q 37.15625 32.421875 42.28125 38.234375 
Q 47.40625 44.046875 47.40625 52.6875 
Q 47.40625 59.125 44.234375 62.765625 
Q 41.0625 66.40625 35.5 66.40625 
Q 27.9375 66.40625 22.796875 60.46875 
Q 17.671875 54.546875 17.671875 45.90625 
z
" id="BitstreamVeraSans-Oblique-57"/>
     <path d="M 38.1875 74.21875 
Q 48.09375 74.21875 53.34375 67.625 
Q 58.59375 61.03125 58.59375 48.6875 
Q 58.59375 39.3125 56.125 30.046875 
Q 53.65625 20.796875 49.21875 13.484375 
Q 44.671875 6.15625 38.546875 2.359375 
Q 32.421875 -1.421875 25 -1.421875 
Q 15.4375 -1.421875 10.203125 5.21875 
Q 4.984375 11.859375 4.984375 24.125 
Q 4.984375 33.40625 7.5 42.703125 
Q 10.015625 52 14.5 59.28125 
Q 19 66.609375 25.03125 70.40625 
Q 31.0625 74.21875 38.1875 74.21875 
z
M 37.59375 66.40625 
Q 33.890625 66.40625 30.546875 64.421875 
Q 27.203125 62.453125 24.515625 58.59375 
Q 20.015625 52.15625 17.359375 42.5 
Q 14.703125 32.859375 14.703125 22.703125 
Q 14.703125 14.65625 17.546875 10.515625 
Q 20.40625 6.390625 25.984375 6.390625 
Q 29.890625 6.390625 33.203125 8.375 
Q 36.53125 10.359375 39.203125 14.203125 
Q 43.65625 20.609375 46.265625 30.25 
Q 48.875 39.890625 48.875 50.09375 
Q 48.875 58.15625 46.015625 62.28125 
Q 43.171875 66.40625 37.59375 66.40625 
z
" id="BitstreamVeraSans-Oblique-48"/>
     <path d="M 41.796875 8.203125 
Q 38.1875 3.46875 33.25 1.015625 
Q 28.328125 -1.421875 22.3125 -1.421875 
Q 14.109375 -1.421875 9.34375 4.171875 
Q 4.59375 9.765625 4.59375 19.484375 
Q 4.59375 27.59375 7.46875 34.9375 
Q 10.359375 42.28125 15.828125 48.09375 
Q 19.4375 51.953125 23.96875 53.96875 
Q 28.515625 56 33.5 56 
Q 38.765625 56 42.796875 53.453125 
Q 46.828125 50.921875 49.03125 46.1875 
L 54.890625 75.984375 
L 63.921875 75.984375 
L 49.125 0 
L 40.09375 0 
z
M 13.921875 21.09375 
Q 13.921875 14.015625 17.109375 10.0625 
Q 20.3125 6.109375 25.984375 6.109375 
Q 30.171875 6.109375 33.765625 8.125 
Q 37.359375 10.15625 40.09375 14.109375 
Q 42.96875 18.21875 44.625 23.578125 
Q 46.296875 28.953125 46.296875 34.1875 
Q 46.296875 40.96875 43.09375 44.765625 
Q 39.890625 48.578125 34.28125 48.578125 
Q 30.03125 48.578125 26.359375 46.578125 
Q 22.703125 44.578125 20.125 40.828125 
Q 17.28125 36.765625 15.59375 31.390625 
Q 13.921875 26.03125 13.921875 21.09375 
z
" id="BitstreamVeraSans-Oblique-100"/>
    </defs>
    <g transform="translate(222.816478 133.893413)scale(0.0833 -0.0833)">
     <use xlink:href="#BitstreamVeraSans-Oblique-32"/>
     <use x="31.787109" xlink:href="#BitstreamVeraSans-Oblique-32"/>
     <use x="63.574219" xlink:href="#BitstreamVeraSans-Oblique-32"/>
     <use x="95.361328" xlink:href="#BitstreamVeraSans-Oblique-45"/>
     <use x="131.445312" xlink:href="#BitstreamVeraSans-Oblique-56"/>
     <use x="195.068359" xlink:href="#BitstreamVeraSans-Oblique-49"/>
     <use x="258.691406" xlink:href="#BitstreamVeraSans-Oblique-49"/>
     <use x="322.314453" xlink:href="#BitstreamVeraSans-Oblique-46"/>
     <use x="354.101562" xlink:href="#BitstreamVeraSans-Oblique-57"/>
     <use x="417.724609" xlink:href="#BitstreamVeraSans-Oblique-48"/>
     <use x="481.347656" xlink:href="#BitstreamVeraSans-Oblique-100"/>
     <use x="544.824219" xlink:href="#BitstreamVeraSans-Oblique-32"/>
    </g>
   </g>
   <g id="text_15">
    <!-- VANCOUVER ISLAND COVID-19 STATS  -->
    <defs>
     <path d="M 7.625 72.90625 
L 25.484375 72.90625 
L 34.421875 18.40625 
L 64.59375 72.90625 
L 83.984375 72.90625 
L 42.828125 0 
L 20.40625 0 
z
" id="BitstreamVeraSans-BoldOblique-86"/>
     <path d="M 49.125 13.28125 
L 20.015625 13.28125 
L 12.796875 0 
L -6.5 0 
L 34.71875 72.90625 
L 56.203125 72.90625 
L 69.09375 0 
L 51.21875 0 
z
M 27.09375 26.515625 
L 46.6875 26.515625 
L 42.28125 54.59375 
z
" id="BitstreamVeraSans-BoldOblique-65"/>
     <path d="M 16.3125 72.90625 
L 37.3125 72.90625 
L 54 22.40625 
L 63.8125 72.90625 
L 81.59375 72.90625 
L 67.390625 0 
L 46.390625 0 
L 29.6875 50.484375 
L 19.921875 0 
L 2.09375 0 
z
" id="BitstreamVeraSans-BoldOblique-78"/>
     <path d="M 60.59375 3.421875 
Q 53.859375 1.03125 47.65625 -0.1875 
Q 41.453125 -1.421875 35.890625 -1.421875 
Q 21.1875 -1.421875 12.390625 6.640625 
Q 3.609375 14.703125 3.609375 27.984375 
Q 3.609375 36.71875 6.390625 44.453125 
Q 9.1875 52.203125 14.59375 58.59375 
Q 21 66.109375 30 70.15625 
Q 39.015625 74.21875 49.421875 74.21875 
Q 55.078125 74.21875 60.78125 72.875 
Q 66.5 71.53125 72.40625 68.796875 
L 69.390625 53.71875 
Q 64.703125 57.28125 59.953125 58.9375 
Q 55.21875 60.59375 49.8125 60.59375 
Q 38.53125 60.59375 30.90625 51.90625 
Q 23.296875 43.21875 23.296875 30.171875 
Q 23.296875 21.78125 27.984375 16.984375 
Q 32.671875 12.203125 40.921875 12.203125 
Q 45.84375 12.203125 51.390625 13.984375 
Q 56.9375 15.765625 63.8125 19.578125 
z
" id="BitstreamVeraSans-BoldOblique-67"/>
     <path d="M 61.53125 43.015625 
Q 61.53125 51.609375 57.640625 56.09375 
Q 53.765625 60.59375 46.390625 60.59375 
Q 36.625 60.59375 30 51.828125 
Q 23.390625 43.0625 23.390625 29.890625 
Q 23.390625 21.484375 27.25 16.84375 
Q 31.109375 12.203125 37.984375 12.203125 
Q 43.609375 12.203125 47.96875 14.5625 
Q 52.34375 16.9375 55.421875 21.578125 
Q 58.34375 26.03125 59.9375 31.59375 
Q 61.53125 37.15625 61.53125 43.015625 
z
M 49.125 74.21875 
Q 63.671875 74.21875 72.53125 66.140625 
Q 81.390625 58.0625 81.390625 45.015625 
Q 81.390625 36.140625 78.6875 28.21875 
Q 75.984375 20.3125 70.796875 14.015625 
Q 64.453125 6.25 55.78125 2.40625 
Q 47.125 -1.421875 35.796875 -1.421875 
Q 21.296875 -1.421875 12.453125 6.640625 
Q 3.609375 14.703125 3.609375 27.78125 
Q 3.609375 36.71875 6.296875 44.625 
Q 8.984375 52.546875 14.203125 58.890625 
Q 20.453125 66.609375 29.125 70.40625 
Q 37.796875 74.21875 49.125 74.21875 
z
" id="BitstreamVeraSans-BoldOblique-79"/>
     <path d="M 16.3125 72.90625 
L 35.109375 72.90625 
L 26.609375 29.25 
Q 26.125 26.90625 25.90625 25.09375 
Q 25.6875 23.296875 25.6875 21.921875 
Q 25.6875 17.140625 28.25 14.765625 
Q 30.8125 12.40625 35.890625 12.40625 
Q 42.71875 12.40625 46.375 16.234375 
Q 50.046875 20.0625 51.8125 29.203125 
L 60.296875 72.90625 
L 79.109375 72.90625 
L 70.609375 29.203125 
Q 67.4375 13.09375 58.5625 5.828125 
Q 49.703125 -1.421875 33.203125 -1.421875 
Q 20.265625 -1.421875 13.515625 4.125 
Q 6.78125 9.671875 6.78125 20.21875 
Q 6.78125 21.96875 7.03125 24.140625 
Q 7.28125 26.3125 7.8125 29.203125 
z
" id="BitstreamVeraSans-BoldOblique-85"/>
     <path d="M 16.3125 72.90625 
L 67 72.90625 
L 64.203125 58.6875 
L 32.328125 58.6875 
L 29.6875 45.125 
L 59.71875 45.125 
L 56.890625 30.90625 
L 26.90625 30.90625 
L 23.6875 14.203125 
L 56.59375 14.203125 
L 53.90625 0 
L 2.09375 0 
z
" id="BitstreamVeraSans-BoldOblique-69"/>
     <path d="M 36.71875 40.578125 
Q 43.109375 40.578125 46.40625 43.546875 
Q 49.703125 46.53125 49.703125 52.296875 
Q 49.703125 55.90625 47.4375 57.59375 
Q 45.171875 59.28125 40.28125 59.28125 
L 32.515625 59.28125 
L 28.8125 40.578125 
z
M 26.3125 27.59375 
L 20.90625 0 
L 2.09375 0 
L 16.3125 72.90625 
L 44.09375 72.90625 
Q 56.109375 72.90625 62.296875 68.40625 
Q 68.5 63.921875 68.5 55.171875 
Q 68.5 46.34375 63.609375 40.625 
Q 58.734375 34.90625 50.390625 34.078125 
Q 54.203125 33.296875 56.734375 30.1875 
Q 59.28125 27.09375 61.1875 20.703125 
L 67.390625 0 
L 48.6875 0 
L 43.21875 18.109375 
Q 41.546875 23.53125 39.171875 25.5625 
Q 36.8125 27.59375 32.328125 27.59375 
z
" id="BitstreamVeraSans-BoldOblique-82"/>
     <path id="BitstreamVeraSans-BoldOblique-32"/>
     <path d="M 16.3125 72.90625 
L 35.109375 72.90625 
L 20.90625 0 
L 2.09375 0 
z
" id="BitstreamVeraSans-BoldOblique-73"/>
     <path d="M 66.5 70.609375 
L 63.484375 55.171875 
Q 57.953125 57.90625 52.578125 59.25 
Q 47.21875 60.59375 42.09375 60.59375 
Q 35.0625 60.59375 31.125 58.390625 
Q 27.203125 56.203125 27.203125 52.296875 
Q 27.203125 49.8125 28.9375 48.40625 
Q 30.671875 47.015625 36.078125 45.703125 
L 43.796875 43.796875 
Q 53.46875 41.359375 57.984375 36.734375 
Q 62.5 32.125 62.5 24.8125 
Q 62.5 12.9375 53.484375 5.75 
Q 44.484375 -1.421875 29.296875 -1.421875 
Q 22.21875 -1.421875 15.203125 -0.09375 
Q 8.203125 1.21875 1.515625 3.8125 
L 4.5 19.671875 
Q 10.984375 15.921875 17.109375 14.0625 
Q 23.25 12.203125 29.203125 12.203125 
Q 35.640625 12.203125 39.671875 14.84375 
Q 43.703125 17.484375 43.703125 21.578125 
Q 43.703125 24.265625 41.890625 25.75 
Q 40.09375 27.25 33.984375 28.8125 
L 26.3125 30.71875 
Q 17.828125 32.8125 13.671875 37.34375 
Q 9.515625 41.890625 9.515625 49.125 
Q 9.515625 60.5 18.234375 67.359375 
Q 26.953125 74.21875 41.703125 74.21875 
Q 47.609375 74.21875 53.828125 73.3125 
Q 60.0625 72.40625 66.5 70.609375 
z
" id="BitstreamVeraSans-BoldOblique-83"/>
     <path d="M 16.3125 72.90625 
L 35.109375 72.90625 
L 23.6875 14.203125 
L 56.59375 14.203125 
L 53.90625 0 
L 2.09375 0 
z
" id="BitstreamVeraSans-BoldOblique-76"/>
     <path d="M 32.421875 58.6875 
L 23.6875 14.203125 
L 30.421875 14.203125 
Q 43.5625 14.203125 51.21875 21.578125 
Q 58.890625 28.953125 58.890625 41.5 
Q 58.890625 50 53.875 54.34375 
Q 48.875 58.6875 39.015625 58.6875 
z
M 16.3125 72.90625 
L 36.078125 72.90625 
Q 50.25 72.90625 57.328125 71.21875 
Q 64.40625 69.53125 69.09375 65.578125 
Q 73.828125 61.625 76.21875 55.984375 
Q 78.609375 50.34375 78.609375 43.21875 
Q 78.609375 33.296875 74.53125 24.53125 
Q 70.453125 15.765625 63.09375 9.8125 
Q 56.640625 4.5 48.109375 2.25 
Q 39.59375 0 21.921875 0 
L 2.09375 0 
z
" id="BitstreamVeraSans-BoldOblique-68"/>
     <path d="M 5.328125 35.890625 
L 35.984375 35.890625 
L 33.203125 21.6875 
L 2.484375 21.6875 
z
" id="BitstreamVeraSans-BoldOblique-45"/>
     <path d="M 6.890625 12.984375 
L 23.484375 12.984375 
L 32.625 60.109375 
L 14.890625 56.59375 
L 17.390625 69.390625 
L 35.015625 72.90625 
L 52.875 72.90625 
L 41.3125 12.984375 
L 57.8125 12.984375 
L 55.328125 0 
L 4.296875 0 
z
" id="BitstreamVeraSans-BoldOblique-49"/>
     <path d="M 4.109375 1.609375 
L 6.6875 15.09375 
Q 10.9375 12.890625 14.890625 11.84375 
Q 18.84375 10.796875 22.796875 10.796875 
Q 31.890625 10.796875 37.5 15.671875 
Q 43.109375 20.5625 44.28125 29.390625 
Q 40.53125 26.90625 36.515625 25.703125 
Q 32.515625 24.515625 27.984375 24.515625 
Q 19.046875 24.515625 13.328125 29.828125 
Q 7.625 35.15625 7.625 43.40625 
Q 7.625 56.890625 16.4375 65.5 
Q 25.25 74.125 39.109375 74.125 
Q 51.5625 74.125 58.375 67.0625 
Q 65.1875 60.015625 65.1875 47.125 
Q 65.1875 37.203125 62.15625 28.140625 
Q 59.125 19.09375 53.609375 12.5 
Q 47.75 5.515625 39.8125 2 
Q 31.890625 -1.515625 21.921875 -1.515625 
Q 17.28125 -1.515625 12.890625 -0.734375 
Q 8.5 0.046875 4.109375 1.609375 
z
M 33.890625 36.625 
Q 39.453125 36.625 43.015625 41.203125 
Q 46.578125 45.796875 46.578125 52.984375 
Q 46.578125 57.421875 44.453125 59.8125 
Q 42.328125 62.203125 38.375 62.203125 
Q 32.859375 62.203125 29.21875 57.65625 
Q 25.59375 53.125 25.59375 46.296875 
Q 25.59375 41.609375 27.734375 39.109375 
Q 29.890625 36.625 33.890625 36.625 
z
" id="BitstreamVeraSans-BoldOblique-57"/>
     <path d="M 7.625 72.90625 
L 74.8125 72.90625 
L 72.015625 58.6875 
L 47.796875 58.6875 
L 36.375 0 
L 17.578125 0 
L 29 58.6875 
L 4.78125 58.6875 
z
" id="BitstreamVeraSans-BoldOblique-84"/>
    </defs>
    <g transform="translate(43.51399 13.941985)scale(0.144 -0.144)">
     <use xlink:href="#BitstreamVeraSans-BoldOblique-86"/>
     <use x="70.642578" xlink:href="#BitstreamVeraSans-BoldOblique-65"/>
     <use x="148.035156" xlink:href="#BitstreamVeraSans-BoldOblique-78"/>
     <use x="231.726562" xlink:href="#BitstreamVeraSans-BoldOblique-67"/>
     <use x="305.115234" xlink:href="#BitstreamVeraSans-BoldOblique-79"/>
     <use x="390.125" xlink:href="#BitstreamVeraSans-BoldOblique-85"/>
     <use x="471.326172" xlink:href="#BitstreamVeraSans-BoldOblique-86"/>
     <use x="548.71875" xlink:href="#BitstreamVeraSans-BoldOblique-69"/>
     <use x="617.029297" xlink:href="#BitstreamVeraSans-BoldOblique-82"/>
     <use x="694.03125" xlink:href="#BitstreamVeraSans-BoldOblique-32"/>
     <use x="728.845703" xlink:href="#BitstreamVeraSans-BoldOblique-73"/>
     <use x="766.052734" xlink:href="#BitstreamVeraSans-BoldOblique-83"/>
     <use x="838.074219" xlink:href="#BitstreamVeraSans-BoldOblique-76"/>
     <use x="901.794922" xlink:href="#BitstreamVeraSans-BoldOblique-65"/>
     <use x="979.1875" xlink:href="#BitstreamVeraSans-BoldOblique-78"/>
     <use x="1062.878906" xlink:href="#BitstreamVeraSans-BoldOblique-68"/>
     <use x="1145.886719" xlink:href="#BitstreamVeraSans-BoldOblique-32"/>
     <use x="1180.701172" xlink:href="#BitstreamVeraSans-BoldOblique-67"/>
     <use x="1254.089844" xlink:href="#BitstreamVeraSans-BoldOblique-79"/>
     <use x="1335.474609" xlink:href="#BitstreamVeraSans-BoldOblique-86"/>
     <use x="1412.867188" xlink:href="#BitstreamVeraSans-BoldOblique-73"/>
     <use x="1450.074219" xlink:href="#BitstreamVeraSans-BoldOblique-68"/>
     <use x="1534.957031" xlink:href="#BitstreamVeraSans-BoldOblique-45"/>
     <use x="1576.460938" xlink:href="#BitstreamVeraSans-BoldOblique-49"/>
     <use x="1646.041016" xlink:href="#BitstreamVeraSans-BoldOblique-57"/>
     <use x="1715.621094" xlink:href="#BitstreamVeraSans-BoldOblique-32"/>
     <use x="1750.435547" xlink:href="#BitstreamVeraSans-BoldOblique-83"/>
     <use x="1822.457031" xlink:href="#BitstreamVeraSans-BoldOblique-84"/>
     <use x="1882.919922" xlink:href="#BitstreamVeraSans-BoldOblique-65"/>
     <use x="1950.6875" xlink:href="#BitstreamVeraSans-BoldOblique-84"/>
     <use x="2018.900391" xlink:href="#BitstreamVeraSans-BoldOblique-83"/>
     <use x="2090.921875" xlink:href="#BitstreamVeraSans-BoldOblique-32"/>
    </g>
   </g>
   <g id="legend_1">
    <g id="patch_7">
     <path d="M 251.822883 105.954208 
L 345.15257 105.954208 
Q 347.15257 105.954208 347.15257 103.954208 
L 347.15257 31.563583 
Q 347.15257 29.563583 345.15257 29.563583 
L 251.822883 29.563583 
Q 249.822883 29.563583 249.822883 31.563583 
L 249.822883 103.954208 
Q 249.822883 105.954208 251.822883 105.954208 
z
" style="fill:#e5e5e5;opacity:0.8;stroke:#cccccc;stroke-linejoin:miter;stroke-width:0.5;"/>
    </g>
    <g id="line2d_71"/>
    <g id="line2d_72">
     <g>
      <use style="fill:#988ed5;stroke:#988ed5;" x="263.822883" xlink:href="#m4076a0beef" y="37.662021"/>
     </g>
    </g>
    <g id="text_16">
     <!-- Cases -->
     <g transform="translate(281.822883 41.162021)scale(0.1 -0.1)">
      <use xlink:href="#BitstreamVeraSans-Roman-67"/>
      <use x="69.824219" xlink:href="#BitstreamVeraSans-Roman-97"/>
      <use x="131.103516" xlink:href="#BitstreamVeraSans-Roman-115"/>
      <use x="183.203125" xlink:href="#BitstreamVeraSans-Roman-101"/>
      <use x="244.726562" xlink:href="#BitstreamVeraSans-Roman-115"/>
     </g>
    </g>
    <g id="line2d_73"/>
    <g id="line2d_74">
     <g>
      <use style="fill:#348abd;stroke:#348abd;" x="263.822883" xlink:href="#mf017663bdb" y="52.340146"/>
     </g>
    </g>
    <g id="text_17">
     <!-- Active -->
     <defs>
      <path d="M 48.78125 52.59375 
L 48.78125 44.1875 
Q 44.96875 46.296875 41.140625 47.34375 
Q 37.3125 48.390625 33.40625 48.390625 
Q 24.65625 48.390625 19.8125 42.84375 
Q 14.984375 37.3125 14.984375 27.296875 
Q 14.984375 17.28125 19.8125 11.734375 
Q 24.65625 6.203125 33.40625 6.203125 
Q 37.3125 6.203125 41.140625 7.25 
Q 44.96875 8.296875 48.78125 10.40625 
L 48.78125 2.09375 
Q 45.015625 0.34375 40.984375 -0.53125 
Q 36.96875 -1.421875 32.421875 -1.421875 
Q 20.0625 -1.421875 12.78125 6.34375 
Q 5.515625 14.109375 5.515625 27.296875 
Q 5.515625 40.671875 12.859375 48.328125 
Q 20.21875 56 33.015625 56 
Q 37.15625 56 41.109375 55.140625 
Q 45.0625 54.296875 48.78125 52.59375 
z
" id="BitstreamVeraSans-Roman-99"/>
      <path d="M 18.3125 70.21875 
L 18.3125 54.6875 
L 36.8125 54.6875 
L 36.8125 47.703125 
L 18.3125 47.703125 
L 18.3125 18.015625 
Q 18.3125 11.328125 20.140625 9.421875 
Q 21.96875 7.515625 27.59375 7.515625 
L 36.8125 7.515625 
L 36.8125 0 
L 27.59375 0 
Q 17.1875 0 13.234375 3.875 
Q 9.28125 7.765625 9.28125 18.015625 
L 9.28125 47.703125 
L 2.6875 47.703125 
L 2.6875 54.6875 
L 9.28125 54.6875 
L 9.28125 70.21875 
z
" id="BitstreamVeraSans-Roman-116"/>
      <path d="M 9.421875 54.6875 
L 18.40625 54.6875 
L 18.40625 0 
L 9.421875 0 
z
M 9.421875 75.984375 
L 18.40625 75.984375 
L 18.40625 64.59375 
L 9.421875 64.59375 
z
" id="BitstreamVeraSans-Roman-105"/>
      <path d="M 2.984375 54.6875 
L 12.5 54.6875 
L 29.59375 8.796875 
L 46.6875 54.6875 
L 56.203125 54.6875 
L 35.6875 0 
L 23.484375 0 
z
" id="BitstreamVeraSans-Roman-118"/>
     </defs>
     <g transform="translate(281.822883 55.840146)scale(0.1 -0.1)">
      <use xlink:href="#BitstreamVeraSans-Roman-65"/>
      <use x="66.658203" xlink:href="#BitstreamVeraSans-Roman-99"/>
      <use x="121.638672" xlink:href="#BitstreamVeraSans-Roman-116"/>
      <use x="160.847656" xlink:href="#BitstreamVeraSans-Roman-105"/>
      <use x="188.630859" xlink:href="#BitstreamVeraSans-Roman-118"/>
      <use x="247.810547" xlink:href="#BitstreamVeraSans-Roman-101"/>
     </g>
    </g>
    <g id="line2d_75"/>
    <g id="line2d_76">
     <g>
      <use style="fill:#777777;fill-opacity:0.5;stroke:#777777;stroke-opacity:0.5;" x="263.822883" xlink:href="#md78f06ac05" y="67.018271"/>
     </g>
    </g>
    <g id="text_18">
     <!-- Hospitalized -->
     <defs>
      <path d="M 9.8125 72.90625 
L 19.671875 72.90625 
L 19.671875 43.015625 
L 55.515625 43.015625 
L 55.515625 72.90625 
L 65.375 72.90625 
L 65.375 0 
L 55.515625 0 
L 55.515625 34.71875 
L 19.671875 34.71875 
L 19.671875 0 
L 9.8125 0 
z
" id="BitstreamVeraSans-Roman-72"/>
      <path d="M 30.609375 48.390625 
Q 23.390625 48.390625 19.1875 42.75 
Q 14.984375 37.109375 14.984375 27.296875 
Q 14.984375 17.484375 19.15625 11.84375 
Q 23.34375 6.203125 30.609375 6.203125 
Q 37.796875 6.203125 41.984375 11.859375 
Q 46.1875 17.53125 46.1875 27.296875 
Q 46.1875 37.015625 41.984375 42.703125 
Q 37.796875 48.390625 30.609375 48.390625 
z
M 30.609375 56 
Q 42.328125 56 49.015625 48.375 
Q 55.71875 40.765625 55.71875 27.296875 
Q 55.71875 13.875 49.015625 6.21875 
Q 42.328125 -1.421875 30.609375 -1.421875 
Q 18.84375 -1.421875 12.171875 6.21875 
Q 5.515625 13.875 5.515625 27.296875 
Q 5.515625 40.765625 12.171875 48.375 
Q 18.84375 56 30.609375 56 
z
" id="BitstreamVeraSans-Roman-111"/>
      <path d="M 9.421875 75.984375 
L 18.40625 75.984375 
L 18.40625 0 
L 9.421875 0 
z
" id="BitstreamVeraSans-Roman-108"/>
      <path d="M 5.515625 54.6875 
L 48.1875 54.6875 
L 48.1875 46.484375 
L 14.40625 7.171875 
L 48.1875 7.171875 
L 48.1875 0 
L 4.296875 0 
L 4.296875 8.203125 
L 38.09375 47.515625 
L 5.515625 47.515625 
z
" id="BitstreamVeraSans-Roman-122"/>
      <path d="M 45.40625 46.390625 
L 45.40625 75.984375 
L 54.390625 75.984375 
L 54.390625 0 
L 45.40625 0 
L 45.40625 8.203125 
Q 42.578125 3.328125 38.25 0.953125 
Q 33.9375 -1.421875 27.875 -1.421875 
Q 17.96875 -1.421875 11.734375 6.484375 
Q 5.515625 14.40625 5.515625 27.296875 
Q 5.515625 40.1875 11.734375 48.09375 
Q 17.96875 56 27.875 56 
Q 33.9375 56 38.25 53.625 
Q 42.578125 51.265625 45.40625 46.390625 
z
M 14.796875 27.296875 
Q 14.796875 17.390625 18.875 11.75 
Q 22.953125 6.109375 30.078125 6.109375 
Q 37.203125 6.109375 41.296875 11.75 
Q 45.40625 17.390625 45.40625 27.296875 
Q 45.40625 37.203125 41.296875 42.84375 
Q 37.203125 48.484375 30.078125 48.484375 
Q 22.953125 48.484375 18.875 42.84375 
Q 14.796875 37.203125 14.796875 27.296875 
z
" id="BitstreamVeraSans-Roman-100"/>
     </defs>
     <g transform="translate(281.822883 70.518271)scale(0.1 -0.1)">
      <use xlink:href="#BitstreamVeraSans-Roman-72"/>
      <use x="75.195312" xlink:href="#BitstreamVeraSans-Roman-111"/>
      <use x="136.376953" xlink:href="#BitstreamVeraSans-Roman-115"/>
      <use x="188.476562" xlink:href="#BitstreamVeraSans-Roman-112"/>
      <use x="251.953125" xlink:href="#BitstreamVeraSans-Roman-105"/>
      <use x="279.736328" xlink:href="#BitstreamVeraSans-Roman-116"/>
      <use x="318.945312" xlink:href="#BitstreamVeraSans-Roman-97"/>
      <use x="380.224609" xlink:href="#BitstreamVeraSans-Roman-108"/>
      <use x="408.007812" xlink:href="#BitstreamVeraSans-Roman-105"/>
      <use x="435.791016" xlink:href="#BitstreamVeraSans-Roman-122"/>
      <use x="488.28125" xlink:href="#BitstreamVeraSans-Roman-101"/>
      <use x="549.804688" xlink:href="#BitstreamVeraSans-Roman-100"/>
     </g>
    </g>
    <g id="line2d_77"/>
    <g id="line2d_78">
     <g>
      <use style="fill:#348abd;fill-opacity:0.5;stroke:#348abd;stroke-opacity:0.5;" x="263.822883" xlink:href="#m3972a3c339" y="81.696396"/>
     </g>
    </g>
    <g id="text_19">
     <!-- ICU -->
     <defs>
      <path d="M 9.8125 72.90625 
L 19.671875 72.90625 
L 19.671875 0 
L 9.8125 0 
z
" id="BitstreamVeraSans-Roman-73"/>
      <path d="M 8.6875 72.90625 
L 18.609375 72.90625 
L 18.609375 28.609375 
Q 18.609375 16.890625 22.84375 11.734375 
Q 27.09375 6.59375 36.625 6.59375 
Q 46.09375 6.59375 50.34375 11.734375 
Q 54.59375 16.890625 54.59375 28.609375 
L 54.59375 72.90625 
L 64.5 72.90625 
L 64.5 27.390625 
Q 64.5 13.140625 57.4375 5.859375 
Q 50.390625 -1.421875 36.625 -1.421875 
Q 22.796875 -1.421875 15.734375 5.859375 
Q 8.6875 13.140625 8.6875 27.390625 
z
" id="BitstreamVeraSans-Roman-85"/>
     </defs>
     <g transform="translate(281.822883 85.196396)scale(0.1 -0.1)">
      <use xlink:href="#BitstreamVeraSans-Roman-73"/>
      <use x="29.492188" xlink:href="#BitstreamVeraSans-Roman-67"/>
      <use x="99.316406" xlink:href="#BitstreamVeraSans-Roman-85"/>
     </g>
    </g>
    <g id="line2d_79"/>
    <g id="line2d_80">
     <g>
      <use style="fill:#e24a33;fill-opacity:0.5;stroke:#e24a33;stroke-opacity:0.5;" x="263.822883" xlink:href="#m55cc0d143d" y="96.374521"/>
     </g>
    </g>
    <g id="text_20">
     <!-- Fatalities -->
     <defs>
      <path d="M 9.8125 72.90625 
L 51.703125 72.90625 
L 51.703125 64.59375 
L 19.671875 64.59375 
L 19.671875 43.109375 
L 48.578125 43.109375 
L 48.578125 34.8125 
L 19.671875 34.8125 
L 19.671875 0 
L 9.8125 0 
z
" id="BitstreamVeraSans-Roman-70"/>
     </defs>
     <g transform="translate(281.822883 99.874521)scale(0.1 -0.1)">
      <use xlink:href="#BitstreamVeraSans-Roman-70"/>
      <use x="48.394531" xlink:href="#BitstreamVeraSans-Roman-97"/>
      <use x="109.673828" xlink:href="#BitstreamVeraSans-Roman-116"/>
      <use x="148.882812" xlink:href="#BitstreamVeraSans-Roman-97"/>
      <use x="210.162109" xlink:href="#BitstreamVeraSans-Roman-108"/>
      <use x="237.945312" xlink:href="#BitstreamVeraSans-Roman-105"/>
      <use x="265.728516" xlink:href="#BitstreamVeraSans-Roman-116"/>
      <use x="304.9375" xlink:href="#BitstreamVeraSans-Roman-105"/>
      <use x="332.720703" xlink:href="#BitstreamVeraSans-Roman-101"/>
      <use x="394.244141" xlink:href="#BitstreamVeraSans-Roman-115"/>
     </g>
    </g>
   </g>
  </g>
 </g>
 <defs>
  <clipPath id="pdc425fb12d">
   <rect height="231.079927" width="308.63858" x="43.51399" y="24.563583"/>
  </clipPath>
 </defs>
</svg>
