<?xml version="1.0" encoding="utf-8" standalone="no"?>
<!DOCTYPE svg PUBLIC "-//W3C//DTD SVG 1.1//EN"
  "http://www.w3.org/Graphics/SVG/1.1/DTD/svg11.dtd">
<!-- Created with matplotlib (https://matplotlib.org/) -->
<svg height="288pt" version="1.1" viewBox="0 0 360 288" width="360pt" xmlns="http://www.w3.org/2000/svg" xmlns:xlink="http://www.w3.org/1999/xlink">
 <defs>
  <style type="text/css">
*{stroke-linecap:butt;stroke-linejoin:round;}
  </style>
 </defs>
 <g id="figure_1">
  <g id="patch_1">
   <path d="M 0 288 
L 360 288 
L 360 0 
L 0 0 
z
" style="fill:#ffffff;"/>
  </g>
  <g id="axes_1">
   <g id="patch_2">
    <path d="M 63.78899 131.506829 
L 347.81557 131.506829 
L 347.81557 22.129534 
L 63.78899 22.129534 
z
" style="fill:#e5e5e5;"/>
   </g>
   <g id="matplotlib.axis_1">
    <g id="xtick_1">
     <g id="line2d_1">
      <path clip-path="url(#p530f95a159)" d="M 102.84673 131.506829 
L 102.84673 22.129534 
" style="fill:none;stroke:#ffffff;stroke-linecap:square;stroke-width:0.8;"/>
     </g>
     <g id="line2d_2">
      <defs>
       <path d="M 0 0 
L 0 3.5 
" id="m38946a50b4" style="stroke:#555555;stroke-width:0.8;"/>
      </defs>
      <g>
       <use style="fill:#555555;stroke:#555555;stroke-width:0.8;" x="102.84673" xlink:href="#m38946a50b4" y="131.506829"/>
      </g>
     </g>
    </g>
    <g id="xtick_2">
     <g id="line2d_3">
      <path clip-path="url(#p530f95a159)" d="M 158.410043 131.506829 
L 158.410043 22.129534 
" style="fill:none;stroke:#ffffff;stroke-linecap:square;stroke-width:0.8;"/>
     </g>
     <g id="line2d_4">
      <g>
       <use style="fill:#555555;stroke:#555555;stroke-width:0.8;" x="158.410043" xlink:href="#m38946a50b4" y="131.506829"/>
      </g>
     </g>
    </g>
    <g id="xtick_3">
     <g id="line2d_5">
      <path clip-path="url(#p530f95a159)" d="M 204.168065 131.506829 
L 204.168065 22.129534 
" style="fill:none;stroke:#ffffff;stroke-linecap:square;stroke-width:0.8;"/>
     </g>
     <g id="line2d_6">
      <g>
       <use style="fill:#555555;stroke:#555555;stroke-width:0.8;" x="204.168065" xlink:href="#m38946a50b4" y="131.506829"/>
      </g>
     </g>
    </g>
    <g id="xtick_4">
     <g id="line2d_7">
      <path clip-path="url(#p530f95a159)" d="M 256.462947 131.506829 
L 256.462947 22.129534 
" style="fill:none;stroke:#ffffff;stroke-linecap:square;stroke-width:0.8;"/>
     </g>
     <g id="line2d_8">
      <g>
       <use style="fill:#555555;stroke:#555555;stroke-width:0.8;" x="256.462947" xlink:href="#m38946a50b4" y="131.506829"/>
      </g>
     </g>
    </g>
    <g id="xtick_5">
     <g id="line2d_9">
      <path clip-path="url(#p530f95a159)" d="M 302.220969 131.506829 
L 302.220969 22.129534 
" style="fill:none;stroke:#ffffff;stroke-linecap:square;stroke-width:0.8;"/>
     </g>
     <g id="line2d_10">
      <g>
       <use style="fill:#555555;stroke:#555555;stroke-width:0.8;" x="302.220969" xlink:href="#m38946a50b4" y="131.506829"/>
      </g>
     </g>
    </g>
   </g>
   <g id="matplotlib.axis_2">
    <g id="ytick_1">
     <g id="line2d_11">
      <path clip-path="url(#p530f95a159)" d="M 63.78899 131.506829 
L 347.81557 131.506829 
" style="fill:none;stroke:#ffffff;stroke-linecap:square;stroke-width:0.8;"/>
     </g>
     <g id="line2d_12">
      <defs>
       <path d="M 0 0 
L -3.5 0 
" id="maea4c9a0df" style="stroke:#555555;stroke-width:0.8;"/>
      </defs>
      <g>
       <use style="fill:#555555;stroke:#555555;stroke-width:0.8;" x="63.78899" xlink:href="#maea4c9a0df" y="131.506829"/>
      </g>
     </g>
     <g id="text_1">
      <!-- 0 -->
      <defs>
       <path d="M 31.78125 66.40625 
Q 24.171875 66.40625 20.328125 58.90625 
Q 16.5 51.421875 16.5 36.375 
Q 16.5 21.390625 20.328125 13.890625 
Q 24.171875 6.390625 31.78125 6.390625 
Q 39.453125 6.390625 43.28125 13.890625 
Q 47.125 21.390625 47.125 36.375 
Q 47.125 51.421875 43.28125 58.90625 
Q 39.453125 66.40625 31.78125 66.40625 
z
M 31.78125 74.21875 
Q 44.046875 74.21875 50.515625 64.515625 
Q 56.984375 54.828125 56.984375 36.375 
Q 56.984375 17.96875 50.515625 8.265625 
Q 44.046875 -1.421875 31.78125 -1.421875 
Q 19.53125 -1.421875 13.0625 8.265625 
Q 6.59375 17.96875 6.59375 36.375 
Q 6.59375 54.828125 13.0625 64.515625 
Q 19.53125 74.21875 31.78125 74.21875 
z
" id="BitstreamVeraSans-Roman-48"/>
      </defs>
      <g style="fill:#555555;" transform="translate(50.42649 135.306048)scale(0.1 -0.1)">
       <use xlink:href="#BitstreamVeraSans-Roman-48"/>
      </g>
     </g>
    </g>
    <g id="ytick_2">
     <g id="line2d_13">
      <path clip-path="url(#p530f95a159)" d="M 63.78899 104.82944 
L 347.81557 104.82944 
" style="fill:none;stroke:#ffffff;stroke-linecap:square;stroke-width:0.8;"/>
     </g>
     <g id="line2d_14">
      <g>
       <use style="fill:#555555;stroke:#555555;stroke-width:0.8;" x="63.78899" xlink:href="#maea4c9a0df" y="104.82944"/>
      </g>
     </g>
     <g id="text_2">
      <!-- 50000 -->
      <defs>
       <path d="M 10.796875 72.90625 
L 49.515625 72.90625 
L 49.515625 64.59375 
L 19.828125 64.59375 
L 19.828125 46.734375 
Q 21.96875 47.46875 24.109375 47.828125 
Q 26.265625 48.1875 28.421875 48.1875 
Q 40.625 48.1875 47.75 41.5 
Q 54.890625 34.8125 54.890625 23.390625 
Q 54.890625 11.625 47.5625 5.09375 
Q 40.234375 -1.421875 26.90625 -1.421875 
Q 22.3125 -1.421875 17.546875 -0.640625 
Q 12.796875 0.140625 7.71875 1.703125 
L 7.71875 11.625 
Q 12.109375 9.234375 16.796875 8.0625 
Q 21.484375 6.890625 26.703125 6.890625 
Q 35.15625 6.890625 40.078125 11.328125 
Q 45.015625 15.765625 45.015625 23.390625 
Q 45.015625 31 40.078125 35.4375 
Q 35.15625 39.890625 26.703125 39.890625 
Q 22.75 39.890625 18.8125 39.015625 
Q 14.890625 38.140625 10.796875 36.28125 
z
" id="BitstreamVeraSans-Roman-53"/>
      </defs>
      <g style="fill:#555555;" transform="translate(24.97649 108.628659)scale(0.1 -0.1)">
       <use xlink:href="#BitstreamVeraSans-Roman-53"/>
       <use x="63.623047" xlink:href="#BitstreamVeraSans-Roman-48"/>
       <use x="127.246094" xlink:href="#BitstreamVeraSans-Roman-48"/>
       <use x="190.869141" xlink:href="#BitstreamVeraSans-Roman-48"/>
       <use x="254.492188" xlink:href="#BitstreamVeraSans-Roman-48"/>
      </g>
     </g>
    </g>
    <g id="ytick_3">
     <g id="line2d_15">
      <path clip-path="url(#p530f95a159)" d="M 63.78899 78.152051 
L 347.81557 78.152051 
" style="fill:none;stroke:#ffffff;stroke-linecap:square;stroke-width:0.8;"/>
     </g>
     <g id="line2d_16">
      <g>
       <use style="fill:#555555;stroke:#555555;stroke-width:0.8;" x="63.78899" xlink:href="#maea4c9a0df" y="78.152051"/>
      </g>
     </g>
     <g id="text_3">
      <!-- 100000 -->
      <defs>
       <path d="M 12.40625 8.296875 
L 28.515625 8.296875 
L 28.515625 63.921875 
L 10.984375 60.40625 
L 10.984375 69.390625 
L 28.421875 72.90625 
L 38.28125 72.90625 
L 38.28125 8.296875 
L 54.390625 8.296875 
L 54.390625 0 
L 12.40625 0 
z
" id="BitstreamVeraSans-Roman-49"/>
      </defs>
      <g style="fill:#555555;" transform="translate(18.61399 81.95127)scale(0.1 -0.1)">
       <use xlink:href="#BitstreamVeraSans-Roman-49"/>
       <use x="63.623047" xlink:href="#BitstreamVeraSans-Roman-48"/>
       <use x="127.246094" xlink:href="#BitstreamVeraSans-Roman-48"/>
       <use x="190.869141" xlink:href="#BitstreamVeraSans-Roman-48"/>
       <use x="254.492188" xlink:href="#BitstreamVeraSans-Roman-48"/>
       <use x="318.115234" xlink:href="#BitstreamVeraSans-Roman-48"/>
      </g>
     </g>
    </g>
    <g id="ytick_4">
     <g id="line2d_17">
      <path clip-path="url(#p530f95a159)" d="M 63.78899 51.474662 
L 347.81557 51.474662 
" style="fill:none;stroke:#ffffff;stroke-linecap:square;stroke-width:0.8;"/>
     </g>
     <g id="line2d_18">
      <g>
       <use style="fill:#555555;stroke:#555555;stroke-width:0.8;" x="63.78899" xlink:href="#maea4c9a0df" y="51.474662"/>
      </g>
     </g>
     <g id="text_4">
      <!-- 150000 -->
      <g style="fill:#555555;" transform="translate(18.61399 55.273881)scale(0.1 -0.1)">
       <use xlink:href="#BitstreamVeraSans-Roman-49"/>
       <use x="63.623047" xlink:href="#BitstreamVeraSans-Roman-53"/>
       <use x="127.246094" xlink:href="#BitstreamVeraSans-Roman-48"/>
       <use x="190.869141" xlink:href="#BitstreamVeraSans-Roman-48"/>
       <use x="254.492188" xlink:href="#BitstreamVeraSans-Roman-48"/>
       <use x="318.115234" xlink:href="#BitstreamVeraSans-Roman-48"/>
      </g>
     </g>
    </g>
    <g id="ytick_5">
     <g id="line2d_19">
      <path clip-path="url(#p530f95a159)" d="M 63.78899 24.797273 
L 347.81557 24.797273 
" style="fill:none;stroke:#ffffff;stroke-linecap:square;stroke-width:0.8;"/>
     </g>
     <g id="line2d_20">
      <g>
       <use style="fill:#555555;stroke:#555555;stroke-width:0.8;" x="63.78899" xlink:href="#maea4c9a0df" y="24.797273"/>
      </g>
     </g>
     <g id="text_5">
      <!-- 200000 -->
      <defs>
       <path d="M 19.1875 8.296875 
L 53.609375 8.296875 
L 53.609375 0 
L 7.328125 0 
L 7.328125 8.296875 
Q 12.9375 14.109375 22.625 23.890625 
Q 32.328125 33.6875 34.8125 36.53125 
Q 39.546875 41.84375 41.421875 45.53125 
Q 43.3125 49.21875 43.3125 52.78125 
Q 43.3125 58.59375 39.234375 62.25 
Q 35.15625 65.921875 28.609375 65.921875 
Q 23.96875 65.921875 18.8125 64.3125 
Q 13.671875 62.703125 7.8125 59.421875 
L 7.8125 69.390625 
Q 13.765625 71.78125 18.9375 73 
Q 24.125 74.21875 28.421875 74.21875 
Q 39.75 74.21875 46.484375 68.546875 
Q 53.21875 62.890625 53.21875 53.421875 
Q 53.21875 48.921875 51.53125 44.890625 
Q 49.859375 40.875 45.40625 35.40625 
Q 44.1875 33.984375 37.640625 27.21875 
Q 31.109375 20.453125 19.1875 8.296875 
z
" id="BitstreamVeraSans-Roman-50"/>
      </defs>
      <g style="fill:#555555;" transform="translate(18.61399 28.596492)scale(0.1 -0.1)">
       <use xlink:href="#BitstreamVeraSans-Roman-50"/>
       <use x="63.623047" xlink:href="#BitstreamVeraSans-Roman-48"/>
       <use x="127.246094" xlink:href="#BitstreamVeraSans-Roman-48"/>
       <use x="190.869141" xlink:href="#BitstreamVeraSans-Roman-48"/>
       <use x="254.492188" xlink:href="#BitstreamVeraSans-Roman-48"/>
       <use x="318.115234" xlink:href="#BitstreamVeraSans-Roman-48"/>
      </g>
     </g>
    </g>
    <g id="text_6">
     <!-- Cumlative Tests -->
     <defs>
      <path d="M 64.40625 67.28125 
L 64.40625 56.890625 
Q 59.421875 61.53125 53.78125 63.8125 
Q 48.140625 66.109375 41.796875 66.109375 
Q 29.296875 66.109375 22.65625 58.46875 
Q 16.015625 50.828125 16.015625 36.375 
Q 16.015625 21.96875 22.65625 14.328125 
Q 29.296875 6.6875 41.796875 6.6875 
Q 48.140625 6.6875 53.78125 8.984375 
Q 59.421875 11.28125 64.40625 15.921875 
L 64.40625 5.609375 
Q 59.234375 2.09375 53.4375 0.328125 
Q 47.65625 -1.421875 41.21875 -1.421875 
Q 24.65625 -1.421875 15.125 8.703125 
Q 5.609375 18.84375 5.609375 36.375 
Q 5.609375 53.953125 15.125 64.078125 
Q 24.65625 74.21875 41.21875 74.21875 
Q 47.75 74.21875 53.53125 72.484375 
Q 59.328125 70.75 64.40625 67.28125 
z
" id="BitstreamVeraSans-Roman-67"/>
      <path d="M 8.5 21.578125 
L 8.5 54.6875 
L 17.484375 54.6875 
L 17.484375 21.921875 
Q 17.484375 14.15625 20.5 10.265625 
Q 23.53125 6.390625 29.59375 6.390625 
Q 36.859375 6.390625 41.078125 11.03125 
Q 45.3125 15.671875 45.3125 23.6875 
L 45.3125 54.6875 
L 54.296875 54.6875 
L 54.296875 0 
L 45.3125 0 
L 45.3125 8.40625 
Q 42.046875 3.421875 37.71875 1 
Q 33.40625 -1.421875 27.6875 -1.421875 
Q 18.265625 -1.421875 13.375 4.4375 
Q 8.5 10.296875 8.5 21.578125 
z
" id="BitstreamVeraSans-Roman-117"/>
      <path d="M 52 44.1875 
Q 55.375 50.25 60.0625 53.125 
Q 64.75 56 71.09375 56 
Q 79.640625 56 84.28125 50.015625 
Q 88.921875 44.046875 88.921875 33.015625 
L 88.921875 0 
L 79.890625 0 
L 79.890625 32.71875 
Q 79.890625 40.578125 77.09375 44.375 
Q 74.3125 48.1875 68.609375 48.1875 
Q 61.625 48.1875 57.5625 43.546875 
Q 53.515625 38.921875 53.515625 30.90625 
L 53.515625 0 
L 44.484375 0 
L 44.484375 32.71875 
Q 44.484375 40.625 41.703125 44.40625 
Q 38.921875 48.1875 33.109375 48.1875 
Q 26.21875 48.1875 22.15625 43.53125 
Q 18.109375 38.875 18.109375 30.90625 
L 18.109375 0 
L 9.078125 0 
L 9.078125 54.6875 
L 18.109375 54.6875 
L 18.109375 46.1875 
Q 21.1875 51.21875 25.484375 53.609375 
Q 29.78125 56 35.6875 56 
Q 41.65625 56 45.828125 52.96875 
Q 50 49.953125 52 44.1875 
z
" id="BitstreamVeraSans-Roman-109"/>
      <path d="M 9.421875 75.984375 
L 18.40625 75.984375 
L 18.40625 0 
L 9.421875 0 
z
" id="BitstreamVeraSans-Roman-108"/>
      <path d="M 34.28125 27.484375 
Q 23.390625 27.484375 19.1875 25 
Q 14.984375 22.515625 14.984375 16.5 
Q 14.984375 11.71875 18.140625 8.90625 
Q 21.296875 6.109375 26.703125 6.109375 
Q 34.1875 6.109375 38.703125 11.40625 
Q 43.21875 16.703125 43.21875 25.484375 
L 43.21875 27.484375 
z
M 52.203125 31.203125 
L 52.203125 0 
L 43.21875 0 
L 43.21875 8.296875 
Q 40.140625 3.328125 35.546875 0.953125 
Q 30.953125 -1.421875 24.3125 -1.421875 
Q 15.921875 -1.421875 10.953125 3.296875 
Q 6 8.015625 6 15.921875 
Q 6 25.140625 12.171875 29.828125 
Q 18.359375 34.515625 30.609375 34.515625 
L 43.21875 34.515625 
L 43.21875 35.40625 
Q 43.21875 41.609375 39.140625 45 
Q 35.0625 48.390625 27.6875 48.390625 
Q 23 48.390625 18.546875 47.265625 
Q 14.109375 46.140625 10.015625 43.890625 
L 10.015625 52.203125 
Q 14.9375 54.109375 19.578125 55.046875 
Q 24.21875 56 28.609375 56 
Q 40.484375 56 46.34375 49.84375 
Q 52.203125 43.703125 52.203125 31.203125 
z
" id="BitstreamVeraSans-Roman-97"/>
      <path d="M 18.3125 70.21875 
L 18.3125 54.6875 
L 36.8125 54.6875 
L 36.8125 47.703125 
L 18.3125 47.703125 
L 18.3125 18.015625 
Q 18.3125 11.328125 20.140625 9.421875 
Q 21.96875 7.515625 27.59375 7.515625 
L 36.8125 7.515625 
L 36.8125 0 
L 27.59375 0 
Q 17.1875 0 13.234375 3.875 
Q 9.28125 7.765625 9.28125 18.015625 
L 9.28125 47.703125 
L 2.6875 47.703125 
L 2.6875 54.6875 
L 9.28125 54.6875 
L 9.28125 70.21875 
z
" id="BitstreamVeraSans-Roman-116"/>
      <path d="M 9.421875 54.6875 
L 18.40625 54.6875 
L 18.40625 0 
L 9.421875 0 
z
M 9.421875 75.984375 
L 18.40625 75.984375 
L 18.40625 64.59375 
L 9.421875 64.59375 
z
" id="BitstreamVeraSans-Roman-105"/>
      <path d="M 2.984375 54.6875 
L 12.5 54.6875 
L 29.59375 8.796875 
L 46.6875 54.6875 
L 56.203125 54.6875 
L 35.6875 0 
L 23.484375 0 
z
" id="BitstreamVeraSans-Roman-118"/>
      <path d="M 56.203125 29.59375 
L 56.203125 25.203125 
L 14.890625 25.203125 
Q 15.484375 15.921875 20.484375 11.0625 
Q 25.484375 6.203125 34.421875 6.203125 
Q 39.59375 6.203125 44.453125 7.46875 
Q 49.3125 8.734375 54.109375 11.28125 
L 54.109375 2.78125 
Q 49.265625 0.734375 44.1875 -0.34375 
Q 39.109375 -1.421875 33.890625 -1.421875 
Q 20.796875 -1.421875 13.15625 6.1875 
Q 5.515625 13.8125 5.515625 26.8125 
Q 5.515625 40.234375 12.765625 48.109375 
Q 20.015625 56 32.328125 56 
Q 43.359375 56 49.78125 48.890625 
Q 56.203125 41.796875 56.203125 29.59375 
z
M 47.21875 32.234375 
Q 47.125 39.59375 43.09375 43.984375 
Q 39.0625 48.390625 32.421875 48.390625 
Q 24.90625 48.390625 20.390625 44.140625 
Q 15.875 39.890625 15.1875 32.171875 
z
" id="BitstreamVeraSans-Roman-101"/>
      <path id="BitstreamVeraSans-Roman-32"/>
      <path d="M -0.296875 72.90625 
L 61.375 72.90625 
L 61.375 64.59375 
L 35.5 64.59375 
L 35.5 0 
L 25.59375 0 
L 25.59375 64.59375 
L -0.296875 64.59375 
z
" id="BitstreamVeraSans-Roman-84"/>
      <path d="M 44.28125 53.078125 
L 44.28125 44.578125 
Q 40.484375 46.53125 36.375 47.5 
Q 32.28125 48.484375 27.875 48.484375 
Q 21.1875 48.484375 17.84375 46.4375 
Q 14.5 44.390625 14.5 40.28125 
Q 14.5 37.15625 16.890625 35.375 
Q 19.28125 33.59375 26.515625 31.984375 
L 29.59375 31.296875 
Q 39.15625 29.25 43.1875 25.515625 
Q 47.21875 21.78125 47.21875 15.09375 
Q 47.21875 7.46875 41.1875 3.015625 
Q 35.15625 -1.421875 24.609375 -1.421875 
Q 20.21875 -1.421875 15.453125 -0.5625 
Q 10.6875 0.296875 5.421875 2 
L 5.421875 11.28125 
Q 10.40625 8.6875 15.234375 7.390625 
Q 20.0625 6.109375 24.8125 6.109375 
Q 31.15625 6.109375 34.5625 8.28125 
Q 37.984375 10.453125 37.984375 14.40625 
Q 37.984375 18.0625 35.515625 20.015625 
Q 33.0625 21.96875 24.703125 23.78125 
L 21.578125 24.515625 
Q 13.234375 26.265625 9.515625 29.90625 
Q 5.8125 33.546875 5.8125 39.890625 
Q 5.8125 47.609375 11.28125 51.796875 
Q 16.75 56 26.8125 56 
Q 31.78125 56 36.171875 55.265625 
Q 40.578125 54.546875 44.28125 53.078125 
z
" id="BitstreamVeraSans-Roman-115"/>
     </defs>
     <g style="fill:#555555;" transform="translate(12.118365 124.107556)rotate(-90)scale(0.12 -0.12)">
      <use xlink:href="#BitstreamVeraSans-Roman-67"/>
      <use x="69.824219" xlink:href="#BitstreamVeraSans-Roman-117"/>
      <use x="133.203125" xlink:href="#BitstreamVeraSans-Roman-109"/>
      <use x="230.615234" xlink:href="#BitstreamVeraSans-Roman-108"/>
      <use x="258.398438" xlink:href="#BitstreamVeraSans-Roman-97"/>
      <use x="319.677734" xlink:href="#BitstreamVeraSans-Roman-116"/>
      <use x="358.886719" xlink:href="#BitstreamVeraSans-Roman-105"/>
      <use x="386.669922" xlink:href="#BitstreamVeraSans-Roman-118"/>
      <use x="445.849609" xlink:href="#BitstreamVeraSans-Roman-101"/>
      <use x="507.373047" xlink:href="#BitstreamVeraSans-Roman-32"/>
      <use x="539.160156" xlink:href="#BitstreamVeraSans-Roman-84"/>
      <use x="583.244141" xlink:href="#BitstreamVeraSans-Roman-101"/>
      <use x="644.767578" xlink:href="#BitstreamVeraSans-Roman-115"/>
      <use x="696.867188" xlink:href="#BitstreamVeraSans-Roman-116"/>
      <use x="736.076172" xlink:href="#BitstreamVeraSans-Roman-115"/>
     </g>
    </g>
   </g>
   <g id="line2d_21">
    <path clip-path="url(#p530f95a159)" d="M 76.699289 128.131606 
L 119.188881 121.949921 
L 128.994171 117.271241 
L 132.262602 114.572556 
L 135.531032 113.066884 
L 142.067892 111.956038 
L 151.873183 109.082883 
L 155.141613 108.442092 
L 158.410043 107.68979 
L 161.678473 106.981772 
L 164.946903 106.242274 
L 168.215333 105.625493 
L 174.752194 104.642698 
L 178.020624 104.070201 
L 181.289054 103.542523 
L 184.557484 102.959355 
L 191.094344 101.552389 
L 200.899635 100.227057 
L 207.436495 99.928804 
L 210.704925 99.137552 
L 220.510216 97.159691 
L 223.778646 96.53544 
L 227.047076 95.771399 
L 230.315506 94.930528 
L 233.583936 93.403514 
L 243.389227 89.535293 
L 246.657657 88.349216 
L 249.926087 86.995605 
L 253.194517 85.605713 
L 256.462947 84.197147 
L 266.268238 80.010398 
L 269.536668 79.11297 
L 272.805098 78.102431 
L 276.073528 76.706136 
L 279.341958 75.487513 
L 289.147249 72.017319 
L 292.415679 71.219131 
L 295.684109 70.276352 
L 298.952539 69.207656 
L 302.220969 68.369452 
L 315.29469 64.78988 
L 318.56312 64.153891 
L 321.83155 63.326892 
L 325.09998 62.176563 
L 334.905271 59.376505 
" style="fill:none;stroke:#348abd;stroke-linecap:square;stroke-width:1.5;"/>
   </g>
   <g id="line2d_22">
    <defs>
     <path d="M -0 2.828427 
L 1.697056 0 
L 0 -2.828427 
L -1.697056 -0 
z
" id="m7ae86de316" style="stroke:#348abd;stroke-linejoin:miter;"/>
    </defs>
    <g clip-path="url(#p530f95a159)">
     <use style="fill:#348abd;stroke:#348abd;stroke-linejoin:miter;" x="76.699289" xlink:href="#m7ae86de316" y="128.131606"/>
     <use style="fill:#348abd;stroke:#348abd;stroke-linejoin:miter;" x="119.188881" xlink:href="#m7ae86de316" y="121.949921"/>
     <use style="fill:#348abd;stroke:#348abd;stroke-linejoin:miter;" x="128.994171" xlink:href="#m7ae86de316" y="117.271241"/>
     <use style="fill:#348abd;stroke:#348abd;stroke-linejoin:miter;" x="132.262602" xlink:href="#m7ae86de316" y="114.572556"/>
     <use style="fill:#348abd;stroke:#348abd;stroke-linejoin:miter;" x="135.531032" xlink:href="#m7ae86de316" y="113.066884"/>
     <use style="fill:#348abd;stroke:#348abd;stroke-linejoin:miter;" x="142.067892" xlink:href="#m7ae86de316" y="111.956038"/>
     <use style="fill:#348abd;stroke:#348abd;stroke-linejoin:miter;" x="151.873183" xlink:href="#m7ae86de316" y="109.082883"/>
     <use style="fill:#348abd;stroke:#348abd;stroke-linejoin:miter;" x="155.141613" xlink:href="#m7ae86de316" y="108.442092"/>
     <use style="fill:#348abd;stroke:#348abd;stroke-linejoin:miter;" x="158.410043" xlink:href="#m7ae86de316" y="107.68979"/>
     <use style="fill:#348abd;stroke:#348abd;stroke-linejoin:miter;" x="161.678473" xlink:href="#m7ae86de316" y="106.981772"/>
     <use style="fill:#348abd;stroke:#348abd;stroke-linejoin:miter;" x="164.946903" xlink:href="#m7ae86de316" y="106.242274"/>
     <use style="fill:#348abd;stroke:#348abd;stroke-linejoin:miter;" x="168.215333" xlink:href="#m7ae86de316" y="105.625493"/>
     <use style="fill:#348abd;stroke:#348abd;stroke-linejoin:miter;" x="174.752194" xlink:href="#m7ae86de316" y="104.642698"/>
     <use style="fill:#348abd;stroke:#348abd;stroke-linejoin:miter;" x="178.020624" xlink:href="#m7ae86de316" y="104.070201"/>
     <use style="fill:#348abd;stroke:#348abd;stroke-linejoin:miter;" x="181.289054" xlink:href="#m7ae86de316" y="103.542523"/>
     <use style="fill:#348abd;stroke:#348abd;stroke-linejoin:miter;" x="184.557484" xlink:href="#m7ae86de316" y="102.959355"/>
     <use style="fill:#348abd;stroke:#348abd;stroke-linejoin:miter;" x="191.094344" xlink:href="#m7ae86de316" y="101.552389"/>
     <use style="fill:#348abd;stroke:#348abd;stroke-linejoin:miter;" x="200.899635" xlink:href="#m7ae86de316" y="100.227057"/>
     <use style="fill:#348abd;stroke:#348abd;stroke-linejoin:miter;" x="207.436495" xlink:href="#m7ae86de316" y="99.928804"/>
     <use style="fill:#348abd;stroke:#348abd;stroke-linejoin:miter;" x="210.704925" xlink:href="#m7ae86de316" y="99.137552"/>
     <use style="fill:#348abd;stroke:#348abd;stroke-linejoin:miter;" x="220.510216" xlink:href="#m7ae86de316" y="97.159691"/>
     <use style="fill:#348abd;stroke:#348abd;stroke-linejoin:miter;" x="223.778646" xlink:href="#m7ae86de316" y="96.53544"/>
     <use style="fill:#348abd;stroke:#348abd;stroke-linejoin:miter;" x="227.047076" xlink:href="#m7ae86de316" y="95.771399"/>
     <use style="fill:#348abd;stroke:#348abd;stroke-linejoin:miter;" x="230.315506" xlink:href="#m7ae86de316" y="94.930528"/>
     <use style="fill:#348abd;stroke:#348abd;stroke-linejoin:miter;" x="233.583936" xlink:href="#m7ae86de316" y="93.403514"/>
     <use style="fill:#348abd;stroke:#348abd;stroke-linejoin:miter;" x="243.389227" xlink:href="#m7ae86de316" y="89.535293"/>
     <use style="fill:#348abd;stroke:#348abd;stroke-linejoin:miter;" x="246.657657" xlink:href="#m7ae86de316" y="88.349216"/>
     <use style="fill:#348abd;stroke:#348abd;stroke-linejoin:miter;" x="249.926087" xlink:href="#m7ae86de316" y="86.995605"/>
     <use style="fill:#348abd;stroke:#348abd;stroke-linejoin:miter;" x="253.194517" xlink:href="#m7ae86de316" y="85.605713"/>
     <use style="fill:#348abd;stroke:#348abd;stroke-linejoin:miter;" x="256.462947" xlink:href="#m7ae86de316" y="84.197147"/>
     <use style="fill:#348abd;stroke:#348abd;stroke-linejoin:miter;" x="266.268238" xlink:href="#m7ae86de316" y="80.010398"/>
     <use style="fill:#348abd;stroke:#348abd;stroke-linejoin:miter;" x="269.536668" xlink:href="#m7ae86de316" y="79.11297"/>
     <use style="fill:#348abd;stroke:#348abd;stroke-linejoin:miter;" x="272.805098" xlink:href="#m7ae86de316" y="78.102431"/>
     <use style="fill:#348abd;stroke:#348abd;stroke-linejoin:miter;" x="276.073528" xlink:href="#m7ae86de316" y="76.706136"/>
     <use style="fill:#348abd;stroke:#348abd;stroke-linejoin:miter;" x="279.341958" xlink:href="#m7ae86de316" y="75.487513"/>
     <use style="fill:#348abd;stroke:#348abd;stroke-linejoin:miter;" x="289.147249" xlink:href="#m7ae86de316" y="72.017319"/>
     <use style="fill:#348abd;stroke:#348abd;stroke-linejoin:miter;" x="292.415679" xlink:href="#m7ae86de316" y="71.219131"/>
     <use style="fill:#348abd;stroke:#348abd;stroke-linejoin:miter;" x="295.684109" xlink:href="#m7ae86de316" y="70.276352"/>
     <use style="fill:#348abd;stroke:#348abd;stroke-linejoin:miter;" x="298.952539" xlink:href="#m7ae86de316" y="69.207656"/>
     <use style="fill:#348abd;stroke:#348abd;stroke-linejoin:miter;" x="302.220969" xlink:href="#m7ae86de316" y="68.369452"/>
     <use style="fill:#348abd;stroke:#348abd;stroke-linejoin:miter;" x="315.29469" xlink:href="#m7ae86de316" y="64.78988"/>
     <use style="fill:#348abd;stroke:#348abd;stroke-linejoin:miter;" x="318.56312" xlink:href="#m7ae86de316" y="64.153891"/>
     <use style="fill:#348abd;stroke:#348abd;stroke-linejoin:miter;" x="321.83155" xlink:href="#m7ae86de316" y="63.326892"/>
     <use style="fill:#348abd;stroke:#348abd;stroke-linejoin:miter;" x="325.09998" xlink:href="#m7ae86de316" y="62.176563"/>
     <use style="fill:#348abd;stroke:#348abd;stroke-linejoin:miter;" x="334.905271" xlink:href="#m7ae86de316" y="59.376505"/>
    </g>
   </g>
   <g id="patch_3">
    <path d="M 63.78899 131.506829 
L 63.78899 22.129534 
" style="fill:none;stroke:#ffffff;stroke-linecap:square;stroke-linejoin:miter;"/>
   </g>
   <g id="patch_4">
    <path d="M 347.81557 131.506829 
L 347.81557 22.129534 
" style="fill:none;stroke:#ffffff;stroke-linecap:square;stroke-linejoin:miter;"/>
   </g>
   <g id="patch_5">
    <path d="M 63.78899 131.506829 
L 347.81557 131.506829 
" style="fill:none;stroke:#ffffff;stroke-linecap:square;stroke-linejoin:miter;"/>
   </g>
   <g id="patch_6">
    <path d="M 63.78899 22.129534 
L 347.81557 22.129534 
" style="fill:none;stroke:#ffffff;stroke-linecap:square;stroke-linejoin:miter;"/>
   </g>
   <g id="text_7">
    <!-- BRITISH COLUMBIA COVID-19 TESTS -->
    <defs>
     <path d="M 39.984375 44.671875 
Q 45.015625 44.671875 47.84375 47.203125 
Q 50.6875 49.75 50.6875 54.203125 
Q 50.6875 57.078125 48.703125 58.59375 
Q 46.734375 60.109375 43.015625 60.109375 
L 32.515625 60.109375 
L 29.5 44.671875 
z
M 34.421875 12.796875 
Q 40.875 12.796875 44.328125 15.875 
Q 47.796875 18.953125 47.796875 24.703125 
Q 47.796875 28.375 45.40625 30.125 
Q 43.015625 31.890625 38.09375 31.890625 
L 27 31.890625 
L 23.296875 12.796875 
z
M 56.6875 39.015625 
Q 61.46875 37.640625 64.078125 34 
Q 66.703125 30.375 66.703125 25 
Q 66.703125 13.234375 57.9375 6.609375 
Q 49.171875 0 33.296875 0 
L 2.09375 0 
L 16.3125 72.90625 
L 44.484375 72.90625 
Q 57.46875 72.90625 63.6875 69.09375 
Q 69.921875 65.28125 69.921875 57.328125 
Q 69.921875 50.640625 66.25 45.578125 
Q 62.59375 40.53125 56.6875 39.015625 
z
" id="BitstreamVeraSans-BoldOblique-66"/>
     <path d="M 36.71875 40.578125 
Q 43.109375 40.578125 46.40625 43.546875 
Q 49.703125 46.53125 49.703125 52.296875 
Q 49.703125 55.90625 47.4375 57.59375 
Q 45.171875 59.28125 40.28125 59.28125 
L 32.515625 59.28125 
L 28.8125 40.578125 
z
M 26.3125 27.59375 
L 20.90625 0 
L 2.09375 0 
L 16.3125 72.90625 
L 44.09375 72.90625 
Q 56.109375 72.90625 62.296875 68.40625 
Q 68.5 63.921875 68.5 55.171875 
Q 68.5 46.34375 63.609375 40.625 
Q 58.734375 34.90625 50.390625 34.078125 
Q 54.203125 33.296875 56.734375 30.1875 
Q 59.28125 27.09375 61.1875 20.703125 
L 67.390625 0 
L 48.6875 0 
L 43.21875 18.109375 
Q 41.546875 23.53125 39.171875 25.5625 
Q 36.8125 27.59375 32.328125 27.59375 
z
" id="BitstreamVeraSans-BoldOblique-82"/>
     <path d="M 16.3125 72.90625 
L 35.109375 72.90625 
L 20.90625 0 
L 2.09375 0 
z
" id="BitstreamVeraSans-BoldOblique-73"/>
     <path d="M 7.625 72.90625 
L 74.8125 72.90625 
L 72.015625 58.6875 
L 47.796875 58.6875 
L 36.375 0 
L 17.578125 0 
L 29 58.6875 
L 4.78125 58.6875 
z
" id="BitstreamVeraSans-BoldOblique-84"/>
     <path d="M 66.5 70.609375 
L 63.484375 55.171875 
Q 57.953125 57.90625 52.578125 59.25 
Q 47.21875 60.59375 42.09375 60.59375 
Q 35.0625 60.59375 31.125 58.390625 
Q 27.203125 56.203125 27.203125 52.296875 
Q 27.203125 49.8125 28.9375 48.40625 
Q 30.671875 47.015625 36.078125 45.703125 
L 43.796875 43.796875 
Q 53.46875 41.359375 57.984375 36.734375 
Q 62.5 32.125 62.5 24.8125 
Q 62.5 12.9375 53.484375 5.75 
Q 44.484375 -1.421875 29.296875 -1.421875 
Q 22.21875 -1.421875 15.203125 -0.09375 
Q 8.203125 1.21875 1.515625 3.8125 
L 4.5 19.671875 
Q 10.984375 15.921875 17.109375 14.0625 
Q 23.25 12.203125 29.203125 12.203125 
Q 35.640625 12.203125 39.671875 14.84375 
Q 43.703125 17.484375 43.703125 21.578125 
Q 43.703125 24.265625 41.890625 25.75 
Q 40.09375 27.25 33.984375 28.8125 
L 26.3125 30.71875 
Q 17.828125 32.8125 13.671875 37.34375 
Q 9.515625 41.890625 9.515625 49.125 
Q 9.515625 60.5 18.234375 67.359375 
Q 26.953125 74.21875 41.703125 74.21875 
Q 47.609375 74.21875 53.828125 73.3125 
Q 60.0625 72.40625 66.5 70.609375 
z
" id="BitstreamVeraSans-BoldOblique-83"/>
     <path d="M 16.3125 72.90625 
L 35.109375 72.90625 
L 29.6875 45.125 
L 57.421875 45.125 
L 62.796875 72.90625 
L 81.59375 72.90625 
L 67.390625 0 
L 48.578125 0 
L 54.59375 30.90625 
L 26.90625 30.90625 
L 20.90625 0 
L 2.09375 0 
z
" id="BitstreamVeraSans-BoldOblique-72"/>
     <path id="BitstreamVeraSans-BoldOblique-32"/>
     <path d="M 60.59375 3.421875 
Q 53.859375 1.03125 47.65625 -0.1875 
Q 41.453125 -1.421875 35.890625 -1.421875 
Q 21.1875 -1.421875 12.390625 6.640625 
Q 3.609375 14.703125 3.609375 27.984375 
Q 3.609375 36.71875 6.390625 44.453125 
Q 9.1875 52.203125 14.59375 58.59375 
Q 21 66.109375 30 70.15625 
Q 39.015625 74.21875 49.421875 74.21875 
Q 55.078125 74.21875 60.78125 72.875 
Q 66.5 71.53125 72.40625 68.796875 
L 69.390625 53.71875 
Q 64.703125 57.28125 59.953125 58.9375 
Q 55.21875 60.59375 49.8125 60.59375 
Q 38.53125 60.59375 30.90625 51.90625 
Q 23.296875 43.21875 23.296875 30.171875 
Q 23.296875 21.78125 27.984375 16.984375 
Q 32.671875 12.203125 40.921875 12.203125 
Q 45.84375 12.203125 51.390625 13.984375 
Q 56.9375 15.765625 63.8125 19.578125 
z
" id="BitstreamVeraSans-BoldOblique-67"/>
     <path d="M 61.53125 43.015625 
Q 61.53125 51.609375 57.640625 56.09375 
Q 53.765625 60.59375 46.390625 60.59375 
Q 36.625 60.59375 30 51.828125 
Q 23.390625 43.0625 23.390625 29.890625 
Q 23.390625 21.484375 27.25 16.84375 
Q 31.109375 12.203125 37.984375 12.203125 
Q 43.609375 12.203125 47.96875 14.5625 
Q 52.34375 16.9375 55.421875 21.578125 
Q 58.34375 26.03125 59.9375 31.59375 
Q 61.53125 37.15625 61.53125 43.015625 
z
M 49.125 74.21875 
Q 63.671875 74.21875 72.53125 66.140625 
Q 81.390625 58.0625 81.390625 45.015625 
Q 81.390625 36.140625 78.6875 28.21875 
Q 75.984375 20.3125 70.796875 14.015625 
Q 64.453125 6.25 55.78125 2.40625 
Q 47.125 -1.421875 35.796875 -1.421875 
Q 21.296875 -1.421875 12.453125 6.640625 
Q 3.609375 14.703125 3.609375 27.78125 
Q 3.609375 36.71875 6.296875 44.625 
Q 8.984375 52.546875 14.203125 58.890625 
Q 20.453125 66.609375 29.125 70.40625 
Q 37.796875 74.21875 49.125 74.21875 
z
" id="BitstreamVeraSans-BoldOblique-79"/>
     <path d="M 16.3125 72.90625 
L 35.109375 72.90625 
L 23.6875 14.203125 
L 56.59375 14.203125 
L 53.90625 0 
L 2.09375 0 
z
" id="BitstreamVeraSans-BoldOblique-76"/>
     <path d="M 16.3125 72.90625 
L 35.109375 72.90625 
L 26.609375 29.25 
Q 26.125 26.90625 25.90625 25.09375 
Q 25.6875 23.296875 25.6875 21.921875 
Q 25.6875 17.140625 28.25 14.765625 
Q 30.8125 12.40625 35.890625 12.40625 
Q 42.71875 12.40625 46.375 16.234375 
Q 50.046875 20.0625 51.8125 29.203125 
L 60.296875 72.90625 
L 79.109375 72.90625 
L 70.609375 29.203125 
Q 67.4375 13.09375 58.5625 5.828125 
Q 49.703125 -1.421875 33.203125 -1.421875 
Q 20.265625 -1.421875 13.515625 4.125 
Q 6.78125 9.671875 6.78125 20.21875 
Q 6.78125 21.96875 7.03125 24.140625 
Q 7.28125 26.3125 7.8125 29.203125 
z
" id="BitstreamVeraSans-BoldOblique-85"/>
     <path d="M 16.3125 72.90625 
L 39.40625 72.90625 
L 48.78125 34.1875 
L 73.390625 72.90625 
L 97.40625 72.90625 
L 83.203125 0 
L 65.375 0 
L 75.78125 53.8125 
L 50.484375 14.015625 
L 40.375 14.015625 
L 30.328125 53.8125 
L 19.921875 0 
L 2.09375 0 
z
" id="BitstreamVeraSans-BoldOblique-77"/>
     <path d="M 49.125 13.28125 
L 20.015625 13.28125 
L 12.796875 0 
L -6.5 0 
L 34.71875 72.90625 
L 56.203125 72.90625 
L 69.09375 0 
L 51.21875 0 
z
M 27.09375 26.515625 
L 46.6875 26.515625 
L 42.28125 54.59375 
z
" id="BitstreamVeraSans-BoldOblique-65"/>
     <path d="M 7.625 72.90625 
L 25.484375 72.90625 
L 34.421875 18.40625 
L 64.59375 72.90625 
L 83.984375 72.90625 
L 42.828125 0 
L 20.40625 0 
z
" id="BitstreamVeraSans-BoldOblique-86"/>
     <path d="M 32.421875 58.6875 
L 23.6875 14.203125 
L 30.421875 14.203125 
Q 43.5625 14.203125 51.21875 21.578125 
Q 58.890625 28.953125 58.890625 41.5 
Q 58.890625 50 53.875 54.34375 
Q 48.875 58.6875 39.015625 58.6875 
z
M 16.3125 72.90625 
L 36.078125 72.90625 
Q 50.25 72.90625 57.328125 71.21875 
Q 64.40625 69.53125 69.09375 65.578125 
Q 73.828125 61.625 76.21875 55.984375 
Q 78.609375 50.34375 78.609375 43.21875 
Q 78.609375 33.296875 74.53125 24.53125 
Q 70.453125 15.765625 63.09375 9.8125 
Q 56.640625 4.5 48.109375 2.25 
Q 39.59375 0 21.921875 0 
L 2.09375 0 
z
" id="BitstreamVeraSans-BoldOblique-68"/>
     <path d="M 5.328125 35.890625 
L 35.984375 35.890625 
L 33.203125 21.6875 
L 2.484375 21.6875 
z
" id="BitstreamVeraSans-BoldOblique-45"/>
     <path d="M 6.890625 12.984375 
L 23.484375 12.984375 
L 32.625 60.109375 
L 14.890625 56.59375 
L 17.390625 69.390625 
L 35.015625 72.90625 
L 52.875 72.90625 
L 41.3125 12.984375 
L 57.8125 12.984375 
L 55.328125 0 
L 4.296875 0 
z
" id="BitstreamVeraSans-BoldOblique-49"/>
     <path d="M 4.109375 1.609375 
L 6.6875 15.09375 
Q 10.9375 12.890625 14.890625 11.84375 
Q 18.84375 10.796875 22.796875 10.796875 
Q 31.890625 10.796875 37.5 15.671875 
Q 43.109375 20.5625 44.28125 29.390625 
Q 40.53125 26.90625 36.515625 25.703125 
Q 32.515625 24.515625 27.984375 24.515625 
Q 19.046875 24.515625 13.328125 29.828125 
Q 7.625 35.15625 7.625 43.40625 
Q 7.625 56.890625 16.4375 65.5 
Q 25.25 74.125 39.109375 74.125 
Q 51.5625 74.125 58.375 67.0625 
Q 65.1875 60.015625 65.1875 47.125 
Q 65.1875 37.203125 62.15625 28.140625 
Q 59.125 19.09375 53.609375 12.5 
Q 47.75 5.515625 39.8125 2 
Q 31.890625 -1.515625 21.921875 -1.515625 
Q 17.28125 -1.515625 12.890625 -0.734375 
Q 8.5 0.046875 4.109375 1.609375 
z
M 33.890625 36.625 
Q 39.453125 36.625 43.015625 41.203125 
Q 46.578125 45.796875 46.578125 52.984375 
Q 46.578125 57.421875 44.453125 59.8125 
Q 42.328125 62.203125 38.375 62.203125 
Q 32.859375 62.203125 29.21875 57.65625 
Q 25.59375 53.125 25.59375 46.296875 
Q 25.59375 41.609375 27.734375 39.109375 
Q 29.890625 36.625 33.890625 36.625 
z
" id="BitstreamVeraSans-BoldOblique-57"/>
     <path d="M 16.3125 72.90625 
L 67 72.90625 
L 64.203125 58.6875 
L 32.328125 58.6875 
L 29.6875 45.125 
L 59.71875 45.125 
L 56.890625 30.90625 
L 26.90625 30.90625 
L 23.6875 14.203125 
L 56.59375 14.203125 
L 53.90625 0 
L 2.09375 0 
z
" id="BitstreamVeraSans-BoldOblique-69"/>
    </defs>
    <g transform="translate(63.78899 13.941988)scale(0.144 -0.144)">
     <use xlink:href="#BitstreamVeraSans-BoldOblique-66"/>
     <use x="76.220703" xlink:href="#BitstreamVeraSans-BoldOblique-82"/>
     <use x="153.222656" xlink:href="#BitstreamVeraSans-BoldOblique-73"/>
     <use x="190.429688" xlink:href="#BitstreamVeraSans-BoldOblique-84"/>
     <use x="258.642578" xlink:href="#BitstreamVeraSans-BoldOblique-73"/>
     <use x="295.849609" xlink:href="#BitstreamVeraSans-BoldOblique-83"/>
     <use x="367.871094" xlink:href="#BitstreamVeraSans-BoldOblique-72"/>
     <use x="451.5625" xlink:href="#BitstreamVeraSans-BoldOblique-32"/>
     <use x="486.376953" xlink:href="#BitstreamVeraSans-BoldOblique-67"/>
     <use x="559.765625" xlink:href="#BitstreamVeraSans-BoldOblique-79"/>
     <use x="644.775391" xlink:href="#BitstreamVeraSans-BoldOblique-76"/>
     <use x="702.996094" xlink:href="#BitstreamVeraSans-BoldOblique-85"/>
     <use x="784.197266" xlink:href="#BitstreamVeraSans-BoldOblique-77"/>
     <use x="883.708984" xlink:href="#BitstreamVeraSans-BoldOblique-66"/>
     <use x="959.929688" xlink:href="#BitstreamVeraSans-BoldOblique-73"/>
     <use x="997.136719" xlink:href="#BitstreamVeraSans-BoldOblique-65"/>
     <use x="1074.529297" xlink:href="#BitstreamVeraSans-BoldOblique-32"/>
     <use x="1109.34375" xlink:href="#BitstreamVeraSans-BoldOblique-67"/>
     <use x="1182.732422" xlink:href="#BitstreamVeraSans-BoldOblique-79"/>
     <use x="1264.117188" xlink:href="#BitstreamVeraSans-BoldOblique-86"/>
     <use x="1341.509766" xlink:href="#BitstreamVeraSans-BoldOblique-73"/>
     <use x="1378.716797" xlink:href="#BitstreamVeraSans-BoldOblique-68"/>
     <use x="1463.599609" xlink:href="#BitstreamVeraSans-BoldOblique-45"/>
     <use x="1505.103516" xlink:href="#BitstreamVeraSans-BoldOblique-49"/>
     <use x="1574.683594" xlink:href="#BitstreamVeraSans-BoldOblique-57"/>
     <use x="1644.263672" xlink:href="#BitstreamVeraSans-BoldOblique-32"/>
     <use x="1679.078125" xlink:href="#BitstreamVeraSans-BoldOblique-84"/>
     <use x="1747.291016" xlink:href="#BitstreamVeraSans-BoldOblique-69"/>
     <use x="1815.601562" xlink:href="#BitstreamVeraSans-BoldOblique-83"/>
     <use x="1887.623047" xlink:href="#BitstreamVeraSans-BoldOblique-84"/>
     <use x="1955.835938" xlink:href="#BitstreamVeraSans-BoldOblique-83"/>
    </g>
   </g>
  </g>
  <g id="axes_2">
   <g id="patch_7">
    <path d="M 63.78899 255.64351 
L 347.81557 255.64351 
L 347.81557 146.266215 
L 63.78899 146.266215 
z
" style="fill:#e5e5e5;"/>
   </g>
   <g id="matplotlib.axis_3">
    <g id="xtick_6">
     <g id="line2d_23">
      <path clip-path="url(#p66113ded68)" d="M 102.84673 255.64351 
L 102.84673 146.266215 
" style="fill:none;stroke:#ffffff;stroke-linecap:square;stroke-width:0.8;"/>
     </g>
     <g id="line2d_24">
      <g>
       <use style="fill:#555555;stroke:#555555;stroke-width:0.8;" x="102.84673" xlink:href="#m38946a50b4" y="255.64351"/>
      </g>
     </g>
     <g id="text_8">
      <!-- 15 -->
      <g style="fill:#555555;" transform="translate(96.48423 270.241947)scale(0.1 -0.1)">
       <use xlink:href="#BitstreamVeraSans-Roman-49"/>
       <use x="63.623047" xlink:href="#BitstreamVeraSans-Roman-53"/>
      </g>
     </g>
    </g>
    <g id="xtick_7">
     <g id="line2d_25">
      <path clip-path="url(#p66113ded68)" d="M 158.410043 255.64351 
L 158.410043 146.266215 
" style="fill:none;stroke:#ffffff;stroke-linecap:square;stroke-width:0.8;"/>
     </g>
     <g id="line2d_26">
      <g>
       <use style="fill:#555555;stroke:#555555;stroke-width:0.8;" x="158.410043" xlink:href="#m38946a50b4" y="255.64351"/>
      </g>
     </g>
     <g id="text_9">
      <!-- Apr -->
      <defs>
       <path d="M 34.1875 63.1875 
L 20.796875 26.90625 
L 47.609375 26.90625 
z
M 28.609375 72.90625 
L 39.796875 72.90625 
L 67.578125 0 
L 57.328125 0 
L 50.6875 18.703125 
L 17.828125 18.703125 
L 11.1875 0 
L 0.78125 0 
z
" id="BitstreamVeraSans-Roman-65"/>
       <path d="M 18.109375 8.203125 
L 18.109375 -20.796875 
L 9.078125 -20.796875 
L 9.078125 54.6875 
L 18.109375 54.6875 
L 18.109375 46.390625 
Q 20.953125 51.265625 25.265625 53.625 
Q 29.59375 56 35.59375 56 
Q 45.5625 56 51.78125 48.09375 
Q 58.015625 40.1875 58.015625 27.296875 
Q 58.015625 14.40625 51.78125 6.484375 
Q 45.5625 -1.421875 35.59375 -1.421875 
Q 29.59375 -1.421875 25.265625 0.953125 
Q 20.953125 3.328125 18.109375 8.203125 
z
M 48.6875 27.296875 
Q 48.6875 37.203125 44.609375 42.84375 
Q 40.53125 48.484375 33.40625 48.484375 
Q 26.265625 48.484375 22.1875 42.84375 
Q 18.109375 37.203125 18.109375 27.296875 
Q 18.109375 17.390625 22.1875 11.75 
Q 26.265625 6.109375 33.40625 6.109375 
Q 40.53125 6.109375 44.609375 11.75 
Q 48.6875 17.390625 48.6875 27.296875 
z
" id="BitstreamVeraSans-Roman-112"/>
       <path d="M 41.109375 46.296875 
Q 39.59375 47.171875 37.8125 47.578125 
Q 36.03125 48 33.890625 48 
Q 26.265625 48 22.1875 43.046875 
Q 18.109375 38.09375 18.109375 28.8125 
L 18.109375 0 
L 9.078125 0 
L 9.078125 54.6875 
L 18.109375 54.6875 
L 18.109375 46.1875 
Q 20.953125 51.171875 25.484375 53.578125 
Q 30.03125 56 36.53125 56 
Q 37.453125 56 38.578125 55.875 
Q 39.703125 55.765625 41.0625 55.515625 
z
" id="BitstreamVeraSans-Roman-114"/>
      </defs>
      <g style="fill:#555555;" transform="translate(149.760043 270.241947)scale(0.1 -0.1)">
       <use xlink:href="#BitstreamVeraSans-Roman-65"/>
       <use x="68.408203" xlink:href="#BitstreamVeraSans-Roman-112"/>
       <use x="131.884766" xlink:href="#BitstreamVeraSans-Roman-114"/>
      </g>
     </g>
    </g>
    <g id="xtick_8">
     <g id="line2d_27">
      <path clip-path="url(#p66113ded68)" d="M 204.168065 255.64351 
L 204.168065 146.266215 
" style="fill:none;stroke:#ffffff;stroke-linecap:square;stroke-width:0.8;"/>
     </g>
     <g id="line2d_28">
      <g>
       <use style="fill:#555555;stroke:#555555;stroke-width:0.8;" x="204.168065" xlink:href="#m38946a50b4" y="255.64351"/>
      </g>
     </g>
     <g id="text_10">
      <!-- 15 -->
      <g style="fill:#555555;" transform="translate(197.805565 270.241947)scale(0.1 -0.1)">
       <use xlink:href="#BitstreamVeraSans-Roman-49"/>
       <use x="63.623047" xlink:href="#BitstreamVeraSans-Roman-53"/>
      </g>
     </g>
    </g>
    <g id="xtick_9">
     <g id="line2d_29">
      <path clip-path="url(#p66113ded68)" d="M 256.462947 255.64351 
L 256.462947 146.266215 
" style="fill:none;stroke:#ffffff;stroke-linecap:square;stroke-width:0.8;"/>
     </g>
     <g id="line2d_30">
      <g>
       <use style="fill:#555555;stroke:#555555;stroke-width:0.8;" x="256.462947" xlink:href="#m38946a50b4" y="255.64351"/>
      </g>
     </g>
     <g id="text_11">
      <!-- May -->
      <defs>
       <path d="M 9.8125 72.90625 
L 24.515625 72.90625 
L 43.109375 23.296875 
L 61.8125 72.90625 
L 76.515625 72.90625 
L 76.515625 0 
L 66.890625 0 
L 66.890625 64.015625 
L 48.09375 14.015625 
L 38.1875 14.015625 
L 19.390625 64.015625 
L 19.390625 0 
L 9.8125 0 
z
" id="BitstreamVeraSans-Roman-77"/>
       <path d="M 32.171875 -5.078125 
Q 28.375 -14.84375 24.75 -17.8125 
Q 21.140625 -20.796875 15.09375 -20.796875 
L 7.90625 -20.796875 
L 7.90625 -13.28125 
L 13.1875 -13.28125 
Q 16.890625 -13.28125 18.9375 -11.515625 
Q 21 -9.765625 23.484375 -3.21875 
L 25.09375 0.875 
L 2.984375 54.6875 
L 12.5 54.6875 
L 29.59375 11.921875 
L 46.6875 54.6875 
L 56.203125 54.6875 
z
" id="BitstreamVeraSans-Roman-121"/>
      </defs>
      <g style="fill:#555555;" transform="translate(246.125447 270.241947)scale(0.1 -0.1)">
       <use xlink:href="#BitstreamVeraSans-Roman-77"/>
       <use x="86.279297" xlink:href="#BitstreamVeraSans-Roman-97"/>
       <use x="147.558594" xlink:href="#BitstreamVeraSans-Roman-121"/>
      </g>
     </g>
    </g>
    <g id="xtick_10">
     <g id="line2d_31">
      <path clip-path="url(#p66113ded68)" d="M 302.220969 255.64351 
L 302.220969 146.266215 
" style="fill:none;stroke:#ffffff;stroke-linecap:square;stroke-width:0.8;"/>
     </g>
     <g id="line2d_32">
      <g>
       <use style="fill:#555555;stroke:#555555;stroke-width:0.8;" x="302.220969" xlink:href="#m38946a50b4" y="255.64351"/>
      </g>
     </g>
     <g id="text_12">
      <!-- 15 -->
      <g style="fill:#555555;" transform="translate(295.858469 270.241947)scale(0.1 -0.1)">
       <use xlink:href="#BitstreamVeraSans-Roman-49"/>
       <use x="63.623047" xlink:href="#BitstreamVeraSans-Roman-53"/>
      </g>
     </g>
    </g>
    <g id="text_13">
     <!-- 2020-May -->
     <defs>
      <path d="M 4.890625 31.390625 
L 31.203125 31.390625 
L 31.203125 23.390625 
L 4.890625 23.390625 
z
" id="BitstreamVeraSans-Roman-45"/>
     </defs>
     <g style="fill:#555555;" transform="translate(298.082757 282.920073)scale(0.1 -0.1)">
      <use xlink:href="#BitstreamVeraSans-Roman-50"/>
      <use x="63.623047" xlink:href="#BitstreamVeraSans-Roman-48"/>
      <use x="127.246094" xlink:href="#BitstreamVeraSans-Roman-50"/>
      <use x="190.869141" xlink:href="#BitstreamVeraSans-Roman-48"/>
      <use x="254.492188" xlink:href="#BitstreamVeraSans-Roman-45"/>
      <use x="290.576172" xlink:href="#BitstreamVeraSans-Roman-77"/>
      <use x="376.855469" xlink:href="#BitstreamVeraSans-Roman-97"/>
      <use x="438.134766" xlink:href="#BitstreamVeraSans-Roman-121"/>
     </g>
    </g>
   </g>
   <g id="matplotlib.axis_4">
    <g id="ytick_6">
     <g id="line2d_33">
      <path clip-path="url(#p66113ded68)" d="M 63.78899 255.64351 
L 347.81557 255.64351 
" style="fill:none;stroke:#ffffff;stroke-linecap:square;stroke-width:0.8;"/>
     </g>
     <g id="line2d_34">
      <g>
       <use style="fill:#555555;stroke:#555555;stroke-width:0.8;" x="63.78899" xlink:href="#maea4c9a0df" y="255.64351"/>
      </g>
     </g>
     <g id="text_14">
      <!-- 0 -->
      <g style="fill:#555555;" transform="translate(50.42649 259.442729)scale(0.1 -0.1)">
       <use xlink:href="#BitstreamVeraSans-Roman-48"/>
      </g>
     </g>
    </g>
    <g id="ytick_7">
     <g id="line2d_35">
      <path clip-path="url(#p66113ded68)" d="M 63.78899 215.869948 
L 347.81557 215.869948 
" style="fill:none;stroke:#ffffff;stroke-linecap:square;stroke-width:0.8;"/>
     </g>
     <g id="line2d_36">
      <g>
       <use style="fill:#555555;stroke:#555555;stroke-width:0.8;" x="63.78899" xlink:href="#maea4c9a0df" y="215.869948"/>
      </g>
     </g>
     <g id="text_15">
      <!-- 2000 -->
      <g style="fill:#555555;" transform="translate(31.33899 219.669167)scale(0.1 -0.1)">
       <use xlink:href="#BitstreamVeraSans-Roman-50"/>
       <use x="63.623047" xlink:href="#BitstreamVeraSans-Roman-48"/>
       <use x="127.246094" xlink:href="#BitstreamVeraSans-Roman-48"/>
       <use x="190.869141" xlink:href="#BitstreamVeraSans-Roman-48"/>
      </g>
     </g>
    </g>
    <g id="ytick_8">
     <g id="line2d_37">
      <path clip-path="url(#p66113ded68)" d="M 63.78899 176.096386 
L 347.81557 176.096386 
" style="fill:none;stroke:#ffffff;stroke-linecap:square;stroke-width:0.8;"/>
     </g>
     <g id="line2d_38">
      <g>
       <use style="fill:#555555;stroke:#555555;stroke-width:0.8;" x="63.78899" xlink:href="#maea4c9a0df" y="176.096386"/>
      </g>
     </g>
     <g id="text_16">
      <!-- 4000 -->
      <defs>
       <path d="M 37.796875 64.3125 
L 12.890625 25.390625 
L 37.796875 25.390625 
z
M 35.203125 72.90625 
L 47.609375 72.90625 
L 47.609375 25.390625 
L 58.015625 25.390625 
L 58.015625 17.1875 
L 47.609375 17.1875 
L 47.609375 0 
L 37.796875 0 
L 37.796875 17.1875 
L 4.890625 17.1875 
L 4.890625 26.703125 
z
" id="BitstreamVeraSans-Roman-52"/>
      </defs>
      <g style="fill:#555555;" transform="translate(31.33899 179.895605)scale(0.1 -0.1)">
       <use xlink:href="#BitstreamVeraSans-Roman-52"/>
       <use x="63.623047" xlink:href="#BitstreamVeraSans-Roman-48"/>
       <use x="127.246094" xlink:href="#BitstreamVeraSans-Roman-48"/>
       <use x="190.869141" xlink:href="#BitstreamVeraSans-Roman-48"/>
      </g>
     </g>
    </g>
    <g id="text_17">
     <!-- Tests / day -->
     <defs>
      <path d="M 25.390625 72.90625 
L 33.6875 72.90625 
L 8.296875 -9.28125 
L 0 -9.28125 
z
" id="BitstreamVeraSans-Roman-47"/>
      <path d="M 45.40625 46.390625 
L 45.40625 75.984375 
L 54.390625 75.984375 
L 54.390625 0 
L 45.40625 0 
L 45.40625 8.203125 
Q 42.578125 3.328125 38.25 0.953125 
Q 33.9375 -1.421875 27.875 -1.421875 
Q 17.96875 -1.421875 11.734375 6.484375 
Q 5.515625 14.40625 5.515625 27.296875 
Q 5.515625 40.1875 11.734375 48.09375 
Q 17.96875 56 27.875 56 
Q 33.9375 56 38.25 53.625 
Q 42.578125 51.265625 45.40625 46.390625 
z
M 14.796875 27.296875 
Q 14.796875 17.390625 18.875 11.75 
Q 22.953125 6.109375 30.078125 6.109375 
Q 37.203125 6.109375 41.296875 11.75 
Q 45.40625 17.390625 45.40625 27.296875 
Q 45.40625 37.203125 41.296875 42.84375 
Q 37.203125 48.484375 30.078125 48.484375 
Q 22.953125 48.484375 18.875 42.84375 
Q 14.796875 37.203125 14.796875 27.296875 
z
" id="BitstreamVeraSans-Roman-100"/>
     </defs>
     <g style="fill:#555555;" transform="translate(24.843365 232.76705)rotate(-90)scale(0.12 -0.12)">
      <use xlink:href="#BitstreamVeraSans-Roman-84"/>
      <use x="44.083984" xlink:href="#BitstreamVeraSans-Roman-101"/>
      <use x="105.607422" xlink:href="#BitstreamVeraSans-Roman-115"/>
      <use x="157.707031" xlink:href="#BitstreamVeraSans-Roman-116"/>
      <use x="196.916016" xlink:href="#BitstreamVeraSans-Roman-115"/>
      <use x="249.015625" xlink:href="#BitstreamVeraSans-Roman-32"/>
      <use x="280.802734" xlink:href="#BitstreamVeraSans-Roman-47"/>
      <use x="314.494141" xlink:href="#BitstreamVeraSans-Roman-32"/>
      <use x="346.28125" xlink:href="#BitstreamVeraSans-Roman-100"/>
      <use x="409.757812" xlink:href="#BitstreamVeraSans-Roman-97"/>
      <use x="471.037109" xlink:href="#BitstreamVeraSans-Roman-121"/>
     </g>
    </g>
   </g>
   <g id="line2d_39">
    <path clip-path="url(#p66113ded68)" d="M 97.944085 237.919799 
L 124.091526 197.514449 
L 130.628387 155.056172 
L 133.896817 199.523014 
L 138.799462 234.941371 
L 146.970537 219.946738 
L 153.507398 231.759486 
L 156.775828 227.603149 
L 160.044258 229.253752 
L 163.312688 228.080432 
L 166.581118 232.654391 
L 171.483763 237.327785 
L 176.386409 234.304994 
L 179.654839 235.975484 
L 182.923269 233.907258 
L 187.825914 229.422789 
L 195.99699 239.177255 
L 204.168065 250.085155 
L 209.07071 226.151414 
L 215.60757 231.070078 
L 222.144431 232.375976 
L 225.412861 227.16564 
L 228.681291 224.301943 
L 231.949721 198.727543 
L 238.486581 207.58379 
L 245.023442 211.435196 
L 248.291872 205.190747 
L 251.560302 203.838446 
L 254.828732 203.142408 
L 261.365593 203.62632 
L 267.902453 222.193945 
L 271.170883 217.977947 
L 274.439313 203.599804 
L 277.707743 210.222102 
L 284.244604 212.528969 
L 290.781464 225.892886 
L 294.049894 220.503568 
L 297.318324 215.810288 
L 300.586754 224.401377 
L 308.75783 222.288407 
L 316.928905 231.938467 
L 320.197335 224.819 
L 323.465765 212.76761 
L 330.002626 220.854901 
" style="fill:none;stroke:#348abd;stroke-linecap:square;stroke-width:1.5;"/>
   </g>
   <g id="line2d_40">
    <g clip-path="url(#p66113ded68)">
     <use style="fill:#348abd;stroke:#348abd;stroke-linejoin:miter;" x="97.944085" xlink:href="#m7ae86de316" y="237.919799"/>
     <use style="fill:#348abd;stroke:#348abd;stroke-linejoin:miter;" x="124.091526" xlink:href="#m7ae86de316" y="197.514449"/>
     <use style="fill:#348abd;stroke:#348abd;stroke-linejoin:miter;" x="130.628387" xlink:href="#m7ae86de316" y="155.056172"/>
     <use style="fill:#348abd;stroke:#348abd;stroke-linejoin:miter;" x="133.896817" xlink:href="#m7ae86de316" y="199.523014"/>
     <use style="fill:#348abd;stroke:#348abd;stroke-linejoin:miter;" x="138.799462" xlink:href="#m7ae86de316" y="234.941371"/>
     <use style="fill:#348abd;stroke:#348abd;stroke-linejoin:miter;" x="146.970537" xlink:href="#m7ae86de316" y="219.946738"/>
     <use style="fill:#348abd;stroke:#348abd;stroke-linejoin:miter;" x="153.507398" xlink:href="#m7ae86de316" y="231.759486"/>
     <use style="fill:#348abd;stroke:#348abd;stroke-linejoin:miter;" x="156.775828" xlink:href="#m7ae86de316" y="227.603149"/>
     <use style="fill:#348abd;stroke:#348abd;stroke-linejoin:miter;" x="160.044258" xlink:href="#m7ae86de316" y="229.253752"/>
     <use style="fill:#348abd;stroke:#348abd;stroke-linejoin:miter;" x="163.312688" xlink:href="#m7ae86de316" y="228.080432"/>
     <use style="fill:#348abd;stroke:#348abd;stroke-linejoin:miter;" x="166.581118" xlink:href="#m7ae86de316" y="232.654391"/>
     <use style="fill:#348abd;stroke:#348abd;stroke-linejoin:miter;" x="171.483763" xlink:href="#m7ae86de316" y="237.327785"/>
     <use style="fill:#348abd;stroke:#348abd;stroke-linejoin:miter;" x="176.386409" xlink:href="#m7ae86de316" y="234.304994"/>
     <use style="fill:#348abd;stroke:#348abd;stroke-linejoin:miter;" x="179.654839" xlink:href="#m7ae86de316" y="235.975484"/>
     <use style="fill:#348abd;stroke:#348abd;stroke-linejoin:miter;" x="182.923269" xlink:href="#m7ae86de316" y="233.907258"/>
     <use style="fill:#348abd;stroke:#348abd;stroke-linejoin:miter;" x="187.825914" xlink:href="#m7ae86de316" y="229.422789"/>
     <use style="fill:#348abd;stroke:#348abd;stroke-linejoin:miter;" x="195.99699" xlink:href="#m7ae86de316" y="239.177255"/>
     <use style="fill:#348abd;stroke:#348abd;stroke-linejoin:miter;" x="204.168065" xlink:href="#m7ae86de316" y="250.085155"/>
     <use style="fill:#348abd;stroke:#348abd;stroke-linejoin:miter;" x="209.07071" xlink:href="#m7ae86de316" y="226.151414"/>
     <use style="fill:#348abd;stroke:#348abd;stroke-linejoin:miter;" x="215.60757" xlink:href="#m7ae86de316" y="231.070078"/>
     <use style="fill:#348abd;stroke:#348abd;stroke-linejoin:miter;" x="222.144431" xlink:href="#m7ae86de316" y="232.375976"/>
     <use style="fill:#348abd;stroke:#348abd;stroke-linejoin:miter;" x="225.412861" xlink:href="#m7ae86de316" y="227.16564"/>
     <use style="fill:#348abd;stroke:#348abd;stroke-linejoin:miter;" x="228.681291" xlink:href="#m7ae86de316" y="224.301943"/>
     <use style="fill:#348abd;stroke:#348abd;stroke-linejoin:miter;" x="231.949721" xlink:href="#m7ae86de316" y="198.727543"/>
     <use style="fill:#348abd;stroke:#348abd;stroke-linejoin:miter;" x="238.486581" xlink:href="#m7ae86de316" y="207.58379"/>
     <use style="fill:#348abd;stroke:#348abd;stroke-linejoin:miter;" x="245.023442" xlink:href="#m7ae86de316" y="211.435196"/>
     <use style="fill:#348abd;stroke:#348abd;stroke-linejoin:miter;" x="248.291872" xlink:href="#m7ae86de316" y="205.190747"/>
     <use style="fill:#348abd;stroke:#348abd;stroke-linejoin:miter;" x="251.560302" xlink:href="#m7ae86de316" y="203.838446"/>
     <use style="fill:#348abd;stroke:#348abd;stroke-linejoin:miter;" x="254.828732" xlink:href="#m7ae86de316" y="203.142408"/>
     <use style="fill:#348abd;stroke:#348abd;stroke-linejoin:miter;" x="261.365593" xlink:href="#m7ae86de316" y="203.62632"/>
     <use style="fill:#348abd;stroke:#348abd;stroke-linejoin:miter;" x="267.902453" xlink:href="#m7ae86de316" y="222.193945"/>
     <use style="fill:#348abd;stroke:#348abd;stroke-linejoin:miter;" x="271.170883" xlink:href="#m7ae86de316" y="217.977947"/>
     <use style="fill:#348abd;stroke:#348abd;stroke-linejoin:miter;" x="274.439313" xlink:href="#m7ae86de316" y="203.599804"/>
     <use style="fill:#348abd;stroke:#348abd;stroke-linejoin:miter;" x="277.707743" xlink:href="#m7ae86de316" y="210.222102"/>
     <use style="fill:#348abd;stroke:#348abd;stroke-linejoin:miter;" x="284.244604" xlink:href="#m7ae86de316" y="212.528969"/>
     <use style="fill:#348abd;stroke:#348abd;stroke-linejoin:miter;" x="290.781464" xlink:href="#m7ae86de316" y="225.892886"/>
     <use style="fill:#348abd;stroke:#348abd;stroke-linejoin:miter;" x="294.049894" xlink:href="#m7ae86de316" y="220.503568"/>
     <use style="fill:#348abd;stroke:#348abd;stroke-linejoin:miter;" x="297.318324" xlink:href="#m7ae86de316" y="215.810288"/>
     <use style="fill:#348abd;stroke:#348abd;stroke-linejoin:miter;" x="300.586754" xlink:href="#m7ae86de316" y="224.401377"/>
     <use style="fill:#348abd;stroke:#348abd;stroke-linejoin:miter;" x="308.75783" xlink:href="#m7ae86de316" y="222.288407"/>
     <use style="fill:#348abd;stroke:#348abd;stroke-linejoin:miter;" x="316.928905" xlink:href="#m7ae86de316" y="231.938467"/>
     <use style="fill:#348abd;stroke:#348abd;stroke-linejoin:miter;" x="320.197335" xlink:href="#m7ae86de316" y="224.819"/>
     <use style="fill:#348abd;stroke:#348abd;stroke-linejoin:miter;" x="323.465765" xlink:href="#m7ae86de316" y="212.76761"/>
     <use style="fill:#348abd;stroke:#348abd;stroke-linejoin:miter;" x="330.002626" xlink:href="#m7ae86de316" y="220.854901"/>
    </g>
   </g>
   <g id="patch_8">
    <path d="M 63.78899 255.64351 
L 63.78899 146.266215 
" style="fill:none;stroke:#ffffff;stroke-linecap:square;stroke-linejoin:miter;"/>
   </g>
   <g id="patch_9">
    <path d="M 347.81557 255.64351 
L 347.81557 146.266215 
" style="fill:none;stroke:#ffffff;stroke-linecap:square;stroke-linejoin:miter;"/>
   </g>
   <g id="patch_10">
    <path d="M 63.78899 255.64351 
L 347.81557 255.64351 
" style="fill:none;stroke:#ffffff;stroke-linecap:square;stroke-linejoin:miter;"/>
   </g>
   <g id="patch_11">
    <path d="M 63.78899 146.266215 
L 347.81557 146.266215 
" style="fill:none;stroke:#ffffff;stroke-linecap:square;stroke-linejoin:miter;"/>
   </g>
  </g>
 </g>
 <defs>
  <clipPath id="p530f95a159">
   <rect height="109.377295" width="284.02658" x="63.78899" y="22.129534"/>
  </clipPath>
  <clipPath id="p66113ded68">
   <rect height="109.377295" width="284.02658" x="63.78899" y="146.266215"/>
  </clipPath>
 </defs>
</svg>
