<?xml version="1.0" encoding="utf-8" standalone="no"?>
<!DOCTYPE svg PUBLIC "-//W3C//DTD SVG 1.1//EN"
  "http://www.w3.org/Graphics/SVG/1.1/DTD/svg11.dtd">
<!-- Created with matplotlib (https://matplotlib.org/) -->
<svg height="288pt" version="1.1" viewBox="0 0 360 288" width="360pt" xmlns="http://www.w3.org/2000/svg" xmlns:xlink="http://www.w3.org/1999/xlink">
 <defs>
  <style type="text/css">
*{stroke-linecap:butt;stroke-linejoin:round;}
  </style>
 </defs>
 <g id="figure_1">
  <g id="patch_1">
   <path d="M 0 288 
L 360 288 
L 360 0 
L 0 0 
z
" style="fill:#ffffff;"/>
  </g>
  <g id="axes_1">
   <g id="patch_2">
    <path d="M 57.42649 131.506829 
L 355.721842 131.506829 
L 355.721842 22.129534 
L 57.42649 22.129534 
z
" style="fill:#e5e5e5;"/>
   </g>
   <g id="matplotlib.axis_1">
    <g id="xtick_1">
     <g id="line2d_1">
      <path clip-path="url(#p029bba90bc)" d="M 87.933969 131.506829 
L 87.933969 22.129534 
" style="fill:none;stroke:#ffffff;stroke-linecap:square;stroke-width:0.8;"/>
     </g>
     <g id="line2d_2">
      <defs>
       <path d="M 0 0 
L 0 3.5 
" id="m26685f8316" style="stroke:#555555;stroke-width:0.8;"/>
      </defs>
      <g>
       <use style="fill:#555555;stroke:#555555;stroke-width:0.8;" x="87.933969" xlink:href="#m26685f8316" y="131.506829"/>
      </g>
     </g>
    </g>
    <g id="xtick_2">
     <g id="line2d_3">
      <path clip-path="url(#p029bba90bc)" d="M 121.831168 131.506829 
L 121.831168 22.129534 
" style="fill:none;stroke:#ffffff;stroke-linecap:square;stroke-width:0.8;"/>
     </g>
     <g id="line2d_4">
      <g>
       <use style="fill:#555555;stroke:#555555;stroke-width:0.8;" x="121.831168" xlink:href="#m26685f8316" y="131.506829"/>
      </g>
     </g>
    </g>
    <g id="xtick_3">
     <g id="line2d_5">
      <path clip-path="url(#p029bba90bc)" d="M 155.728367 131.506829 
L 155.728367 22.129534 
" style="fill:none;stroke:#ffffff;stroke-linecap:square;stroke-width:0.8;"/>
     </g>
     <g id="line2d_6">
      <g>
       <use style="fill:#555555;stroke:#555555;stroke-width:0.8;" x="155.728367" xlink:href="#m26685f8316" y="131.506829"/>
      </g>
     </g>
    </g>
    <g id="xtick_4">
     <g id="line2d_7">
      <path clip-path="url(#p029bba90bc)" d="M 189.625566 131.506829 
L 189.625566 22.129534 
" style="fill:none;stroke:#ffffff;stroke-linecap:square;stroke-width:0.8;"/>
     </g>
     <g id="line2d_8">
      <g>
       <use style="fill:#555555;stroke:#555555;stroke-width:0.8;" x="189.625566" xlink:href="#m26685f8316" y="131.506829"/>
      </g>
     </g>
    </g>
    <g id="xtick_5">
     <g id="line2d_9">
      <path clip-path="url(#p029bba90bc)" d="M 223.522766 131.506829 
L 223.522766 22.129534 
" style="fill:none;stroke:#ffffff;stroke-linecap:square;stroke-width:0.8;"/>
     </g>
     <g id="line2d_10">
      <g>
       <use style="fill:#555555;stroke:#555555;stroke-width:0.8;" x="223.522766" xlink:href="#m26685f8316" y="131.506829"/>
      </g>
     </g>
    </g>
    <g id="xtick_6">
     <g id="line2d_11">
      <path clip-path="url(#p029bba90bc)" d="M 257.419965 131.506829 
L 257.419965 22.129534 
" style="fill:none;stroke:#ffffff;stroke-linecap:square;stroke-width:0.8;"/>
     </g>
     <g id="line2d_12">
      <g>
       <use style="fill:#555555;stroke:#555555;stroke-width:0.8;" x="257.419965" xlink:href="#m26685f8316" y="131.506829"/>
      </g>
     </g>
    </g>
    <g id="xtick_7">
     <g id="line2d_13">
      <path clip-path="url(#p029bba90bc)" d="M 282.842864 131.506829 
L 282.842864 22.129534 
" style="fill:none;stroke:#ffffff;stroke-linecap:square;stroke-width:0.8;"/>
     </g>
     <g id="line2d_14">
      <g>
       <use style="fill:#555555;stroke:#555555;stroke-width:0.8;" x="282.842864" xlink:href="#m26685f8316" y="131.506829"/>
      </g>
     </g>
    </g>
    <g id="xtick_8">
     <g id="line2d_15">
      <path clip-path="url(#p029bba90bc)" d="M 316.740063 131.506829 
L 316.740063 22.129534 
" style="fill:none;stroke:#ffffff;stroke-linecap:square;stroke-width:0.8;"/>
     </g>
     <g id="line2d_16">
      <g>
       <use style="fill:#555555;stroke:#555555;stroke-width:0.8;" x="316.740063" xlink:href="#m26685f8316" y="131.506829"/>
      </g>
     </g>
    </g>
    <g id="xtick_9">
     <g id="line2d_17">
      <path clip-path="url(#p029bba90bc)" d="M 350.637262 131.506829 
L 350.637262 22.129534 
" style="fill:none;stroke:#ffffff;stroke-linecap:square;stroke-width:0.8;"/>
     </g>
     <g id="line2d_18">
      <g>
       <use style="fill:#555555;stroke:#555555;stroke-width:0.8;" x="350.637262" xlink:href="#m26685f8316" y="131.506829"/>
      </g>
     </g>
    </g>
   </g>
   <g id="matplotlib.axis_2">
    <g id="ytick_1">
     <g id="line2d_19">
      <path clip-path="url(#p029bba90bc)" d="M 57.42649 131.506829 
L 355.721842 131.506829 
" style="fill:none;stroke:#ffffff;stroke-linecap:square;stroke-width:0.8;"/>
     </g>
     <g id="line2d_20">
      <defs>
       <path d="M 0 0 
L -3.5 0 
" id="mf7cec78d85" style="stroke:#555555;stroke-width:0.8;"/>
      </defs>
      <g>
       <use style="fill:#555555;stroke:#555555;stroke-width:0.8;" x="57.42649" xlink:href="#mf7cec78d85" y="131.506829"/>
      </g>
     </g>
     <g id="text_1">
      <!-- 0 -->
      <defs>
       <path d="M 31.78125 66.40625 
Q 24.171875 66.40625 20.328125 58.90625 
Q 16.5 51.421875 16.5 36.375 
Q 16.5 21.390625 20.328125 13.890625 
Q 24.171875 6.390625 31.78125 6.390625 
Q 39.453125 6.390625 43.28125 13.890625 
Q 47.125 21.390625 47.125 36.375 
Q 47.125 51.421875 43.28125 58.90625 
Q 39.453125 66.40625 31.78125 66.40625 
z
M 31.78125 74.21875 
Q 44.046875 74.21875 50.515625 64.515625 
Q 56.984375 54.828125 56.984375 36.375 
Q 56.984375 17.96875 50.515625 8.265625 
Q 44.046875 -1.421875 31.78125 -1.421875 
Q 19.53125 -1.421875 13.0625 8.265625 
Q 6.59375 17.96875 6.59375 36.375 
Q 6.59375 54.828125 13.0625 64.515625 
Q 19.53125 74.21875 31.78125 74.21875 
z
" id="BitstreamVeraSans-Roman-48"/>
      </defs>
      <g style="fill:#555555;" transform="translate(44.06399 135.306048)scale(0.1 -0.1)">
       <use xlink:href="#BitstreamVeraSans-Roman-48"/>
      </g>
     </g>
    </g>
    <g id="ytick_2">
     <g id="line2d_21">
      <path clip-path="url(#p029bba90bc)" d="M 57.42649 91.733267 
L 355.721842 91.733267 
" style="fill:none;stroke:#ffffff;stroke-linecap:square;stroke-width:0.8;"/>
     </g>
     <g id="line2d_22">
      <g>
       <use style="fill:#555555;stroke:#555555;stroke-width:0.8;" x="57.42649" xlink:href="#mf7cec78d85" y="91.733267"/>
      </g>
     </g>
     <g id="text_2">
      <!-- 20000 -->
      <defs>
       <path d="M 19.1875 8.296875 
L 53.609375 8.296875 
L 53.609375 0 
L 7.328125 0 
L 7.328125 8.296875 
Q 12.9375 14.109375 22.625 23.890625 
Q 32.328125 33.6875 34.8125 36.53125 
Q 39.546875 41.84375 41.421875 45.53125 
Q 43.3125 49.21875 43.3125 52.78125 
Q 43.3125 58.59375 39.234375 62.25 
Q 35.15625 65.921875 28.609375 65.921875 
Q 23.96875 65.921875 18.8125 64.3125 
Q 13.671875 62.703125 7.8125 59.421875 
L 7.8125 69.390625 
Q 13.765625 71.78125 18.9375 73 
Q 24.125 74.21875 28.421875 74.21875 
Q 39.75 74.21875 46.484375 68.546875 
Q 53.21875 62.890625 53.21875 53.421875 
Q 53.21875 48.921875 51.53125 44.890625 
Q 49.859375 40.875 45.40625 35.40625 
Q 44.1875 33.984375 37.640625 27.21875 
Q 31.109375 20.453125 19.1875 8.296875 
z
" id="BitstreamVeraSans-Roman-50"/>
      </defs>
      <g style="fill:#555555;" transform="translate(18.61399 95.532486)scale(0.1 -0.1)">
       <use xlink:href="#BitstreamVeraSans-Roman-50"/>
       <use x="63.623047" xlink:href="#BitstreamVeraSans-Roman-48"/>
       <use x="127.246094" xlink:href="#BitstreamVeraSans-Roman-48"/>
       <use x="190.869141" xlink:href="#BitstreamVeraSans-Roman-48"/>
       <use x="254.492188" xlink:href="#BitstreamVeraSans-Roman-48"/>
      </g>
     </g>
    </g>
    <g id="ytick_3">
     <g id="line2d_23">
      <path clip-path="url(#p029bba90bc)" d="M 57.42649 51.959705 
L 355.721842 51.959705 
" style="fill:none;stroke:#ffffff;stroke-linecap:square;stroke-width:0.8;"/>
     </g>
     <g id="line2d_24">
      <g>
       <use style="fill:#555555;stroke:#555555;stroke-width:0.8;" x="57.42649" xlink:href="#mf7cec78d85" y="51.959705"/>
      </g>
     </g>
     <g id="text_3">
      <!-- 40000 -->
      <defs>
       <path d="M 37.796875 64.3125 
L 12.890625 25.390625 
L 37.796875 25.390625 
z
M 35.203125 72.90625 
L 47.609375 72.90625 
L 47.609375 25.390625 
L 58.015625 25.390625 
L 58.015625 17.1875 
L 47.609375 17.1875 
L 47.609375 0 
L 37.796875 0 
L 37.796875 17.1875 
L 4.890625 17.1875 
L 4.890625 26.703125 
z
" id="BitstreamVeraSans-Roman-52"/>
      </defs>
      <g style="fill:#555555;" transform="translate(18.61399 55.758924)scale(0.1 -0.1)">
       <use xlink:href="#BitstreamVeraSans-Roman-52"/>
       <use x="63.623047" xlink:href="#BitstreamVeraSans-Roman-48"/>
       <use x="127.246094" xlink:href="#BitstreamVeraSans-Roman-48"/>
       <use x="190.869141" xlink:href="#BitstreamVeraSans-Roman-48"/>
       <use x="254.492188" xlink:href="#BitstreamVeraSans-Roman-48"/>
      </g>
     </g>
    </g>
    <g id="text_4">
     <!-- Cumlative Tests -->
     <defs>
      <path d="M 64.40625 67.28125 
L 64.40625 56.890625 
Q 59.421875 61.53125 53.78125 63.8125 
Q 48.140625 66.109375 41.796875 66.109375 
Q 29.296875 66.109375 22.65625 58.46875 
Q 16.015625 50.828125 16.015625 36.375 
Q 16.015625 21.96875 22.65625 14.328125 
Q 29.296875 6.6875 41.796875 6.6875 
Q 48.140625 6.6875 53.78125 8.984375 
Q 59.421875 11.28125 64.40625 15.921875 
L 64.40625 5.609375 
Q 59.234375 2.09375 53.4375 0.328125 
Q 47.65625 -1.421875 41.21875 -1.421875 
Q 24.65625 -1.421875 15.125 8.703125 
Q 5.609375 18.84375 5.609375 36.375 
Q 5.609375 53.953125 15.125 64.078125 
Q 24.65625 74.21875 41.21875 74.21875 
Q 47.75 74.21875 53.53125 72.484375 
Q 59.328125 70.75 64.40625 67.28125 
z
" id="BitstreamVeraSans-Roman-67"/>
      <path d="M 8.5 21.578125 
L 8.5 54.6875 
L 17.484375 54.6875 
L 17.484375 21.921875 
Q 17.484375 14.15625 20.5 10.265625 
Q 23.53125 6.390625 29.59375 6.390625 
Q 36.859375 6.390625 41.078125 11.03125 
Q 45.3125 15.671875 45.3125 23.6875 
L 45.3125 54.6875 
L 54.296875 54.6875 
L 54.296875 0 
L 45.3125 0 
L 45.3125 8.40625 
Q 42.046875 3.421875 37.71875 1 
Q 33.40625 -1.421875 27.6875 -1.421875 
Q 18.265625 -1.421875 13.375 4.4375 
Q 8.5 10.296875 8.5 21.578125 
z
" id="BitstreamVeraSans-Roman-117"/>
      <path d="M 52 44.1875 
Q 55.375 50.25 60.0625 53.125 
Q 64.75 56 71.09375 56 
Q 79.640625 56 84.28125 50.015625 
Q 88.921875 44.046875 88.921875 33.015625 
L 88.921875 0 
L 79.890625 0 
L 79.890625 32.71875 
Q 79.890625 40.578125 77.09375 44.375 
Q 74.3125 48.1875 68.609375 48.1875 
Q 61.625 48.1875 57.5625 43.546875 
Q 53.515625 38.921875 53.515625 30.90625 
L 53.515625 0 
L 44.484375 0 
L 44.484375 32.71875 
Q 44.484375 40.625 41.703125 44.40625 
Q 38.921875 48.1875 33.109375 48.1875 
Q 26.21875 48.1875 22.15625 43.53125 
Q 18.109375 38.875 18.109375 30.90625 
L 18.109375 0 
L 9.078125 0 
L 9.078125 54.6875 
L 18.109375 54.6875 
L 18.109375 46.1875 
Q 21.1875 51.21875 25.484375 53.609375 
Q 29.78125 56 35.6875 56 
Q 41.65625 56 45.828125 52.96875 
Q 50 49.953125 52 44.1875 
z
" id="BitstreamVeraSans-Roman-109"/>
      <path d="M 9.421875 75.984375 
L 18.40625 75.984375 
L 18.40625 0 
L 9.421875 0 
z
" id="BitstreamVeraSans-Roman-108"/>
      <path d="M 34.28125 27.484375 
Q 23.390625 27.484375 19.1875 25 
Q 14.984375 22.515625 14.984375 16.5 
Q 14.984375 11.71875 18.140625 8.90625 
Q 21.296875 6.109375 26.703125 6.109375 
Q 34.1875 6.109375 38.703125 11.40625 
Q 43.21875 16.703125 43.21875 25.484375 
L 43.21875 27.484375 
z
M 52.203125 31.203125 
L 52.203125 0 
L 43.21875 0 
L 43.21875 8.296875 
Q 40.140625 3.328125 35.546875 0.953125 
Q 30.953125 -1.421875 24.3125 -1.421875 
Q 15.921875 -1.421875 10.953125 3.296875 
Q 6 8.015625 6 15.921875 
Q 6 25.140625 12.171875 29.828125 
Q 18.359375 34.515625 30.609375 34.515625 
L 43.21875 34.515625 
L 43.21875 35.40625 
Q 43.21875 41.609375 39.140625 45 
Q 35.0625 48.390625 27.6875 48.390625 
Q 23 48.390625 18.546875 47.265625 
Q 14.109375 46.140625 10.015625 43.890625 
L 10.015625 52.203125 
Q 14.9375 54.109375 19.578125 55.046875 
Q 24.21875 56 28.609375 56 
Q 40.484375 56 46.34375 49.84375 
Q 52.203125 43.703125 52.203125 31.203125 
z
" id="BitstreamVeraSans-Roman-97"/>
      <path d="M 18.3125 70.21875 
L 18.3125 54.6875 
L 36.8125 54.6875 
L 36.8125 47.703125 
L 18.3125 47.703125 
L 18.3125 18.015625 
Q 18.3125 11.328125 20.140625 9.421875 
Q 21.96875 7.515625 27.59375 7.515625 
L 36.8125 7.515625 
L 36.8125 0 
L 27.59375 0 
Q 17.1875 0 13.234375 3.875 
Q 9.28125 7.765625 9.28125 18.015625 
L 9.28125 47.703125 
L 2.6875 47.703125 
L 2.6875 54.6875 
L 9.28125 54.6875 
L 9.28125 70.21875 
z
" id="BitstreamVeraSans-Roman-116"/>
      <path d="M 9.421875 54.6875 
L 18.40625 54.6875 
L 18.40625 0 
L 9.421875 0 
z
M 9.421875 75.984375 
L 18.40625 75.984375 
L 18.40625 64.59375 
L 9.421875 64.59375 
z
" id="BitstreamVeraSans-Roman-105"/>
      <path d="M 2.984375 54.6875 
L 12.5 54.6875 
L 29.59375 8.796875 
L 46.6875 54.6875 
L 56.203125 54.6875 
L 35.6875 0 
L 23.484375 0 
z
" id="BitstreamVeraSans-Roman-118"/>
      <path d="M 56.203125 29.59375 
L 56.203125 25.203125 
L 14.890625 25.203125 
Q 15.484375 15.921875 20.484375 11.0625 
Q 25.484375 6.203125 34.421875 6.203125 
Q 39.59375 6.203125 44.453125 7.46875 
Q 49.3125 8.734375 54.109375 11.28125 
L 54.109375 2.78125 
Q 49.265625 0.734375 44.1875 -0.34375 
Q 39.109375 -1.421875 33.890625 -1.421875 
Q 20.796875 -1.421875 13.15625 6.1875 
Q 5.515625 13.8125 5.515625 26.8125 
Q 5.515625 40.234375 12.765625 48.109375 
Q 20.015625 56 32.328125 56 
Q 43.359375 56 49.78125 48.890625 
Q 56.203125 41.796875 56.203125 29.59375 
z
M 47.21875 32.234375 
Q 47.125 39.59375 43.09375 43.984375 
Q 39.0625 48.390625 32.421875 48.390625 
Q 24.90625 48.390625 20.390625 44.140625 
Q 15.875 39.890625 15.1875 32.171875 
z
" id="BitstreamVeraSans-Roman-101"/>
      <path id="BitstreamVeraSans-Roman-32"/>
      <path d="M -0.296875 72.90625 
L 61.375 72.90625 
L 61.375 64.59375 
L 35.5 64.59375 
L 35.5 0 
L 25.59375 0 
L 25.59375 64.59375 
L -0.296875 64.59375 
z
" id="BitstreamVeraSans-Roman-84"/>
      <path d="M 44.28125 53.078125 
L 44.28125 44.578125 
Q 40.484375 46.53125 36.375 47.5 
Q 32.28125 48.484375 27.875 48.484375 
Q 21.1875 48.484375 17.84375 46.4375 
Q 14.5 44.390625 14.5 40.28125 
Q 14.5 37.15625 16.890625 35.375 
Q 19.28125 33.59375 26.515625 31.984375 
L 29.59375 31.296875 
Q 39.15625 29.25 43.1875 25.515625 
Q 47.21875 21.78125 47.21875 15.09375 
Q 47.21875 7.46875 41.1875 3.015625 
Q 35.15625 -1.421875 24.609375 -1.421875 
Q 20.21875 -1.421875 15.453125 -0.5625 
Q 10.6875 0.296875 5.421875 2 
L 5.421875 11.28125 
Q 10.40625 8.6875 15.234375 7.390625 
Q 20.0625 6.109375 24.8125 6.109375 
Q 31.15625 6.109375 34.5625 8.28125 
Q 37.984375 10.453125 37.984375 14.40625 
Q 37.984375 18.0625 35.515625 20.015625 
Q 33.0625 21.96875 24.703125 23.78125 
L 21.578125 24.515625 
Q 13.234375 26.265625 9.515625 29.90625 
Q 5.8125 33.546875 5.8125 39.890625 
Q 5.8125 47.609375 11.28125 51.796875 
Q 16.75 56 26.8125 56 
Q 31.78125 56 36.171875 55.265625 
Q 40.578125 54.546875 44.28125 53.078125 
z
" id="BitstreamVeraSans-Roman-115"/>
     </defs>
     <g style="fill:#555555;" transform="translate(12.118365 124.107556)rotate(-90)scale(0.12 -0.12)">
      <use xlink:href="#BitstreamVeraSans-Roman-67"/>
      <use x="69.824219" xlink:href="#BitstreamVeraSans-Roman-117"/>
      <use x="133.203125" xlink:href="#BitstreamVeraSans-Roman-109"/>
      <use x="230.615234" xlink:href="#BitstreamVeraSans-Roman-108"/>
      <use x="258.398438" xlink:href="#BitstreamVeraSans-Roman-97"/>
      <use x="319.677734" xlink:href="#BitstreamVeraSans-Roman-116"/>
      <use x="358.886719" xlink:href="#BitstreamVeraSans-Roman-105"/>
      <use x="386.669922" xlink:href="#BitstreamVeraSans-Roman-118"/>
      <use x="445.849609" xlink:href="#BitstreamVeraSans-Roman-101"/>
      <use x="507.373047" xlink:href="#BitstreamVeraSans-Roman-32"/>
      <use x="539.160156" xlink:href="#BitstreamVeraSans-Roman-84"/>
      <use x="583.244141" xlink:href="#BitstreamVeraSans-Roman-101"/>
      <use x="644.767578" xlink:href="#BitstreamVeraSans-Roman-115"/>
      <use x="696.867188" xlink:href="#BitstreamVeraSans-Roman-116"/>
      <use x="736.076172" xlink:href="#BitstreamVeraSans-Roman-115"/>
     </g>
    </g>
   </g>
   <g id="line2d_25">
    <path clip-path="url(#p029bba90bc)" d="M 70.98537 118.926451 
L 181.151267 95.885627 
L 206.574166 78.446909 
L 215.048466 68.388175 
L 223.522766 62.776125 
L 240.471365 58.635698 
L 265.894264 47.926666 
L 274.368564 45.538264 
L 282.842864 42.734228 
L 291.317164 40.095252 
L 299.791464 37.338944 
L 308.265763 35.040032 
L 325.214363 31.376887 
L 333.688663 29.243035 
L 342.162962 27.276233 
" style="fill:none;stroke:#348abd;stroke-linecap:square;stroke-width:1.5;"/>
   </g>
   <g id="line2d_26">
    <defs>
     <path d="M -0 2.828427 
L 1.697056 0 
L 0 -2.828427 
L -1.697056 -0 
z
" id="mf845f6e42b" style="stroke:#348abd;stroke-linejoin:miter;"/>
    </defs>
    <g clip-path="url(#p029bba90bc)">
     <use style="fill:#348abd;stroke:#348abd;stroke-linejoin:miter;" x="70.98537" xlink:href="#mf845f6e42b" y="118.926451"/>
     <use style="fill:#348abd;stroke:#348abd;stroke-linejoin:miter;" x="181.151267" xlink:href="#mf845f6e42b" y="95.885627"/>
     <use style="fill:#348abd;stroke:#348abd;stroke-linejoin:miter;" x="206.574166" xlink:href="#mf845f6e42b" y="78.446909"/>
     <use style="fill:#348abd;stroke:#348abd;stroke-linejoin:miter;" x="215.048466" xlink:href="#mf845f6e42b" y="68.388175"/>
     <use style="fill:#348abd;stroke:#348abd;stroke-linejoin:miter;" x="223.522766" xlink:href="#mf845f6e42b" y="62.776125"/>
     <use style="fill:#348abd;stroke:#348abd;stroke-linejoin:miter;" x="240.471365" xlink:href="#mf845f6e42b" y="58.635698"/>
     <use style="fill:#348abd;stroke:#348abd;stroke-linejoin:miter;" x="265.894264" xlink:href="#mf845f6e42b" y="47.926666"/>
     <use style="fill:#348abd;stroke:#348abd;stroke-linejoin:miter;" x="274.368564" xlink:href="#mf845f6e42b" y="45.538264"/>
     <use style="fill:#348abd;stroke:#348abd;stroke-linejoin:miter;" x="282.842864" xlink:href="#mf845f6e42b" y="42.734228"/>
     <use style="fill:#348abd;stroke:#348abd;stroke-linejoin:miter;" x="291.317164" xlink:href="#mf845f6e42b" y="40.095252"/>
     <use style="fill:#348abd;stroke:#348abd;stroke-linejoin:miter;" x="299.791464" xlink:href="#mf845f6e42b" y="37.338944"/>
     <use style="fill:#348abd;stroke:#348abd;stroke-linejoin:miter;" x="308.265763" xlink:href="#mf845f6e42b" y="35.040032"/>
     <use style="fill:#348abd;stroke:#348abd;stroke-linejoin:miter;" x="325.214363" xlink:href="#mf845f6e42b" y="31.376887"/>
     <use style="fill:#348abd;stroke:#348abd;stroke-linejoin:miter;" x="333.688663" xlink:href="#mf845f6e42b" y="29.243035"/>
     <use style="fill:#348abd;stroke:#348abd;stroke-linejoin:miter;" x="342.162962" xlink:href="#mf845f6e42b" y="27.276233"/>
    </g>
   </g>
   <g id="patch_3">
    <path d="M 57.42649 131.506829 
L 57.42649 22.129534 
" style="fill:none;stroke:#ffffff;stroke-linecap:square;stroke-linejoin:miter;"/>
   </g>
   <g id="patch_4">
    <path d="M 355.721842 131.506829 
L 355.721842 22.129534 
" style="fill:none;stroke:#ffffff;stroke-linecap:square;stroke-linejoin:miter;"/>
   </g>
   <g id="patch_5">
    <path d="M 57.42649 131.506829 
L 355.721842 131.506829 
" style="fill:none;stroke:#ffffff;stroke-linecap:square;stroke-linejoin:miter;"/>
   </g>
   <g id="patch_6">
    <path d="M 57.42649 22.129534 
L 355.721842 22.129534 
" style="fill:none;stroke:#ffffff;stroke-linecap:square;stroke-linejoin:miter;"/>
   </g>
   <g id="text_5">
    <!-- BRITISH COLUMBIA COVID-19 TESTS -->
    <defs>
     <path d="M 39.984375 44.671875 
Q 45.015625 44.671875 47.84375 47.203125 
Q 50.6875 49.75 50.6875 54.203125 
Q 50.6875 57.078125 48.703125 58.59375 
Q 46.734375 60.109375 43.015625 60.109375 
L 32.515625 60.109375 
L 29.5 44.671875 
z
M 34.421875 12.796875 
Q 40.875 12.796875 44.328125 15.875 
Q 47.796875 18.953125 47.796875 24.703125 
Q 47.796875 28.375 45.40625 30.125 
Q 43.015625 31.890625 38.09375 31.890625 
L 27 31.890625 
L 23.296875 12.796875 
z
M 56.6875 39.015625 
Q 61.46875 37.640625 64.078125 34 
Q 66.703125 30.375 66.703125 25 
Q 66.703125 13.234375 57.9375 6.609375 
Q 49.171875 0 33.296875 0 
L 2.09375 0 
L 16.3125 72.90625 
L 44.484375 72.90625 
Q 57.46875 72.90625 63.6875 69.09375 
Q 69.921875 65.28125 69.921875 57.328125 
Q 69.921875 50.640625 66.25 45.578125 
Q 62.59375 40.53125 56.6875 39.015625 
z
" id="BitstreamVeraSans-BoldOblique-66"/>
     <path d="M 36.71875 40.578125 
Q 43.109375 40.578125 46.40625 43.546875 
Q 49.703125 46.53125 49.703125 52.296875 
Q 49.703125 55.90625 47.4375 57.59375 
Q 45.171875 59.28125 40.28125 59.28125 
L 32.515625 59.28125 
L 28.8125 40.578125 
z
M 26.3125 27.59375 
L 20.90625 0 
L 2.09375 0 
L 16.3125 72.90625 
L 44.09375 72.90625 
Q 56.109375 72.90625 62.296875 68.40625 
Q 68.5 63.921875 68.5 55.171875 
Q 68.5 46.34375 63.609375 40.625 
Q 58.734375 34.90625 50.390625 34.078125 
Q 54.203125 33.296875 56.734375 30.1875 
Q 59.28125 27.09375 61.1875 20.703125 
L 67.390625 0 
L 48.6875 0 
L 43.21875 18.109375 
Q 41.546875 23.53125 39.171875 25.5625 
Q 36.8125 27.59375 32.328125 27.59375 
z
" id="BitstreamVeraSans-BoldOblique-82"/>
     <path d="M 16.3125 72.90625 
L 35.109375 72.90625 
L 20.90625 0 
L 2.09375 0 
z
" id="BitstreamVeraSans-BoldOblique-73"/>
     <path d="M 7.625 72.90625 
L 74.8125 72.90625 
L 72.015625 58.6875 
L 47.796875 58.6875 
L 36.375 0 
L 17.578125 0 
L 29 58.6875 
L 4.78125 58.6875 
z
" id="BitstreamVeraSans-BoldOblique-84"/>
     <path d="M 66.5 70.609375 
L 63.484375 55.171875 
Q 57.953125 57.90625 52.578125 59.25 
Q 47.21875 60.59375 42.09375 60.59375 
Q 35.0625 60.59375 31.125 58.390625 
Q 27.203125 56.203125 27.203125 52.296875 
Q 27.203125 49.8125 28.9375 48.40625 
Q 30.671875 47.015625 36.078125 45.703125 
L 43.796875 43.796875 
Q 53.46875 41.359375 57.984375 36.734375 
Q 62.5 32.125 62.5 24.8125 
Q 62.5 12.9375 53.484375 5.75 
Q 44.484375 -1.421875 29.296875 -1.421875 
Q 22.21875 -1.421875 15.203125 -0.09375 
Q 8.203125 1.21875 1.515625 3.8125 
L 4.5 19.671875 
Q 10.984375 15.921875 17.109375 14.0625 
Q 23.25 12.203125 29.203125 12.203125 
Q 35.640625 12.203125 39.671875 14.84375 
Q 43.703125 17.484375 43.703125 21.578125 
Q 43.703125 24.265625 41.890625 25.75 
Q 40.09375 27.25 33.984375 28.8125 
L 26.3125 30.71875 
Q 17.828125 32.8125 13.671875 37.34375 
Q 9.515625 41.890625 9.515625 49.125 
Q 9.515625 60.5 18.234375 67.359375 
Q 26.953125 74.21875 41.703125 74.21875 
Q 47.609375 74.21875 53.828125 73.3125 
Q 60.0625 72.40625 66.5 70.609375 
z
" id="BitstreamVeraSans-BoldOblique-83"/>
     <path d="M 16.3125 72.90625 
L 35.109375 72.90625 
L 29.6875 45.125 
L 57.421875 45.125 
L 62.796875 72.90625 
L 81.59375 72.90625 
L 67.390625 0 
L 48.578125 0 
L 54.59375 30.90625 
L 26.90625 30.90625 
L 20.90625 0 
L 2.09375 0 
z
" id="BitstreamVeraSans-BoldOblique-72"/>
     <path id="BitstreamVeraSans-BoldOblique-32"/>
     <path d="M 60.59375 3.421875 
Q 53.859375 1.03125 47.65625 -0.1875 
Q 41.453125 -1.421875 35.890625 -1.421875 
Q 21.1875 -1.421875 12.390625 6.640625 
Q 3.609375 14.703125 3.609375 27.984375 
Q 3.609375 36.71875 6.390625 44.453125 
Q 9.1875 52.203125 14.59375 58.59375 
Q 21 66.109375 30 70.15625 
Q 39.015625 74.21875 49.421875 74.21875 
Q 55.078125 74.21875 60.78125 72.875 
Q 66.5 71.53125 72.40625 68.796875 
L 69.390625 53.71875 
Q 64.703125 57.28125 59.953125 58.9375 
Q 55.21875 60.59375 49.8125 60.59375 
Q 38.53125 60.59375 30.90625 51.90625 
Q 23.296875 43.21875 23.296875 30.171875 
Q 23.296875 21.78125 27.984375 16.984375 
Q 32.671875 12.203125 40.921875 12.203125 
Q 45.84375 12.203125 51.390625 13.984375 
Q 56.9375 15.765625 63.8125 19.578125 
z
" id="BitstreamVeraSans-BoldOblique-67"/>
     <path d="M 61.53125 43.015625 
Q 61.53125 51.609375 57.640625 56.09375 
Q 53.765625 60.59375 46.390625 60.59375 
Q 36.625 60.59375 30 51.828125 
Q 23.390625 43.0625 23.390625 29.890625 
Q 23.390625 21.484375 27.25 16.84375 
Q 31.109375 12.203125 37.984375 12.203125 
Q 43.609375 12.203125 47.96875 14.5625 
Q 52.34375 16.9375 55.421875 21.578125 
Q 58.34375 26.03125 59.9375 31.59375 
Q 61.53125 37.15625 61.53125 43.015625 
z
M 49.125 74.21875 
Q 63.671875 74.21875 72.53125 66.140625 
Q 81.390625 58.0625 81.390625 45.015625 
Q 81.390625 36.140625 78.6875 28.21875 
Q 75.984375 20.3125 70.796875 14.015625 
Q 64.453125 6.25 55.78125 2.40625 
Q 47.125 -1.421875 35.796875 -1.421875 
Q 21.296875 -1.421875 12.453125 6.640625 
Q 3.609375 14.703125 3.609375 27.78125 
Q 3.609375 36.71875 6.296875 44.625 
Q 8.984375 52.546875 14.203125 58.890625 
Q 20.453125 66.609375 29.125 70.40625 
Q 37.796875 74.21875 49.125 74.21875 
z
" id="BitstreamVeraSans-BoldOblique-79"/>
     <path d="M 16.3125 72.90625 
L 35.109375 72.90625 
L 23.6875 14.203125 
L 56.59375 14.203125 
L 53.90625 0 
L 2.09375 0 
z
" id="BitstreamVeraSans-BoldOblique-76"/>
     <path d="M 16.3125 72.90625 
L 35.109375 72.90625 
L 26.609375 29.25 
Q 26.125 26.90625 25.90625 25.09375 
Q 25.6875 23.296875 25.6875 21.921875 
Q 25.6875 17.140625 28.25 14.765625 
Q 30.8125 12.40625 35.890625 12.40625 
Q 42.71875 12.40625 46.375 16.234375 
Q 50.046875 20.0625 51.8125 29.203125 
L 60.296875 72.90625 
L 79.109375 72.90625 
L 70.609375 29.203125 
Q 67.4375 13.09375 58.5625 5.828125 
Q 49.703125 -1.421875 33.203125 -1.421875 
Q 20.265625 -1.421875 13.515625 4.125 
Q 6.78125 9.671875 6.78125 20.21875 
Q 6.78125 21.96875 7.03125 24.140625 
Q 7.28125 26.3125 7.8125 29.203125 
z
" id="BitstreamVeraSans-BoldOblique-85"/>
     <path d="M 16.3125 72.90625 
L 39.40625 72.90625 
L 48.78125 34.1875 
L 73.390625 72.90625 
L 97.40625 72.90625 
L 83.203125 0 
L 65.375 0 
L 75.78125 53.8125 
L 50.484375 14.015625 
L 40.375 14.015625 
L 30.328125 53.8125 
L 19.921875 0 
L 2.09375 0 
z
" id="BitstreamVeraSans-BoldOblique-77"/>
     <path d="M 49.125 13.28125 
L 20.015625 13.28125 
L 12.796875 0 
L -6.5 0 
L 34.71875 72.90625 
L 56.203125 72.90625 
L 69.09375 0 
L 51.21875 0 
z
M 27.09375 26.515625 
L 46.6875 26.515625 
L 42.28125 54.59375 
z
" id="BitstreamVeraSans-BoldOblique-65"/>
     <path d="M 7.625 72.90625 
L 25.484375 72.90625 
L 34.421875 18.40625 
L 64.59375 72.90625 
L 83.984375 72.90625 
L 42.828125 0 
L 20.40625 0 
z
" id="BitstreamVeraSans-BoldOblique-86"/>
     <path d="M 32.421875 58.6875 
L 23.6875 14.203125 
L 30.421875 14.203125 
Q 43.5625 14.203125 51.21875 21.578125 
Q 58.890625 28.953125 58.890625 41.5 
Q 58.890625 50 53.875 54.34375 
Q 48.875 58.6875 39.015625 58.6875 
z
M 16.3125 72.90625 
L 36.078125 72.90625 
Q 50.25 72.90625 57.328125 71.21875 
Q 64.40625 69.53125 69.09375 65.578125 
Q 73.828125 61.625 76.21875 55.984375 
Q 78.609375 50.34375 78.609375 43.21875 
Q 78.609375 33.296875 74.53125 24.53125 
Q 70.453125 15.765625 63.09375 9.8125 
Q 56.640625 4.5 48.109375 2.25 
Q 39.59375 0 21.921875 0 
L 2.09375 0 
z
" id="BitstreamVeraSans-BoldOblique-68"/>
     <path d="M 5.328125 35.890625 
L 35.984375 35.890625 
L 33.203125 21.6875 
L 2.484375 21.6875 
z
" id="BitstreamVeraSans-BoldOblique-45"/>
     <path d="M 6.890625 12.984375 
L 23.484375 12.984375 
L 32.625 60.109375 
L 14.890625 56.59375 
L 17.390625 69.390625 
L 35.015625 72.90625 
L 52.875 72.90625 
L 41.3125 12.984375 
L 57.8125 12.984375 
L 55.328125 0 
L 4.296875 0 
z
" id="BitstreamVeraSans-BoldOblique-49"/>
     <path d="M 4.109375 1.609375 
L 6.6875 15.09375 
Q 10.9375 12.890625 14.890625 11.84375 
Q 18.84375 10.796875 22.796875 10.796875 
Q 31.890625 10.796875 37.5 15.671875 
Q 43.109375 20.5625 44.28125 29.390625 
Q 40.53125 26.90625 36.515625 25.703125 
Q 32.515625 24.515625 27.984375 24.515625 
Q 19.046875 24.515625 13.328125 29.828125 
Q 7.625 35.15625 7.625 43.40625 
Q 7.625 56.890625 16.4375 65.5 
Q 25.25 74.125 39.109375 74.125 
Q 51.5625 74.125 58.375 67.0625 
Q 65.1875 60.015625 65.1875 47.125 
Q 65.1875 37.203125 62.15625 28.140625 
Q 59.125 19.09375 53.609375 12.5 
Q 47.75 5.515625 39.8125 2 
Q 31.890625 -1.515625 21.921875 -1.515625 
Q 17.28125 -1.515625 12.890625 -0.734375 
Q 8.5 0.046875 4.109375 1.609375 
z
M 33.890625 36.625 
Q 39.453125 36.625 43.015625 41.203125 
Q 46.578125 45.796875 46.578125 52.984375 
Q 46.578125 57.421875 44.453125 59.8125 
Q 42.328125 62.203125 38.375 62.203125 
Q 32.859375 62.203125 29.21875 57.65625 
Q 25.59375 53.125 25.59375 46.296875 
Q 25.59375 41.609375 27.734375 39.109375 
Q 29.890625 36.625 33.890625 36.625 
z
" id="BitstreamVeraSans-BoldOblique-57"/>
     <path d="M 16.3125 72.90625 
L 67 72.90625 
L 64.203125 58.6875 
L 32.328125 58.6875 
L 29.6875 45.125 
L 59.71875 45.125 
L 56.890625 30.90625 
L 26.90625 30.90625 
L 23.6875 14.203125 
L 56.59375 14.203125 
L 53.90625 0 
L 2.09375 0 
z
" id="BitstreamVeraSans-BoldOblique-69"/>
    </defs>
    <g transform="translate(57.42649 13.941988)scale(0.144 -0.144)">
     <use xlink:href="#BitstreamVeraSans-BoldOblique-66"/>
     <use x="76.220703" xlink:href="#BitstreamVeraSans-BoldOblique-82"/>
     <use x="153.222656" xlink:href="#BitstreamVeraSans-BoldOblique-73"/>
     <use x="190.429688" xlink:href="#BitstreamVeraSans-BoldOblique-84"/>
     <use x="258.642578" xlink:href="#BitstreamVeraSans-BoldOblique-73"/>
     <use x="295.849609" xlink:href="#BitstreamVeraSans-BoldOblique-83"/>
     <use x="367.871094" xlink:href="#BitstreamVeraSans-BoldOblique-72"/>
     <use x="451.5625" xlink:href="#BitstreamVeraSans-BoldOblique-32"/>
     <use x="486.376953" xlink:href="#BitstreamVeraSans-BoldOblique-67"/>
     <use x="559.765625" xlink:href="#BitstreamVeraSans-BoldOblique-79"/>
     <use x="644.775391" xlink:href="#BitstreamVeraSans-BoldOblique-76"/>
     <use x="702.996094" xlink:href="#BitstreamVeraSans-BoldOblique-85"/>
     <use x="784.197266" xlink:href="#BitstreamVeraSans-BoldOblique-77"/>
     <use x="883.708984" xlink:href="#BitstreamVeraSans-BoldOblique-66"/>
     <use x="959.929688" xlink:href="#BitstreamVeraSans-BoldOblique-73"/>
     <use x="997.136719" xlink:href="#BitstreamVeraSans-BoldOblique-65"/>
     <use x="1074.529297" xlink:href="#BitstreamVeraSans-BoldOblique-32"/>
     <use x="1109.34375" xlink:href="#BitstreamVeraSans-BoldOblique-67"/>
     <use x="1182.732422" xlink:href="#BitstreamVeraSans-BoldOblique-79"/>
     <use x="1264.117188" xlink:href="#BitstreamVeraSans-BoldOblique-86"/>
     <use x="1341.509766" xlink:href="#BitstreamVeraSans-BoldOblique-73"/>
     <use x="1378.716797" xlink:href="#BitstreamVeraSans-BoldOblique-68"/>
     <use x="1463.599609" xlink:href="#BitstreamVeraSans-BoldOblique-45"/>
     <use x="1505.103516" xlink:href="#BitstreamVeraSans-BoldOblique-49"/>
     <use x="1574.683594" xlink:href="#BitstreamVeraSans-BoldOblique-57"/>
     <use x="1644.263672" xlink:href="#BitstreamVeraSans-BoldOblique-32"/>
     <use x="1679.078125" xlink:href="#BitstreamVeraSans-BoldOblique-84"/>
     <use x="1747.291016" xlink:href="#BitstreamVeraSans-BoldOblique-69"/>
     <use x="1815.601562" xlink:href="#BitstreamVeraSans-BoldOblique-83"/>
     <use x="1887.623047" xlink:href="#BitstreamVeraSans-BoldOblique-84"/>
     <use x="1955.835938" xlink:href="#BitstreamVeraSans-BoldOblique-83"/>
    </g>
   </g>
  </g>
  <g id="axes_2">
   <g id="patch_7">
    <path d="M 57.42649 255.64351 
L 355.721842 255.64351 
L 355.721842 146.266215 
L 57.42649 146.266215 
z
" style="fill:#e5e5e5;"/>
   </g>
   <g id="matplotlib.axis_3">
    <g id="xtick_10">
     <g id="line2d_27">
      <path clip-path="url(#pe524abe2ed)" d="M 87.933969 255.64351 
L 87.933969 146.266215 
" style="fill:none;stroke:#ffffff;stroke-linecap:square;stroke-width:0.8;"/>
     </g>
     <g id="line2d_28">
      <g>
       <use style="fill:#555555;stroke:#555555;stroke-width:0.8;" x="87.933969" xlink:href="#m26685f8316" y="255.64351"/>
      </g>
     </g>
     <g id="text_6">
      <!-- 09 -->
      <defs>
       <path d="M 10.984375 1.515625 
L 10.984375 10.5 
Q 14.703125 8.734375 18.5 7.8125 
Q 22.3125 6.890625 25.984375 6.890625 
Q 35.75 6.890625 40.890625 13.453125 
Q 46.046875 20.015625 46.78125 33.40625 
Q 43.953125 29.203125 39.59375 26.953125 
Q 35.25 24.703125 29.984375 24.703125 
Q 19.046875 24.703125 12.671875 31.3125 
Q 6.296875 37.9375 6.296875 49.421875 
Q 6.296875 60.640625 12.9375 67.421875 
Q 19.578125 74.21875 30.609375 74.21875 
Q 43.265625 74.21875 49.921875 64.515625 
Q 56.59375 54.828125 56.59375 36.375 
Q 56.59375 19.140625 48.40625 8.859375 
Q 40.234375 -1.421875 26.421875 -1.421875 
Q 22.703125 -1.421875 18.890625 -0.6875 
Q 15.09375 0.046875 10.984375 1.515625 
z
M 30.609375 32.421875 
Q 37.25 32.421875 41.125 36.953125 
Q 45.015625 41.5 45.015625 49.421875 
Q 45.015625 57.28125 41.125 61.84375 
Q 37.25 66.40625 30.609375 66.40625 
Q 23.96875 66.40625 20.09375 61.84375 
Q 16.21875 57.28125 16.21875 49.421875 
Q 16.21875 41.5 20.09375 36.953125 
Q 23.96875 32.421875 30.609375 32.421875 
z
" id="BitstreamVeraSans-Roman-57"/>
      </defs>
      <g style="fill:#555555;" transform="translate(81.571469 270.241947)scale(0.1 -0.1)">
       <use xlink:href="#BitstreamVeraSans-Roman-48"/>
       <use x="63.623047" xlink:href="#BitstreamVeraSans-Roman-57"/>
      </g>
     </g>
    </g>
    <g id="xtick_11">
     <g id="line2d_29">
      <path clip-path="url(#pe524abe2ed)" d="M 121.831168 255.64351 
L 121.831168 146.266215 
" style="fill:none;stroke:#ffffff;stroke-linecap:square;stroke-width:0.8;"/>
     </g>
     <g id="line2d_30">
      <g>
       <use style="fill:#555555;stroke:#555555;stroke-width:0.8;" x="121.831168" xlink:href="#m26685f8316" y="255.64351"/>
      </g>
     </g>
     <g id="text_7">
      <!-- 13 -->
      <defs>
       <path d="M 12.40625 8.296875 
L 28.515625 8.296875 
L 28.515625 63.921875 
L 10.984375 60.40625 
L 10.984375 69.390625 
L 28.421875 72.90625 
L 38.28125 72.90625 
L 38.28125 8.296875 
L 54.390625 8.296875 
L 54.390625 0 
L 12.40625 0 
z
" id="BitstreamVeraSans-Roman-49"/>
       <path d="M 40.578125 39.3125 
Q 47.65625 37.796875 51.625 33 
Q 55.609375 28.21875 55.609375 21.1875 
Q 55.609375 10.40625 48.1875 4.484375 
Q 40.765625 -1.421875 27.09375 -1.421875 
Q 22.515625 -1.421875 17.65625 -0.515625 
Q 12.796875 0.390625 7.625 2.203125 
L 7.625 11.71875 
Q 11.71875 9.328125 16.59375 8.109375 
Q 21.484375 6.890625 26.8125 6.890625 
Q 36.078125 6.890625 40.9375 10.546875 
Q 45.796875 14.203125 45.796875 21.1875 
Q 45.796875 27.640625 41.28125 31.265625 
Q 36.765625 34.90625 28.71875 34.90625 
L 20.21875 34.90625 
L 20.21875 43.015625 
L 29.109375 43.015625 
Q 36.375 43.015625 40.234375 45.921875 
Q 44.09375 48.828125 44.09375 54.296875 
Q 44.09375 59.90625 40.109375 62.90625 
Q 36.140625 65.921875 28.71875 65.921875 
Q 24.65625 65.921875 20.015625 65.03125 
Q 15.375 64.15625 9.8125 62.3125 
L 9.8125 71.09375 
Q 15.4375 72.65625 20.34375 73.4375 
Q 25.25 74.21875 29.59375 74.21875 
Q 40.828125 74.21875 47.359375 69.109375 
Q 53.90625 64.015625 53.90625 55.328125 
Q 53.90625 49.265625 50.4375 45.09375 
Q 46.96875 40.921875 40.578125 39.3125 
z
" id="BitstreamVeraSans-Roman-51"/>
      </defs>
      <g style="fill:#555555;" transform="translate(115.468668 270.241947)scale(0.1 -0.1)">
       <use xlink:href="#BitstreamVeraSans-Roman-49"/>
       <use x="63.623047" xlink:href="#BitstreamVeraSans-Roman-51"/>
      </g>
     </g>
    </g>
    <g id="xtick_12">
     <g id="line2d_31">
      <path clip-path="url(#pe524abe2ed)" d="M 155.728367 255.64351 
L 155.728367 146.266215 
" style="fill:none;stroke:#ffffff;stroke-linecap:square;stroke-width:0.8;"/>
     </g>
     <g id="line2d_32">
      <g>
       <use style="fill:#555555;stroke:#555555;stroke-width:0.8;" x="155.728367" xlink:href="#m26685f8316" y="255.64351"/>
      </g>
     </g>
     <g id="text_8">
      <!-- 17 -->
      <defs>
       <path d="M 8.203125 72.90625 
L 55.078125 72.90625 
L 55.078125 68.703125 
L 28.609375 0 
L 18.3125 0 
L 43.21875 64.59375 
L 8.203125 64.59375 
z
" id="BitstreamVeraSans-Roman-55"/>
      </defs>
      <g style="fill:#555555;" transform="translate(149.365867 270.241947)scale(0.1 -0.1)">
       <use xlink:href="#BitstreamVeraSans-Roman-49"/>
       <use x="63.623047" xlink:href="#BitstreamVeraSans-Roman-55"/>
      </g>
     </g>
    </g>
    <g id="xtick_13">
     <g id="line2d_33">
      <path clip-path="url(#pe524abe2ed)" d="M 189.625566 255.64351 
L 189.625566 146.266215 
" style="fill:none;stroke:#ffffff;stroke-linecap:square;stroke-width:0.8;"/>
     </g>
     <g id="line2d_34">
      <g>
       <use style="fill:#555555;stroke:#555555;stroke-width:0.8;" x="189.625566" xlink:href="#m26685f8316" y="255.64351"/>
      </g>
     </g>
     <g id="text_9">
      <!-- 21 -->
      <g style="fill:#555555;" transform="translate(183.263066 270.241947)scale(0.1 -0.1)">
       <use xlink:href="#BitstreamVeraSans-Roman-50"/>
       <use x="63.623047" xlink:href="#BitstreamVeraSans-Roman-49"/>
      </g>
     </g>
    </g>
    <g id="xtick_14">
     <g id="line2d_35">
      <path clip-path="url(#pe524abe2ed)" d="M 223.522766 255.64351 
L 223.522766 146.266215 
" style="fill:none;stroke:#ffffff;stroke-linecap:square;stroke-width:0.8;"/>
     </g>
     <g id="line2d_36">
      <g>
       <use style="fill:#555555;stroke:#555555;stroke-width:0.8;" x="223.522766" xlink:href="#m26685f8316" y="255.64351"/>
      </g>
     </g>
     <g id="text_10">
      <!-- 25 -->
      <defs>
       <path d="M 10.796875 72.90625 
L 49.515625 72.90625 
L 49.515625 64.59375 
L 19.828125 64.59375 
L 19.828125 46.734375 
Q 21.96875 47.46875 24.109375 47.828125 
Q 26.265625 48.1875 28.421875 48.1875 
Q 40.625 48.1875 47.75 41.5 
Q 54.890625 34.8125 54.890625 23.390625 
Q 54.890625 11.625 47.5625 5.09375 
Q 40.234375 -1.421875 26.90625 -1.421875 
Q 22.3125 -1.421875 17.546875 -0.640625 
Q 12.796875 0.140625 7.71875 1.703125 
L 7.71875 11.625 
Q 12.109375 9.234375 16.796875 8.0625 
Q 21.484375 6.890625 26.703125 6.890625 
Q 35.15625 6.890625 40.078125 11.328125 
Q 45.015625 15.765625 45.015625 23.390625 
Q 45.015625 31 40.078125 35.4375 
Q 35.15625 39.890625 26.703125 39.890625 
Q 22.75 39.890625 18.8125 39.015625 
Q 14.890625 38.140625 10.796875 36.28125 
z
" id="BitstreamVeraSans-Roman-53"/>
      </defs>
      <g style="fill:#555555;" transform="translate(217.160266 270.241947)scale(0.1 -0.1)">
       <use xlink:href="#BitstreamVeraSans-Roman-50"/>
       <use x="63.623047" xlink:href="#BitstreamVeraSans-Roman-53"/>
      </g>
     </g>
    </g>
    <g id="xtick_15">
     <g id="line2d_37">
      <path clip-path="url(#pe524abe2ed)" d="M 257.419965 255.64351 
L 257.419965 146.266215 
" style="fill:none;stroke:#ffffff;stroke-linecap:square;stroke-width:0.8;"/>
     </g>
     <g id="line2d_38">
      <g>
       <use style="fill:#555555;stroke:#555555;stroke-width:0.8;" x="257.419965" xlink:href="#m26685f8316" y="255.64351"/>
      </g>
     </g>
     <g id="text_11">
      <!-- 29 -->
      <g style="fill:#555555;" transform="translate(251.057465 270.241947)scale(0.1 -0.1)">
       <use xlink:href="#BitstreamVeraSans-Roman-50"/>
       <use x="63.623047" xlink:href="#BitstreamVeraSans-Roman-57"/>
      </g>
     </g>
    </g>
    <g id="xtick_16">
     <g id="line2d_39">
      <path clip-path="url(#pe524abe2ed)" d="M 282.842864 255.64351 
L 282.842864 146.266215 
" style="fill:none;stroke:#ffffff;stroke-linecap:square;stroke-width:0.8;"/>
     </g>
     <g id="line2d_40">
      <g>
       <use style="fill:#555555;stroke:#555555;stroke-width:0.8;" x="282.842864" xlink:href="#m26685f8316" y="255.64351"/>
      </g>
     </g>
     <g id="text_12">
      <!-- Apr -->
      <defs>
       <path d="M 34.1875 63.1875 
L 20.796875 26.90625 
L 47.609375 26.90625 
z
M 28.609375 72.90625 
L 39.796875 72.90625 
L 67.578125 0 
L 57.328125 0 
L 50.6875 18.703125 
L 17.828125 18.703125 
L 11.1875 0 
L 0.78125 0 
z
" id="BitstreamVeraSans-Roman-65"/>
       <path d="M 18.109375 8.203125 
L 18.109375 -20.796875 
L 9.078125 -20.796875 
L 9.078125 54.6875 
L 18.109375 54.6875 
L 18.109375 46.390625 
Q 20.953125 51.265625 25.265625 53.625 
Q 29.59375 56 35.59375 56 
Q 45.5625 56 51.78125 48.09375 
Q 58.015625 40.1875 58.015625 27.296875 
Q 58.015625 14.40625 51.78125 6.484375 
Q 45.5625 -1.421875 35.59375 -1.421875 
Q 29.59375 -1.421875 25.265625 0.953125 
Q 20.953125 3.328125 18.109375 8.203125 
z
M 48.6875 27.296875 
Q 48.6875 37.203125 44.609375 42.84375 
Q 40.53125 48.484375 33.40625 48.484375 
Q 26.265625 48.484375 22.1875 42.84375 
Q 18.109375 37.203125 18.109375 27.296875 
Q 18.109375 17.390625 22.1875 11.75 
Q 26.265625 6.109375 33.40625 6.109375 
Q 40.53125 6.109375 44.609375 11.75 
Q 48.6875 17.390625 48.6875 27.296875 
z
" id="BitstreamVeraSans-Roman-112"/>
       <path d="M 41.109375 46.296875 
Q 39.59375 47.171875 37.8125 47.578125 
Q 36.03125 48 33.890625 48 
Q 26.265625 48 22.1875 43.046875 
Q 18.109375 38.09375 18.109375 28.8125 
L 18.109375 0 
L 9.078125 0 
L 9.078125 54.6875 
L 18.109375 54.6875 
L 18.109375 46.1875 
Q 20.953125 51.171875 25.484375 53.578125 
Q 30.03125 56 36.53125 56 
Q 37.453125 56 38.578125 55.875 
Q 39.703125 55.765625 41.0625 55.515625 
z
" id="BitstreamVeraSans-Roman-114"/>
      </defs>
      <g style="fill:#555555;" transform="translate(274.192864 270.241947)scale(0.1 -0.1)">
       <use xlink:href="#BitstreamVeraSans-Roman-65"/>
       <use x="68.408203" xlink:href="#BitstreamVeraSans-Roman-112"/>
       <use x="131.884766" xlink:href="#BitstreamVeraSans-Roman-114"/>
      </g>
     </g>
    </g>
    <g id="xtick_17">
     <g id="line2d_41">
      <path clip-path="url(#pe524abe2ed)" d="M 316.740063 255.64351 
L 316.740063 146.266215 
" style="fill:none;stroke:#ffffff;stroke-linecap:square;stroke-width:0.8;"/>
     </g>
     <g id="line2d_42">
      <g>
       <use style="fill:#555555;stroke:#555555;stroke-width:0.8;" x="316.740063" xlink:href="#m26685f8316" y="255.64351"/>
      </g>
     </g>
     <g id="text_13">
      <!-- 05 -->
      <g style="fill:#555555;" transform="translate(310.377563 270.241947)scale(0.1 -0.1)">
       <use xlink:href="#BitstreamVeraSans-Roman-48"/>
       <use x="63.623047" xlink:href="#BitstreamVeraSans-Roman-53"/>
      </g>
     </g>
    </g>
    <g id="xtick_18">
     <g id="line2d_43">
      <path clip-path="url(#pe524abe2ed)" d="M 350.637262 255.64351 
L 350.637262 146.266215 
" style="fill:none;stroke:#ffffff;stroke-linecap:square;stroke-width:0.8;"/>
     </g>
     <g id="line2d_44">
      <g>
       <use style="fill:#555555;stroke:#555555;stroke-width:0.8;" x="350.637262" xlink:href="#m26685f8316" y="255.64351"/>
      </g>
     </g>
     <g id="text_14">
      <!-- 09 -->
      <g style="fill:#555555;" transform="translate(344.274762 270.241947)scale(0.1 -0.1)">
       <use xlink:href="#BitstreamVeraSans-Roman-48"/>
       <use x="63.623047" xlink:href="#BitstreamVeraSans-Roman-57"/>
      </g>
     </g>
    </g>
    <g id="text_15">
     <!-- 2020-Apr -->
     <defs>
      <path d="M 4.890625 31.390625 
L 31.203125 31.390625 
L 31.203125 23.390625 
L 4.890625 23.390625 
z
" id="BitstreamVeraSans-Roman-45"/>
     </defs>
     <g style="fill:#555555;" transform="translate(309.58903 282.920073)scale(0.1 -0.1)">
      <use xlink:href="#BitstreamVeraSans-Roman-50"/>
      <use x="63.623047" xlink:href="#BitstreamVeraSans-Roman-48"/>
      <use x="127.246094" xlink:href="#BitstreamVeraSans-Roman-50"/>
      <use x="190.869141" xlink:href="#BitstreamVeraSans-Roman-48"/>
      <use x="254.492188" xlink:href="#BitstreamVeraSans-Roman-45"/>
      <use x="288.326172" xlink:href="#BitstreamVeraSans-Roman-65"/>
      <use x="356.734375" xlink:href="#BitstreamVeraSans-Roman-112"/>
      <use x="420.210938" xlink:href="#BitstreamVeraSans-Roman-114"/>
     </g>
    </g>
   </g>
   <g id="matplotlib.axis_4">
    <g id="ytick_4">
     <g id="line2d_45">
      <path clip-path="url(#pe524abe2ed)" d="M 57.42649 255.64351 
L 355.721842 255.64351 
" style="fill:none;stroke:#ffffff;stroke-linecap:square;stroke-width:0.8;"/>
     </g>
     <g id="line2d_46">
      <g>
       <use style="fill:#555555;stroke:#555555;stroke-width:0.8;" x="57.42649" xlink:href="#mf7cec78d85" y="255.64351"/>
      </g>
     </g>
     <g id="text_16">
      <!-- 0 -->
      <g style="fill:#555555;" transform="translate(44.06399 259.442729)scale(0.1 -0.1)">
       <use xlink:href="#BitstreamVeraSans-Roman-48"/>
      </g>
     </g>
    </g>
    <g id="ytick_5">
     <g id="line2d_47">
      <path clip-path="url(#pe524abe2ed)" d="M 57.42649 215.869948 
L 355.721842 215.869948 
" style="fill:none;stroke:#ffffff;stroke-linecap:square;stroke-width:0.8;"/>
     </g>
     <g id="line2d_48">
      <g>
       <use style="fill:#555555;stroke:#555555;stroke-width:0.8;" x="57.42649" xlink:href="#mf7cec78d85" y="215.869948"/>
      </g>
     </g>
     <g id="text_17">
      <!-- 2000 -->
      <g style="fill:#555555;" transform="translate(24.97649 219.669167)scale(0.1 -0.1)">
       <use xlink:href="#BitstreamVeraSans-Roman-50"/>
       <use x="63.623047" xlink:href="#BitstreamVeraSans-Roman-48"/>
       <use x="127.246094" xlink:href="#BitstreamVeraSans-Roman-48"/>
       <use x="190.869141" xlink:href="#BitstreamVeraSans-Roman-48"/>
      </g>
     </g>
    </g>
    <g id="ytick_6">
     <g id="line2d_49">
      <path clip-path="url(#pe524abe2ed)" d="M 57.42649 176.096386 
L 355.721842 176.096386 
" style="fill:none;stroke:#ffffff;stroke-linecap:square;stroke-width:0.8;"/>
     </g>
     <g id="line2d_50">
      <g>
       <use style="fill:#555555;stroke:#555555;stroke-width:0.8;" x="57.42649" xlink:href="#mf7cec78d85" y="176.096386"/>
      </g>
     </g>
     <g id="text_18">
      <!-- 4000 -->
      <g style="fill:#555555;" transform="translate(24.97649 179.895605)scale(0.1 -0.1)">
       <use xlink:href="#BitstreamVeraSans-Roman-52"/>
       <use x="63.623047" xlink:href="#BitstreamVeraSans-Roman-48"/>
       <use x="127.246094" xlink:href="#BitstreamVeraSans-Roman-48"/>
       <use x="190.869141" xlink:href="#BitstreamVeraSans-Roman-48"/>
      </g>
     </g>
    </g>
    <g id="text_19">
     <!-- Tests / day -->
     <defs>
      <path d="M 25.390625 72.90625 
L 33.6875 72.90625 
L 8.296875 -9.28125 
L 0 -9.28125 
z
" id="BitstreamVeraSans-Roman-47"/>
      <path d="M 45.40625 46.390625 
L 45.40625 75.984375 
L 54.390625 75.984375 
L 54.390625 0 
L 45.40625 0 
L 45.40625 8.203125 
Q 42.578125 3.328125 38.25 0.953125 
Q 33.9375 -1.421875 27.875 -1.421875 
Q 17.96875 -1.421875 11.734375 6.484375 
Q 5.515625 14.40625 5.515625 27.296875 
Q 5.515625 40.1875 11.734375 48.09375 
Q 17.96875 56 27.875 56 
Q 33.9375 56 38.25 53.625 
Q 42.578125 51.265625 45.40625 46.390625 
z
M 14.796875 27.296875 
Q 14.796875 17.390625 18.875 11.75 
Q 22.953125 6.109375 30.078125 6.109375 
Q 37.203125 6.109375 41.296875 11.75 
Q 45.40625 17.390625 45.40625 27.296875 
Q 45.40625 37.203125 41.296875 42.84375 
Q 37.203125 48.484375 30.078125 48.484375 
Q 22.953125 48.484375 18.875 42.84375 
Q 14.796875 37.203125 14.796875 27.296875 
z
" id="BitstreamVeraSans-Roman-100"/>
      <path d="M 32.171875 -5.078125 
Q 28.375 -14.84375 24.75 -17.8125 
Q 21.140625 -20.796875 15.09375 -20.796875 
L 7.90625 -20.796875 
L 7.90625 -13.28125 
L 13.1875 -13.28125 
Q 16.890625 -13.28125 18.9375 -11.515625 
Q 21 -9.765625 23.484375 -3.21875 
L 25.09375 0.875 
L 2.984375 54.6875 
L 12.5 54.6875 
L 29.59375 11.921875 
L 46.6875 54.6875 
L 56.203125 54.6875 
z
" id="BitstreamVeraSans-Roman-121"/>
     </defs>
     <g style="fill:#555555;" transform="translate(18.480865 232.76705)rotate(-90)scale(0.12 -0.12)">
      <use xlink:href="#BitstreamVeraSans-Roman-84"/>
      <use x="44.083984" xlink:href="#BitstreamVeraSans-Roman-101"/>
      <use x="105.607422" xlink:href="#BitstreamVeraSans-Roman-115"/>
      <use x="157.707031" xlink:href="#BitstreamVeraSans-Roman-116"/>
      <use x="196.916016" xlink:href="#BitstreamVeraSans-Roman-115"/>
      <use x="249.015625" xlink:href="#BitstreamVeraSans-Roman-32"/>
      <use x="280.802734" xlink:href="#BitstreamVeraSans-Roman-47"/>
      <use x="314.494141" xlink:href="#BitstreamVeraSans-Roman-32"/>
      <use x="346.28125" xlink:href="#BitstreamVeraSans-Roman-100"/>
      <use x="409.757812" xlink:href="#BitstreamVeraSans-Roman-97"/>
      <use x="471.037109" xlink:href="#BitstreamVeraSans-Roman-121"/>
     </g>
    </g>
   </g>
   <g id="line2d_51">
    <path clip-path="url(#pe524abe2ed)" d="M 126.068318 237.919799 
L 193.862716 197.514449 
L 210.811316 155.056172 
L 219.285616 199.523014 
L 231.997065 234.941371 
L 253.182815 219.946738 
L 270.131414 231.759486 
L 278.605714 227.603149 
L 287.080014 229.253752 
L 295.554314 228.080432 
L 304.028613 232.654391 
L 316.740063 237.327785 
L 329.451513 234.304994 
L 337.925813 235.975484 
" style="fill:none;stroke:#348abd;stroke-linecap:square;stroke-width:1.5;"/>
   </g>
   <g id="line2d_52">
    <g clip-path="url(#pe524abe2ed)">
     <use style="fill:#348abd;stroke:#348abd;stroke-linejoin:miter;" x="126.068318" xlink:href="#mf845f6e42b" y="237.919799"/>
     <use style="fill:#348abd;stroke:#348abd;stroke-linejoin:miter;" x="193.862716" xlink:href="#mf845f6e42b" y="197.514449"/>
     <use style="fill:#348abd;stroke:#348abd;stroke-linejoin:miter;" x="210.811316" xlink:href="#mf845f6e42b" y="155.056172"/>
     <use style="fill:#348abd;stroke:#348abd;stroke-linejoin:miter;" x="219.285616" xlink:href="#mf845f6e42b" y="199.523014"/>
     <use style="fill:#348abd;stroke:#348abd;stroke-linejoin:miter;" x="231.997065" xlink:href="#mf845f6e42b" y="234.941371"/>
     <use style="fill:#348abd;stroke:#348abd;stroke-linejoin:miter;" x="253.182815" xlink:href="#mf845f6e42b" y="219.946738"/>
     <use style="fill:#348abd;stroke:#348abd;stroke-linejoin:miter;" x="270.131414" xlink:href="#mf845f6e42b" y="231.759486"/>
     <use style="fill:#348abd;stroke:#348abd;stroke-linejoin:miter;" x="278.605714" xlink:href="#mf845f6e42b" y="227.603149"/>
     <use style="fill:#348abd;stroke:#348abd;stroke-linejoin:miter;" x="287.080014" xlink:href="#mf845f6e42b" y="229.253752"/>
     <use style="fill:#348abd;stroke:#348abd;stroke-linejoin:miter;" x="295.554314" xlink:href="#mf845f6e42b" y="228.080432"/>
     <use style="fill:#348abd;stroke:#348abd;stroke-linejoin:miter;" x="304.028613" xlink:href="#mf845f6e42b" y="232.654391"/>
     <use style="fill:#348abd;stroke:#348abd;stroke-linejoin:miter;" x="316.740063" xlink:href="#mf845f6e42b" y="237.327785"/>
     <use style="fill:#348abd;stroke:#348abd;stroke-linejoin:miter;" x="329.451513" xlink:href="#mf845f6e42b" y="234.304994"/>
     <use style="fill:#348abd;stroke:#348abd;stroke-linejoin:miter;" x="337.925813" xlink:href="#mf845f6e42b" y="235.975484"/>
    </g>
   </g>
   <g id="patch_8">
    <path d="M 57.42649 255.64351 
L 57.42649 146.266215 
" style="fill:none;stroke:#ffffff;stroke-linecap:square;stroke-linejoin:miter;"/>
   </g>
   <g id="patch_9">
    <path d="M 355.721842 255.64351 
L 355.721842 146.266215 
" style="fill:none;stroke:#ffffff;stroke-linecap:square;stroke-linejoin:miter;"/>
   </g>
   <g id="patch_10">
    <path d="M 57.42649 255.64351 
L 355.721842 255.64351 
" style="fill:none;stroke:#ffffff;stroke-linecap:square;stroke-linejoin:miter;"/>
   </g>
   <g id="patch_11">
    <path d="M 57.42649 146.266215 
L 355.721842 146.266215 
" style="fill:none;stroke:#ffffff;stroke-linecap:square;stroke-linejoin:miter;"/>
   </g>
  </g>
 </g>
 <defs>
  <clipPath id="p029bba90bc">
   <rect height="109.377295" width="298.295352" x="57.42649" y="22.129534"/>
  </clipPath>
  <clipPath id="pe524abe2ed">
   <rect height="109.377295" width="298.295352" x="57.42649" y="146.266215"/>
  </clipPath>
 </defs>
</svg>
