<?xml version="1.0" encoding="utf-8" standalone="no"?>
<!DOCTYPE svg PUBLIC "-//W3C//DTD SVG 1.1//EN"
  "http://www.w3.org/Graphics/SVG/1.1/DTD/svg11.dtd">
<!-- Created with matplotlib (https://matplotlib.org/) -->
<svg height="288pt" version="1.1" viewBox="0 0 360 288" width="360pt" xmlns="http://www.w3.org/2000/svg" xmlns:xlink="http://www.w3.org/1999/xlink">
 <defs>
  <style type="text/css">
*{stroke-linecap:butt;stroke-linejoin:round;}
  </style>
 </defs>
 <g id="figure_1">
  <g id="patch_1">
   <path d="M 0 288 
L 360 288 
L 360 0 
L 0 0 
z
" style="fill:#ffffff;"/>
  </g>
  <g id="axes_1">
   <g id="patch_2">
    <path d="M 43.51399 255.64351 
L 356.13554 255.64351 
L 356.13554 24.563582 
L 43.51399 24.563582 
z
" style="fill:#e5e5e5;"/>
   </g>
   <g id="line2d_1">
    <path clip-path="url(#p6d179a2db3)" d="M 57.72406 162.44536 
L 62.460751 161.995611 
L 67.197441 161.545862 
L 71.934131 161.096113 
L 76.670821 160.646364 
L 81.407511 160.196615 
L 86.144201 159.746866 
L 90.880891 159.297117 
L 95.617582 158.847368 
L 100.354272 158.397619 
L 105.090962 157.94787 
L 109.827652 157.498121 
L 114.564342 157.048372 
L 119.301032 156.598623 
L 124.037722 156.148874 
L 128.774413 155.699125 
L 133.511103 155.249376 
L 138.247793 154.799627 
L 142.984483 154.349878 
L 147.721173 153.900129 
L 152.457863 153.45038 
L 157.194553 153.000631 
L 161.931244 152.550882 
L 166.667934 152.101133 
L 171.404624 151.651384 
L 176.141314 151.201635 
L 180.878004 150.751886 
L 185.614694 150.302137 
L 190.351385 149.852388 
L 195.088075 149.402639 
L 199.824765 148.95289 
L 204.561455 148.503141 
L 209.298145 148.053392 
L 214.034835 147.603643 
L 218.771525 147.153894 
L 223.508216 146.704145 
L 228.244906 146.254396 
L 232.981596 145.804647 
L 237.718286 145.354898 
L 242.454976 144.905149 
L 247.191666 144.4554 
L 251.928356 144.005651 
L 256.665047 143.555902 
L 261.401737 143.106153 
L 266.138427 142.656404 
L 270.875117 142.206655 
L 275.611807 141.756906 
L 280.348497 141.307157 
L 285.085187 140.857408 
L 289.821878 140.407659 
L 294.558568 139.95791 
L 299.295258 139.508161 
L 304.031948 139.058412 
L 308.768638 138.608663 
L 313.505328 138.158914 
L 318.242018 137.709165 
L 322.978709 137.259416 
L 327.715399 136.809667 
L 332.452089 136.359918 
L 337.188779 135.910169 
L 341.925469 135.46042 
" style="fill:none;stroke:#988ed5;stroke-linecap:square;stroke-opacity:0.25;stroke-width:3;"/>
   </g>
   <g id="line2d_2">
    <path clip-path="url(#p6d179a2db3)" d="M 119.301032 255.64351 
L 119.301032 24.563582 
" style="fill:none;stroke:#0000ff;stroke-dasharray:7.4,3.2;stroke-dashoffset:0;stroke-opacity:0.3;stroke-width:2;"/>
   </g>
   <g id="line2d_3">
    <path clip-path="url(#p6d179a2db3)" d="M 152.457863 255.64351 
L 152.457863 24.563582 
" style="fill:none;stroke:#0000ff;stroke-dasharray:7.4,3.2;stroke-dashoffset:0;stroke-opacity:0.3;stroke-width:2;"/>
   </g>
   <g id="matplotlib.axis_1">
    <g id="xtick_1">
     <g id="line2d_4">
      <path clip-path="url(#p6d179a2db3)" d="M 57.72406 255.64351 
L 57.72406 24.563582 
" style="fill:none;stroke:#ffffff;stroke-linecap:square;stroke-width:0.8;"/>
     </g>
     <g id="line2d_5">
      <defs>
       <path d="M 0 0 
L 0 3.5 
" id="m0da11f2903" style="stroke:#555555;stroke-width:0.8;"/>
      </defs>
      <g>
       <use style="fill:#555555;stroke:#555555;stroke-width:0.8;" x="57.72406" xlink:href="#m0da11f2903" y="255.64351"/>
      </g>
     </g>
     <g id="text_1">
      <!-- Mar -->
      <defs>
       <path d="M 9.8125 72.90625 
L 24.515625 72.90625 
L 43.109375 23.296875 
L 61.8125 72.90625 
L 76.515625 72.90625 
L 76.515625 0 
L 66.890625 0 
L 66.890625 64.015625 
L 48.09375 14.015625 
L 38.1875 14.015625 
L 19.390625 64.015625 
L 19.390625 0 
L 9.8125 0 
z
" id="BitstreamVeraSans-Roman-77"/>
       <path d="M 34.28125 27.484375 
Q 23.390625 27.484375 19.1875 25 
Q 14.984375 22.515625 14.984375 16.5 
Q 14.984375 11.71875 18.140625 8.90625 
Q 21.296875 6.109375 26.703125 6.109375 
Q 34.1875 6.109375 38.703125 11.40625 
Q 43.21875 16.703125 43.21875 25.484375 
L 43.21875 27.484375 
z
M 52.203125 31.203125 
L 52.203125 0 
L 43.21875 0 
L 43.21875 8.296875 
Q 40.140625 3.328125 35.546875 0.953125 
Q 30.953125 -1.421875 24.3125 -1.421875 
Q 15.921875 -1.421875 10.953125 3.296875 
Q 6 8.015625 6 15.921875 
Q 6 25.140625 12.171875 29.828125 
Q 18.359375 34.515625 30.609375 34.515625 
L 43.21875 34.515625 
L 43.21875 35.40625 
Q 43.21875 41.609375 39.140625 45 
Q 35.0625 48.390625 27.6875 48.390625 
Q 23 48.390625 18.546875 47.265625 
Q 14.109375 46.140625 10.015625 43.890625 
L 10.015625 52.203125 
Q 14.9375 54.109375 19.578125 55.046875 
Q 24.21875 56 28.609375 56 
Q 40.484375 56 46.34375 49.84375 
Q 52.203125 43.703125 52.203125 31.203125 
z
" id="BitstreamVeraSans-Roman-97"/>
       <path d="M 41.109375 46.296875 
Q 39.59375 47.171875 37.8125 47.578125 
Q 36.03125 48 33.890625 48 
Q 26.265625 48 22.1875 43.046875 
Q 18.109375 38.09375 18.109375 28.8125 
L 18.109375 0 
L 9.078125 0 
L 9.078125 54.6875 
L 18.109375 54.6875 
L 18.109375 46.1875 
Q 20.953125 51.171875 25.484375 53.578125 
Q 30.03125 56 36.53125 56 
Q 37.453125 56 38.578125 55.875 
Q 39.703125 55.765625 41.0625 55.515625 
z
" id="BitstreamVeraSans-Roman-114"/>
      </defs>
      <g style="fill:#555555;" transform="translate(48.290467 270.241947)scale(0.1 -0.1)">
       <use xlink:href="#BitstreamVeraSans-Roman-77"/>
       <use x="86.279297" xlink:href="#BitstreamVeraSans-Roman-97"/>
       <use x="147.558594" xlink:href="#BitstreamVeraSans-Roman-114"/>
      </g>
     </g>
    </g>
    <g id="xtick_2">
     <g id="line2d_6">
      <path clip-path="url(#p6d179a2db3)" d="M 90.880891 255.64351 
L 90.880891 24.563582 
" style="fill:none;stroke:#ffffff;stroke-linecap:square;stroke-width:0.8;"/>
     </g>
     <g id="line2d_7">
      <g>
       <use style="fill:#555555;stroke:#555555;stroke-width:0.8;" x="90.880891" xlink:href="#m0da11f2903" y="255.64351"/>
      </g>
     </g>
     <g id="text_2">
      <!-- 08 -->
      <defs>
       <path d="M 31.78125 66.40625 
Q 24.171875 66.40625 20.328125 58.90625 
Q 16.5 51.421875 16.5 36.375 
Q 16.5 21.390625 20.328125 13.890625 
Q 24.171875 6.390625 31.78125 6.390625 
Q 39.453125 6.390625 43.28125 13.890625 
Q 47.125 21.390625 47.125 36.375 
Q 47.125 51.421875 43.28125 58.90625 
Q 39.453125 66.40625 31.78125 66.40625 
z
M 31.78125 74.21875 
Q 44.046875 74.21875 50.515625 64.515625 
Q 56.984375 54.828125 56.984375 36.375 
Q 56.984375 17.96875 50.515625 8.265625 
Q 44.046875 -1.421875 31.78125 -1.421875 
Q 19.53125 -1.421875 13.0625 8.265625 
Q 6.59375 17.96875 6.59375 36.375 
Q 6.59375 54.828125 13.0625 64.515625 
Q 19.53125 74.21875 31.78125 74.21875 
z
" id="BitstreamVeraSans-Roman-48"/>
       <path d="M 31.78125 34.625 
Q 24.75 34.625 20.71875 30.859375 
Q 16.703125 27.09375 16.703125 20.515625 
Q 16.703125 13.921875 20.71875 10.15625 
Q 24.75 6.390625 31.78125 6.390625 
Q 38.8125 6.390625 42.859375 10.171875 
Q 46.921875 13.96875 46.921875 20.515625 
Q 46.921875 27.09375 42.890625 30.859375 
Q 38.875 34.625 31.78125 34.625 
z
M 21.921875 38.8125 
Q 15.578125 40.375 12.03125 44.71875 
Q 8.5 49.078125 8.5 55.328125 
Q 8.5 64.0625 14.71875 69.140625 
Q 20.953125 74.21875 31.78125 74.21875 
Q 42.671875 74.21875 48.875 69.140625 
Q 55.078125 64.0625 55.078125 55.328125 
Q 55.078125 49.078125 51.53125 44.71875 
Q 48 40.375 41.703125 38.8125 
Q 48.828125 37.15625 52.796875 32.3125 
Q 56.78125 27.484375 56.78125 20.515625 
Q 56.78125 9.90625 50.3125 4.234375 
Q 43.84375 -1.421875 31.78125 -1.421875 
Q 19.734375 -1.421875 13.25 4.234375 
Q 6.78125 9.90625 6.78125 20.515625 
Q 6.78125 27.484375 10.78125 32.3125 
Q 14.796875 37.15625 21.921875 38.8125 
z
M 18.3125 54.390625 
Q 18.3125 48.734375 21.84375 45.5625 
Q 25.390625 42.390625 31.78125 42.390625 
Q 38.140625 42.390625 41.71875 45.5625 
Q 45.3125 48.734375 45.3125 54.390625 
Q 45.3125 60.0625 41.71875 63.234375 
Q 38.140625 66.40625 31.78125 66.40625 
Q 25.390625 66.40625 21.84375 63.234375 
Q 18.3125 60.0625 18.3125 54.390625 
z
" id="BitstreamVeraSans-Roman-56"/>
      </defs>
      <g style="fill:#555555;" transform="translate(84.518391 270.241947)scale(0.1 -0.1)">
       <use xlink:href="#BitstreamVeraSans-Roman-48"/>
       <use x="63.623047" xlink:href="#BitstreamVeraSans-Roman-56"/>
      </g>
     </g>
    </g>
    <g id="xtick_3">
     <g id="line2d_8">
      <path clip-path="url(#p6d179a2db3)" d="M 124.037722 255.64351 
L 124.037722 24.563582 
" style="fill:none;stroke:#ffffff;stroke-linecap:square;stroke-width:0.8;"/>
     </g>
     <g id="line2d_9">
      <g>
       <use style="fill:#555555;stroke:#555555;stroke-width:0.8;" x="124.037722" xlink:href="#m0da11f2903" y="255.64351"/>
      </g>
     </g>
     <g id="text_3">
      <!-- 15 -->
      <defs>
       <path d="M 12.40625 8.296875 
L 28.515625 8.296875 
L 28.515625 63.921875 
L 10.984375 60.40625 
L 10.984375 69.390625 
L 28.421875 72.90625 
L 38.28125 72.90625 
L 38.28125 8.296875 
L 54.390625 8.296875 
L 54.390625 0 
L 12.40625 0 
z
" id="BitstreamVeraSans-Roman-49"/>
       <path d="M 10.796875 72.90625 
L 49.515625 72.90625 
L 49.515625 64.59375 
L 19.828125 64.59375 
L 19.828125 46.734375 
Q 21.96875 47.46875 24.109375 47.828125 
Q 26.265625 48.1875 28.421875 48.1875 
Q 40.625 48.1875 47.75 41.5 
Q 54.890625 34.8125 54.890625 23.390625 
Q 54.890625 11.625 47.5625 5.09375 
Q 40.234375 -1.421875 26.90625 -1.421875 
Q 22.3125 -1.421875 17.546875 -0.640625 
Q 12.796875 0.140625 7.71875 1.703125 
L 7.71875 11.625 
Q 12.109375 9.234375 16.796875 8.0625 
Q 21.484375 6.890625 26.703125 6.890625 
Q 35.15625 6.890625 40.078125 11.328125 
Q 45.015625 15.765625 45.015625 23.390625 
Q 45.015625 31 40.078125 35.4375 
Q 35.15625 39.890625 26.703125 39.890625 
Q 22.75 39.890625 18.8125 39.015625 
Q 14.890625 38.140625 10.796875 36.28125 
z
" id="BitstreamVeraSans-Roman-53"/>
      </defs>
      <g style="fill:#555555;" transform="translate(117.675222 270.241947)scale(0.1 -0.1)">
       <use xlink:href="#BitstreamVeraSans-Roman-49"/>
       <use x="63.623047" xlink:href="#BitstreamVeraSans-Roman-53"/>
      </g>
     </g>
    </g>
    <g id="xtick_4">
     <g id="line2d_10">
      <path clip-path="url(#p6d179a2db3)" d="M 157.194553 255.64351 
L 157.194553 24.563582 
" style="fill:none;stroke:#ffffff;stroke-linecap:square;stroke-width:0.8;"/>
     </g>
     <g id="line2d_11">
      <g>
       <use style="fill:#555555;stroke:#555555;stroke-width:0.8;" x="157.194553" xlink:href="#m0da11f2903" y="255.64351"/>
      </g>
     </g>
     <g id="text_4">
      <!-- 22 -->
      <defs>
       <path d="M 19.1875 8.296875 
L 53.609375 8.296875 
L 53.609375 0 
L 7.328125 0 
L 7.328125 8.296875 
Q 12.9375 14.109375 22.625 23.890625 
Q 32.328125 33.6875 34.8125 36.53125 
Q 39.546875 41.84375 41.421875 45.53125 
Q 43.3125 49.21875 43.3125 52.78125 
Q 43.3125 58.59375 39.234375 62.25 
Q 35.15625 65.921875 28.609375 65.921875 
Q 23.96875 65.921875 18.8125 64.3125 
Q 13.671875 62.703125 7.8125 59.421875 
L 7.8125 69.390625 
Q 13.765625 71.78125 18.9375 73 
Q 24.125 74.21875 28.421875 74.21875 
Q 39.75 74.21875 46.484375 68.546875 
Q 53.21875 62.890625 53.21875 53.421875 
Q 53.21875 48.921875 51.53125 44.890625 
Q 49.859375 40.875 45.40625 35.40625 
Q 44.1875 33.984375 37.640625 27.21875 
Q 31.109375 20.453125 19.1875 8.296875 
z
" id="BitstreamVeraSans-Roman-50"/>
      </defs>
      <g style="fill:#555555;" transform="translate(150.832053 270.241947)scale(0.1 -0.1)">
       <use xlink:href="#BitstreamVeraSans-Roman-50"/>
       <use x="63.623047" xlink:href="#BitstreamVeraSans-Roman-50"/>
      </g>
     </g>
    </g>
    <g id="xtick_5">
     <g id="line2d_12">
      <path clip-path="url(#p6d179a2db3)" d="M 204.561455 255.64351 
L 204.561455 24.563582 
" style="fill:none;stroke:#ffffff;stroke-linecap:square;stroke-width:0.8;"/>
     </g>
     <g id="line2d_13">
      <g>
       <use style="fill:#555555;stroke:#555555;stroke-width:0.8;" x="204.561455" xlink:href="#m0da11f2903" y="255.64351"/>
      </g>
     </g>
     <g id="text_5">
      <!-- Apr -->
      <defs>
       <path d="M 34.1875 63.1875 
L 20.796875 26.90625 
L 47.609375 26.90625 
z
M 28.609375 72.90625 
L 39.796875 72.90625 
L 67.578125 0 
L 57.328125 0 
L 50.6875 18.703125 
L 17.828125 18.703125 
L 11.1875 0 
L 0.78125 0 
z
" id="BitstreamVeraSans-Roman-65"/>
       <path d="M 18.109375 8.203125 
L 18.109375 -20.796875 
L 9.078125 -20.796875 
L 9.078125 54.6875 
L 18.109375 54.6875 
L 18.109375 46.390625 
Q 20.953125 51.265625 25.265625 53.625 
Q 29.59375 56 35.59375 56 
Q 45.5625 56 51.78125 48.09375 
Q 58.015625 40.1875 58.015625 27.296875 
Q 58.015625 14.40625 51.78125 6.484375 
Q 45.5625 -1.421875 35.59375 -1.421875 
Q 29.59375 -1.421875 25.265625 0.953125 
Q 20.953125 3.328125 18.109375 8.203125 
z
M 48.6875 27.296875 
Q 48.6875 37.203125 44.609375 42.84375 
Q 40.53125 48.484375 33.40625 48.484375 
Q 26.265625 48.484375 22.1875 42.84375 
Q 18.109375 37.203125 18.109375 27.296875 
Q 18.109375 17.390625 22.1875 11.75 
Q 26.265625 6.109375 33.40625 6.109375 
Q 40.53125 6.109375 44.609375 11.75 
Q 48.6875 17.390625 48.6875 27.296875 
z
" id="BitstreamVeraSans-Roman-112"/>
      </defs>
      <g style="fill:#555555;" transform="translate(195.911455 270.241947)scale(0.1 -0.1)">
       <use xlink:href="#BitstreamVeraSans-Roman-65"/>
       <use x="68.408203" xlink:href="#BitstreamVeraSans-Roman-112"/>
       <use x="131.884766" xlink:href="#BitstreamVeraSans-Roman-114"/>
      </g>
     </g>
    </g>
    <g id="xtick_6">
     <g id="line2d_14">
      <path clip-path="url(#p6d179a2db3)" d="M 237.718286 255.64351 
L 237.718286 24.563582 
" style="fill:none;stroke:#ffffff;stroke-linecap:square;stroke-width:0.8;"/>
     </g>
     <g id="line2d_15">
      <g>
       <use style="fill:#555555;stroke:#555555;stroke-width:0.8;" x="237.718286" xlink:href="#m0da11f2903" y="255.64351"/>
      </g>
     </g>
     <g id="text_6">
      <!-- 08 -->
      <g style="fill:#555555;" transform="translate(231.355786 270.241947)scale(0.1 -0.1)">
       <use xlink:href="#BitstreamVeraSans-Roman-48"/>
       <use x="63.623047" xlink:href="#BitstreamVeraSans-Roman-56"/>
      </g>
     </g>
    </g>
    <g id="xtick_7">
     <g id="line2d_16">
      <path clip-path="url(#p6d179a2db3)" d="M 270.875117 255.64351 
L 270.875117 24.563582 
" style="fill:none;stroke:#ffffff;stroke-linecap:square;stroke-width:0.8;"/>
     </g>
     <g id="line2d_17">
      <g>
       <use style="fill:#555555;stroke:#555555;stroke-width:0.8;" x="270.875117" xlink:href="#m0da11f2903" y="255.64351"/>
      </g>
     </g>
     <g id="text_7">
      <!-- 15 -->
      <g style="fill:#555555;" transform="translate(264.512617 270.241947)scale(0.1 -0.1)">
       <use xlink:href="#BitstreamVeraSans-Roman-49"/>
       <use x="63.623047" xlink:href="#BitstreamVeraSans-Roman-53"/>
      </g>
     </g>
    </g>
    <g id="xtick_8">
     <g id="line2d_18">
      <path clip-path="url(#p6d179a2db3)" d="M 304.031948 255.64351 
L 304.031948 24.563582 
" style="fill:none;stroke:#ffffff;stroke-linecap:square;stroke-width:0.8;"/>
     </g>
     <g id="line2d_19">
      <g>
       <use style="fill:#555555;stroke:#555555;stroke-width:0.8;" x="304.031948" xlink:href="#m0da11f2903" y="255.64351"/>
      </g>
     </g>
     <g id="text_8">
      <!-- 22 -->
      <g style="fill:#555555;" transform="translate(297.669448 270.241947)scale(0.1 -0.1)">
       <use xlink:href="#BitstreamVeraSans-Roman-50"/>
       <use x="63.623047" xlink:href="#BitstreamVeraSans-Roman-50"/>
      </g>
     </g>
    </g>
    <g id="xtick_9">
     <g id="line2d_20">
      <path clip-path="url(#p6d179a2db3)" d="M 346.662159 255.64351 
L 346.662159 24.563582 
" style="fill:none;stroke:#ffffff;stroke-linecap:square;stroke-width:0.8;"/>
     </g>
     <g id="line2d_21">
      <g>
       <use style="fill:#555555;stroke:#555555;stroke-width:0.8;" x="346.662159" xlink:href="#m0da11f2903" y="255.64351"/>
      </g>
     </g>
     <g id="text_9">
      <!-- May -->
      <defs>
       <path d="M 32.171875 -5.078125 
Q 28.375 -14.84375 24.75 -17.8125 
Q 21.140625 -20.796875 15.09375 -20.796875 
L 7.90625 -20.796875 
L 7.90625 -13.28125 
L 13.1875 -13.28125 
Q 16.890625 -13.28125 18.9375 -11.515625 
Q 21 -9.765625 23.484375 -3.21875 
L 25.09375 0.875 
L 2.984375 54.6875 
L 12.5 54.6875 
L 29.59375 11.921875 
L 46.6875 54.6875 
L 56.203125 54.6875 
z
" id="BitstreamVeraSans-Roman-121"/>
      </defs>
      <g style="fill:#555555;" transform="translate(336.324659 270.241947)scale(0.1 -0.1)">
       <use xlink:href="#BitstreamVeraSans-Roman-77"/>
       <use x="86.279297" xlink:href="#BitstreamVeraSans-Roman-97"/>
       <use x="147.558594" xlink:href="#BitstreamVeraSans-Roman-121"/>
      </g>
     </g>
    </g>
    <g id="text_10">
     <!-- 2020-May -->
     <defs>
      <path d="M 4.890625 31.390625 
L 31.203125 31.390625 
L 31.203125 23.390625 
L 4.890625 23.390625 
z
" id="BitstreamVeraSans-Roman-45"/>
     </defs>
     <g style="fill:#555555;" transform="translate(306.402727 282.920073)scale(0.1 -0.1)">
      <use xlink:href="#BitstreamVeraSans-Roman-50"/>
      <use x="63.623047" xlink:href="#BitstreamVeraSans-Roman-48"/>
      <use x="127.246094" xlink:href="#BitstreamVeraSans-Roman-50"/>
      <use x="190.869141" xlink:href="#BitstreamVeraSans-Roman-48"/>
      <use x="254.492188" xlink:href="#BitstreamVeraSans-Roman-45"/>
      <use x="290.576172" xlink:href="#BitstreamVeraSans-Roman-77"/>
      <use x="376.855469" xlink:href="#BitstreamVeraSans-Roman-97"/>
      <use x="438.134766" xlink:href="#BitstreamVeraSans-Roman-121"/>
     </g>
    </g>
   </g>
   <g id="matplotlib.axis_2">
    <g id="ytick_1">
     <g id="line2d_22">
      <path clip-path="url(#p6d179a2db3)" d="M 43.51399 255.64351 
L 356.13554 255.64351 
" style="fill:none;stroke:#ffffff;stroke-linecap:square;stroke-width:0.8;"/>
     </g>
     <g id="line2d_23">
      <defs>
       <path d="M 0 0 
L -3.5 0 
" id="m32aeb798bd" style="stroke:#555555;stroke-width:0.8;"/>
      </defs>
      <g>
       <use style="fill:#555555;stroke:#555555;stroke-width:0.8;" x="43.51399" xlink:href="#m32aeb798bd" y="255.64351"/>
      </g>
     </g>
     <g id="text_11">
      <!-- $\mathdefault{10^{0}}$ -->
      <g style="fill:#555555;" transform="translate(18.61399 261.003666)scale(0.1 -0.1)">
       <use transform="translate(0 0.546875)" xlink:href="#BitstreamVeraSans-Roman-49"/>
       <use transform="translate(63.623047 0.546875)" xlink:href="#BitstreamVeraSans-Roman-48"/>
       <use transform="translate(129.083594 74.046875)scale(0.7)" xlink:href="#BitstreamVeraSans-Roman-48"/>
      </g>
     </g>
    </g>
    <g id="ytick_2">
     <g id="line2d_24">
      <path clip-path="url(#p6d179a2db3)" d="M 43.51399 197.873528 
L 356.13554 197.873528 
" style="fill:none;stroke:#ffffff;stroke-linecap:square;stroke-width:0.8;"/>
     </g>
     <g id="line2d_25">
      <g>
       <use style="fill:#555555;stroke:#555555;stroke-width:0.8;" x="43.51399" xlink:href="#m32aeb798bd" y="197.873528"/>
      </g>
     </g>
     <g id="text_12">
      <!-- $\mathdefault{10^{1}}$ -->
      <g style="fill:#555555;" transform="translate(18.61399 203.183684)scale(0.1 -0.1)">
       <use transform="translate(0 0.465625)" xlink:href="#BitstreamVeraSans-Roman-49"/>
       <use transform="translate(63.623047 0.465625)" xlink:href="#BitstreamVeraSans-Roman-48"/>
       <use transform="translate(129.083594 73.965625)scale(0.7)" xlink:href="#BitstreamVeraSans-Roman-49"/>
      </g>
     </g>
    </g>
    <g id="ytick_3">
     <g id="line2d_26">
      <path clip-path="url(#p6d179a2db3)" d="M 43.51399 140.103546 
L 356.13554 140.103546 
" style="fill:none;stroke:#ffffff;stroke-linecap:square;stroke-width:0.8;"/>
     </g>
     <g id="line2d_27">
      <g>
       <use style="fill:#555555;stroke:#555555;stroke-width:0.8;" x="43.51399" xlink:href="#m32aeb798bd" y="140.103546"/>
      </g>
     </g>
     <g id="text_13">
      <!-- $\mathdefault{10^{2}}$ -->
      <g style="fill:#555555;" transform="translate(18.61399 145.463702)scale(0.1 -0.1)">
       <use transform="translate(0 0.546875)" xlink:href="#BitstreamVeraSans-Roman-49"/>
       <use transform="translate(63.623047 0.546875)" xlink:href="#BitstreamVeraSans-Roman-48"/>
       <use transform="translate(129.083594 74.046875)scale(0.7)" xlink:href="#BitstreamVeraSans-Roman-50"/>
      </g>
     </g>
    </g>
    <g id="ytick_4">
     <g id="line2d_28">
      <path clip-path="url(#p6d179a2db3)" d="M 43.51399 82.333564 
L 356.13554 82.333564 
" style="fill:none;stroke:#ffffff;stroke-linecap:square;stroke-width:0.8;"/>
     </g>
     <g id="line2d_29">
      <g>
       <use style="fill:#555555;stroke:#555555;stroke-width:0.8;" x="43.51399" xlink:href="#m32aeb798bd" y="82.333564"/>
      </g>
     </g>
     <g id="text_14">
      <!-- $\mathdefault{10^{3}}$ -->
      <defs>
       <path d="M 40.578125 39.3125 
Q 47.65625 37.796875 51.625 33 
Q 55.609375 28.21875 55.609375 21.1875 
Q 55.609375 10.40625 48.1875 4.484375 
Q 40.765625 -1.421875 27.09375 -1.421875 
Q 22.515625 -1.421875 17.65625 -0.515625 
Q 12.796875 0.390625 7.625 2.203125 
L 7.625 11.71875 
Q 11.71875 9.328125 16.59375 8.109375 
Q 21.484375 6.890625 26.8125 6.890625 
Q 36.078125 6.890625 40.9375 10.546875 
Q 45.796875 14.203125 45.796875 21.1875 
Q 45.796875 27.640625 41.28125 31.265625 
Q 36.765625 34.90625 28.71875 34.90625 
L 20.21875 34.90625 
L 20.21875 43.015625 
L 29.109375 43.015625 
Q 36.375 43.015625 40.234375 45.921875 
Q 44.09375 48.828125 44.09375 54.296875 
Q 44.09375 59.90625 40.109375 62.90625 
Q 36.140625 65.921875 28.71875 65.921875 
Q 24.65625 65.921875 20.015625 65.03125 
Q 15.375 64.15625 9.8125 62.3125 
L 9.8125 71.09375 
Q 15.4375 72.65625 20.34375 73.4375 
Q 25.25 74.21875 29.59375 74.21875 
Q 40.828125 74.21875 47.359375 69.109375 
Q 53.90625 64.015625 53.90625 55.328125 
Q 53.90625 49.265625 50.4375 45.09375 
Q 46.96875 40.921875 40.578125 39.3125 
z
" id="BitstreamVeraSans-Roman-51"/>
      </defs>
      <g style="fill:#555555;" transform="translate(18.61399 87.69372)scale(0.1 -0.1)">
       <use transform="translate(0 0.546875)" xlink:href="#BitstreamVeraSans-Roman-49"/>
       <use transform="translate(63.623047 0.546875)" xlink:href="#BitstreamVeraSans-Roman-48"/>
       <use transform="translate(129.083594 74.046875)scale(0.7)" xlink:href="#BitstreamVeraSans-Roman-51"/>
      </g>
     </g>
    </g>
    <g id="ytick_5">
     <g id="line2d_30">
      <path clip-path="url(#p6d179a2db3)" d="M 43.51399 24.563582 
L 356.13554 24.563582 
" style="fill:none;stroke:#ffffff;stroke-linecap:square;stroke-width:0.8;"/>
     </g>
     <g id="line2d_31">
      <g>
       <use style="fill:#555555;stroke:#555555;stroke-width:0.8;" x="43.51399" xlink:href="#m32aeb798bd" y="24.563582"/>
      </g>
     </g>
     <g id="text_15">
      <!-- $\mathdefault{10^{4}}$ -->
      <defs>
       <path d="M 37.796875 64.3125 
L 12.890625 25.390625 
L 37.796875 25.390625 
z
M 35.203125 72.90625 
L 47.609375 72.90625 
L 47.609375 25.390625 
L 58.015625 25.390625 
L 58.015625 17.1875 
L 47.609375 17.1875 
L 47.609375 0 
L 37.796875 0 
L 37.796875 17.1875 
L 4.890625 17.1875 
L 4.890625 26.703125 
z
" id="BitstreamVeraSans-Roman-52"/>
      </defs>
      <g style="fill:#555555;" transform="translate(18.61399 29.873738)scale(0.1 -0.1)">
       <use transform="translate(0 0.465625)" xlink:href="#BitstreamVeraSans-Roman-49"/>
       <use transform="translate(63.623047 0.465625)" xlink:href="#BitstreamVeraSans-Roman-48"/>
       <use transform="translate(129.083594 73.965625)scale(0.7)" xlink:href="#BitstreamVeraSans-Roman-52"/>
      </g>
     </g>
    </g>
    <g id="ytick_6">
     <g id="line2d_32">
      <defs>
       <path d="M 0 0 
L -2 0 
" id="m0cd9fe5bf7" style="stroke:#555555;stroke-width:0.6;"/>
      </defs>
      <g>
       <use style="fill:#555555;stroke:#555555;stroke-width:0.6;" x="43.51399" xlink:href="#m0cd9fe5bf7" y="238.253013"/>
      </g>
     </g>
    </g>
    <g id="ytick_7">
     <g id="line2d_33">
      <g>
       <use style="fill:#555555;stroke:#555555;stroke-width:0.6;" x="43.51399" xlink:href="#m0cd9fe5bf7" y="228.080224"/>
      </g>
     </g>
    </g>
    <g id="ytick_8">
     <g id="line2d_34">
      <g>
       <use style="fill:#555555;stroke:#555555;stroke-width:0.6;" x="43.51399" xlink:href="#m0cd9fe5bf7" y="220.862515"/>
      </g>
     </g>
    </g>
    <g id="ytick_9">
     <g id="line2d_35">
      <g>
       <use style="fill:#555555;stroke:#555555;stroke-width:0.6;" x="43.51399" xlink:href="#m0cd9fe5bf7" y="215.264025"/>
      </g>
     </g>
    </g>
    <g id="ytick_10">
     <g id="line2d_36">
      <g>
       <use style="fill:#555555;stroke:#555555;stroke-width:0.6;" x="43.51399" xlink:href="#m0cd9fe5bf7" y="210.689726"/>
      </g>
     </g>
    </g>
    <g id="ytick_11">
     <g id="line2d_37">
      <g>
       <use style="fill:#555555;stroke:#555555;stroke-width:0.6;" x="43.51399" xlink:href="#m0cd9fe5bf7" y="206.822211"/>
      </g>
     </g>
    </g>
    <g id="ytick_12">
     <g id="line2d_38">
      <g>
       <use style="fill:#555555;stroke:#555555;stroke-width:0.6;" x="43.51399" xlink:href="#m0cd9fe5bf7" y="203.472018"/>
      </g>
     </g>
    </g>
    <g id="ytick_13">
     <g id="line2d_39">
      <g>
       <use style="fill:#555555;stroke:#555555;stroke-width:0.6;" x="43.51399" xlink:href="#m0cd9fe5bf7" y="200.516937"/>
      </g>
     </g>
    </g>
    <g id="ytick_14">
     <g id="line2d_40">
      <g>
       <use style="fill:#555555;stroke:#555555;stroke-width:0.6;" x="43.51399" xlink:href="#m0cd9fe5bf7" y="180.483031"/>
      </g>
     </g>
    </g>
    <g id="ytick_15">
     <g id="line2d_41">
      <g>
       <use style="fill:#555555;stroke:#555555;stroke-width:0.6;" x="43.51399" xlink:href="#m0cd9fe5bf7" y="170.310242"/>
      </g>
     </g>
    </g>
    <g id="ytick_16">
     <g id="line2d_42">
      <g>
       <use style="fill:#555555;stroke:#555555;stroke-width:0.6;" x="43.51399" xlink:href="#m0cd9fe5bf7" y="163.092533"/>
      </g>
     </g>
    </g>
    <g id="ytick_17">
     <g id="line2d_43">
      <g>
       <use style="fill:#555555;stroke:#555555;stroke-width:0.6;" x="43.51399" xlink:href="#m0cd9fe5bf7" y="157.494043"/>
      </g>
     </g>
    </g>
    <g id="ytick_18">
     <g id="line2d_44">
      <g>
       <use style="fill:#555555;stroke:#555555;stroke-width:0.6;" x="43.51399" xlink:href="#m0cd9fe5bf7" y="152.919744"/>
      </g>
     </g>
    </g>
    <g id="ytick_19">
     <g id="line2d_45">
      <g>
       <use style="fill:#555555;stroke:#555555;stroke-width:0.6;" x="43.51399" xlink:href="#m0cd9fe5bf7" y="149.052229"/>
      </g>
     </g>
    </g>
    <g id="ytick_20">
     <g id="line2d_46">
      <g>
       <use style="fill:#555555;stroke:#555555;stroke-width:0.6;" x="43.51399" xlink:href="#m0cd9fe5bf7" y="145.702036"/>
      </g>
     </g>
    </g>
    <g id="ytick_21">
     <g id="line2d_47">
      <g>
       <use style="fill:#555555;stroke:#555555;stroke-width:0.6;" x="43.51399" xlink:href="#m0cd9fe5bf7" y="142.746955"/>
      </g>
     </g>
    </g>
    <g id="ytick_22">
     <g id="line2d_48">
      <g>
       <use style="fill:#555555;stroke:#555555;stroke-width:0.6;" x="43.51399" xlink:href="#m0cd9fe5bf7" y="122.713049"/>
      </g>
     </g>
    </g>
    <g id="ytick_23">
     <g id="line2d_49">
      <g>
       <use style="fill:#555555;stroke:#555555;stroke-width:0.6;" x="43.51399" xlink:href="#m0cd9fe5bf7" y="112.54026"/>
      </g>
     </g>
    </g>
    <g id="ytick_24">
     <g id="line2d_50">
      <g>
       <use style="fill:#555555;stroke:#555555;stroke-width:0.6;" x="43.51399" xlink:href="#m0cd9fe5bf7" y="105.322551"/>
      </g>
     </g>
    </g>
    <g id="ytick_25">
     <g id="line2d_51">
      <g>
       <use style="fill:#555555;stroke:#555555;stroke-width:0.6;" x="43.51399" xlink:href="#m0cd9fe5bf7" y="99.724061"/>
      </g>
     </g>
    </g>
    <g id="ytick_26">
     <g id="line2d_52">
      <g>
       <use style="fill:#555555;stroke:#555555;stroke-width:0.6;" x="43.51399" xlink:href="#m0cd9fe5bf7" y="95.149762"/>
      </g>
     </g>
    </g>
    <g id="ytick_27">
     <g id="line2d_53">
      <g>
       <use style="fill:#555555;stroke:#555555;stroke-width:0.6;" x="43.51399" xlink:href="#m0cd9fe5bf7" y="91.282247"/>
      </g>
     </g>
    </g>
    <g id="ytick_28">
     <g id="line2d_54">
      <g>
       <use style="fill:#555555;stroke:#555555;stroke-width:0.6;" x="43.51399" xlink:href="#m0cd9fe5bf7" y="87.932054"/>
      </g>
     </g>
    </g>
    <g id="ytick_29">
     <g id="line2d_55">
      <g>
       <use style="fill:#555555;stroke:#555555;stroke-width:0.6;" x="43.51399" xlink:href="#m0cd9fe5bf7" y="84.976973"/>
      </g>
     </g>
    </g>
    <g id="ytick_30">
     <g id="line2d_56">
      <g>
       <use style="fill:#555555;stroke:#555555;stroke-width:0.6;" x="43.51399" xlink:href="#m0cd9fe5bf7" y="64.943067"/>
      </g>
     </g>
    </g>
    <g id="ytick_31">
     <g id="line2d_57">
      <g>
       <use style="fill:#555555;stroke:#555555;stroke-width:0.6;" x="43.51399" xlink:href="#m0cd9fe5bf7" y="54.770278"/>
      </g>
     </g>
    </g>
    <g id="ytick_32">
     <g id="line2d_58">
      <g>
       <use style="fill:#555555;stroke:#555555;stroke-width:0.6;" x="43.51399" xlink:href="#m0cd9fe5bf7" y="47.552569"/>
      </g>
     </g>
    </g>
    <g id="ytick_33">
     <g id="line2d_59">
      <g>
       <use style="fill:#555555;stroke:#555555;stroke-width:0.6;" x="43.51399" xlink:href="#m0cd9fe5bf7" y="41.954079"/>
      </g>
     </g>
    </g>
    <g id="ytick_34">
     <g id="line2d_60">
      <g>
       <use style="fill:#555555;stroke:#555555;stroke-width:0.6;" x="43.51399" xlink:href="#m0cd9fe5bf7" y="37.37978"/>
      </g>
     </g>
    </g>
    <g id="ytick_35">
     <g id="line2d_61">
      <g>
       <use style="fill:#555555;stroke:#555555;stroke-width:0.6;" x="43.51399" xlink:href="#m0cd9fe5bf7" y="33.512265"/>
      </g>
     </g>
    </g>
    <g id="ytick_36">
     <g id="line2d_62">
      <g>
       <use style="fill:#555555;stroke:#555555;stroke-width:0.6;" x="43.51399" xlink:href="#m0cd9fe5bf7" y="30.162072"/>
      </g>
     </g>
    </g>
    <g id="ytick_37">
     <g id="line2d_63">
      <g>
       <use style="fill:#555555;stroke:#555555;stroke-width:0.6;" x="43.51399" xlink:href="#m0cd9fe5bf7" y="27.206991"/>
      </g>
     </g>
    </g>
    <g id="text_16">
     <!-- Cases -->
     <defs>
      <path d="M 64.40625 67.28125 
L 64.40625 56.890625 
Q 59.421875 61.53125 53.78125 63.8125 
Q 48.140625 66.109375 41.796875 66.109375 
Q 29.296875 66.109375 22.65625 58.46875 
Q 16.015625 50.828125 16.015625 36.375 
Q 16.015625 21.96875 22.65625 14.328125 
Q 29.296875 6.6875 41.796875 6.6875 
Q 48.140625 6.6875 53.78125 8.984375 
Q 59.421875 11.28125 64.40625 15.921875 
L 64.40625 5.609375 
Q 59.234375 2.09375 53.4375 0.328125 
Q 47.65625 -1.421875 41.21875 -1.421875 
Q 24.65625 -1.421875 15.125 8.703125 
Q 5.609375 18.84375 5.609375 36.375 
Q 5.609375 53.953125 15.125 64.078125 
Q 24.65625 74.21875 41.21875 74.21875 
Q 47.75 74.21875 53.53125 72.484375 
Q 59.328125 70.75 64.40625 67.28125 
z
" id="BitstreamVeraSans-Roman-67"/>
      <path d="M 44.28125 53.078125 
L 44.28125 44.578125 
Q 40.484375 46.53125 36.375 47.5 
Q 32.28125 48.484375 27.875 48.484375 
Q 21.1875 48.484375 17.84375 46.4375 
Q 14.5 44.390625 14.5 40.28125 
Q 14.5 37.15625 16.890625 35.375 
Q 19.28125 33.59375 26.515625 31.984375 
L 29.59375 31.296875 
Q 39.15625 29.25 43.1875 25.515625 
Q 47.21875 21.78125 47.21875 15.09375 
Q 47.21875 7.46875 41.1875 3.015625 
Q 35.15625 -1.421875 24.609375 -1.421875 
Q 20.21875 -1.421875 15.453125 -0.5625 
Q 10.6875 0.296875 5.421875 2 
L 5.421875 11.28125 
Q 10.40625 8.6875 15.234375 7.390625 
Q 20.0625 6.109375 24.8125 6.109375 
Q 31.15625 6.109375 34.5625 8.28125 
Q 37.984375 10.453125 37.984375 14.40625 
Q 37.984375 18.0625 35.515625 20.015625 
Q 33.0625 21.96875 24.703125 23.78125 
L 21.578125 24.515625 
Q 13.234375 26.265625 9.515625 29.90625 
Q 5.8125 33.546875 5.8125 39.890625 
Q 5.8125 47.609375 11.28125 51.796875 
Q 16.75 56 26.8125 56 
Q 31.78125 56 36.171875 55.265625 
Q 40.578125 54.546875 44.28125 53.078125 
z
" id="BitstreamVeraSans-Roman-115"/>
      <path d="M 56.203125 29.59375 
L 56.203125 25.203125 
L 14.890625 25.203125 
Q 15.484375 15.921875 20.484375 11.0625 
Q 25.484375 6.203125 34.421875 6.203125 
Q 39.59375 6.203125 44.453125 7.46875 
Q 49.3125 8.734375 54.109375 11.28125 
L 54.109375 2.78125 
Q 49.265625 0.734375 44.1875 -0.34375 
Q 39.109375 -1.421875 33.890625 -1.421875 
Q 20.796875 -1.421875 13.15625 6.1875 
Q 5.515625 13.8125 5.515625 26.8125 
Q 5.515625 40.234375 12.765625 48.109375 
Q 20.015625 56 32.328125 56 
Q 43.359375 56 49.78125 48.890625 
Q 56.203125 41.796875 56.203125 29.59375 
z
M 47.21875 32.234375 
Q 47.125 39.59375 43.09375 43.984375 
Q 39.0625 48.390625 32.421875 48.390625 
Q 24.90625 48.390625 20.390625 44.140625 
Q 15.875 39.890625 15.1875 32.171875 
z
" id="BitstreamVeraSans-Roman-101"/>
     </defs>
     <g style="fill:#555555;" transform="translate(12.118365 157.913234)rotate(-90)scale(0.12 -0.12)">
      <use xlink:href="#BitstreamVeraSans-Roman-67"/>
      <use x="69.824219" xlink:href="#BitstreamVeraSans-Roman-97"/>
      <use x="131.103516" xlink:href="#BitstreamVeraSans-Roman-115"/>
      <use x="183.203125" xlink:href="#BitstreamVeraSans-Roman-101"/>
      <use x="244.726562" xlink:href="#BitstreamVeraSans-Roman-115"/>
     </g>
    </g>
   </g>
   <g id="line2d_64">
    <defs>
     <path d="M 0 1.5 
C 0.397805 1.5 0.77937 1.341951 1.06066 1.06066 
C 1.341951 0.77937 1.5 0.397805 1.5 0 
C 1.5 -0.397805 1.341951 -0.77937 1.06066 -1.06066 
C 0.77937 -1.341951 0.397805 -1.5 0 -1.5 
C -0.397805 -1.5 -0.77937 -1.341951 -1.06066 -1.06066 
C -1.341951 -0.77937 -1.5 -0.397805 -1.5 0 
C -1.5 0.397805 -1.341951 0.77937 -1.06066 1.06066 
C -0.77937 1.341951 -0.397805 1.5 0 1.5 
z
" id="mbbcf284faf" style="stroke:#8eba42;stroke-opacity:0.5;"/>
    </defs>
    <g clip-path="url(#p6d179a2db3)">
     <use style="fill:#8eba42;fill-opacity:0.5;stroke:#8eba42;stroke-opacity:0.5;" x="161.931244" xlink:href="#mbbcf284faf" y="220.862515"/>
     <use style="fill:#8eba42;fill-opacity:0.5;stroke:#8eba42;stroke-opacity:0.5;" x="166.667934" xlink:href="#mbbcf284faf" y="220.862515"/>
     <use style="fill:#8eba42;fill-opacity:0.5;stroke:#8eba42;stroke-opacity:0.5;" x="171.404624" xlink:href="#mbbcf284faf" y="215.264025"/>
     <use style="fill:#8eba42;fill-opacity:0.5;stroke:#8eba42;stroke-opacity:0.5;" x="176.141314" xlink:href="#mbbcf284faf" y="215.264025"/>
     <use style="fill:#8eba42;fill-opacity:0.5;stroke:#8eba42;stroke-opacity:0.5;" x="180.878004" xlink:href="#mbbcf284faf" y="203.472018"/>
     <use style="fill:#8eba42;fill-opacity:0.5;stroke:#8eba42;stroke-opacity:0.5;" x="195.088075" xlink:href="#mbbcf284faf" y="200.516937"/>
     <use style="fill:#8eba42;fill-opacity:0.5;stroke:#8eba42;stroke-opacity:0.5;" x="199.824765" xlink:href="#mbbcf284faf" y="200.516937"/>
     <use style="fill:#8eba42;fill-opacity:0.5;stroke:#8eba42;stroke-opacity:0.5;" x="204.561455" xlink:href="#mbbcf284faf" y="195.482273"/>
     <use style="fill:#8eba42;fill-opacity:0.5;stroke:#8eba42;stroke-opacity:0.5;" x="209.298145" xlink:href="#mbbcf284faf" y="195.482273"/>
     <use style="fill:#8eba42;fill-opacity:0.5;stroke:#8eba42;stroke-opacity:0.5;" x="214.034835" xlink:href="#mbbcf284faf" y="189.431714"/>
     <use style="fill:#8eba42;fill-opacity:0.5;stroke:#8eba42;stroke-opacity:0.5;" x="228.244906" xlink:href="#mbbcf284faf" y="183.12644"/>
     <use style="fill:#8eba42;fill-opacity:0.5;stroke:#8eba42;stroke-opacity:0.5;" x="232.981596" xlink:href="#mbbcf284faf" y="183.12644"/>
    </g>
   </g>
   <g id="line2d_65">
    <defs>
     <path d="M 0 1.5 
C 0.397805 1.5 0.77937 1.341951 1.06066 1.06066 
C 1.341951 0.77937 1.5 0.397805 1.5 0 
C 1.5 -0.397805 1.341951 -0.77937 1.06066 -1.06066 
C 0.77937 -1.341951 0.397805 -1.5 0 -1.5 
C -0.397805 -1.5 -0.77937 -1.341951 -1.06066 -1.06066 
C -1.341951 -0.77937 -1.5 -0.397805 -1.5 0 
C -1.5 0.397805 -1.341951 0.77937 -1.06066 1.06066 
C -0.77937 1.341951 -0.397805 1.5 0 1.5 
z
" id="m0b579371fa" style="stroke:#777777;stroke-opacity:0.5;"/>
    </defs>
    <g clip-path="url(#p6d179a2db3)">
     <use style="fill:#777777;fill-opacity:0.5;stroke:#777777;stroke-opacity:0.5;" x="161.931244" xlink:href="#m0b579371fa" y="238.253013"/>
     <use style="fill:#777777;fill-opacity:0.5;stroke:#777777;stroke-opacity:0.5;" x="166.667934" xlink:href="#m0b579371fa" y="238.253013"/>
     <use style="fill:#777777;fill-opacity:0.5;stroke:#777777;stroke-opacity:0.5;" x="171.404624" xlink:href="#m0b579371fa" y="228.080224"/>
     <use style="fill:#777777;fill-opacity:0.5;stroke:#777777;stroke-opacity:0.5;" x="176.141314" xlink:href="#m0b579371fa" y="228.080224"/>
     <use style="fill:#777777;fill-opacity:0.5;stroke:#777777;stroke-opacity:0.5;" x="180.878004" xlink:href="#m0b579371fa" y="228.080224"/>
     <use style="fill:#777777;fill-opacity:0.5;stroke:#777777;stroke-opacity:0.5;" x="214.034835" xlink:href="#m0b579371fa" y="215.264025"/>
     <use style="fill:#777777;fill-opacity:0.5;stroke:#777777;stroke-opacity:0.5;" x="228.244906" xlink:href="#m0b579371fa" y="220.862515"/>
     <use style="fill:#777777;fill-opacity:0.5;stroke:#777777;stroke-opacity:0.5;" x="232.981596" xlink:href="#m0b579371fa" y="228.080224"/>
    </g>
   </g>
   <g id="line2d_66">
    <path clip-path="url(#p6d179a2db3)" d="M 133.511103 193.299229 
L 138.247793 186.08152 
L 142.984483 178.091776 
L 147.721173 170.310242 
L 152.457863 165.048525 
L 161.931244 163.727736 
L 166.667934 160.701278 
L 171.404624 159.046447 
L 176.141314 156.510028 
L 180.878004 154.206651 
L 185.614694 152.919744 
L 195.088075 150.151202 
L 199.824765 150.151202 
L 204.561455 148.345445 
L 209.298145 148.345445 
L 214.034835 147.658027 
L 218.771525 146.988943 
L 228.244906 146.017627 
L 232.981596 146.017627 
" style="fill:none;stroke:#988ed5;stroke-linecap:square;stroke-opacity:0.5;stroke-width:1.5;"/>
   </g>
   <g id="line2d_67">
    <defs>
     <path d="M 0 1.5 
C 0.397805 1.5 0.77937 1.341951 1.06066 1.06066 
C 1.341951 0.77937 1.5 0.397805 1.5 0 
C 1.5 -0.397805 1.341951 -0.77937 1.06066 -1.06066 
C 0.77937 -1.341951 0.397805 -1.5 0 -1.5 
C -0.397805 -1.5 -0.77937 -1.341951 -1.06066 -1.06066 
C -1.341951 -0.77937 -1.5 -0.397805 -1.5 0 
C -1.5 0.397805 -1.341951 0.77937 -1.06066 1.06066 
C -0.77937 1.341951 -0.397805 1.5 0 1.5 
z
" id="m0b2d87c05c" style="stroke:#988ed5;"/>
    </defs>
    <g clip-path="url(#p6d179a2db3)">
     <use style="fill:#988ed5;stroke:#988ed5;" x="133.511103" xlink:href="#m0b2d87c05c" y="193.299229"/>
     <use style="fill:#988ed5;stroke:#988ed5;" x="138.247793" xlink:href="#m0b2d87c05c" y="186.08152"/>
     <use style="fill:#988ed5;stroke:#988ed5;" x="142.984483" xlink:href="#m0b2d87c05c" y="178.091776"/>
     <use style="fill:#988ed5;stroke:#988ed5;" x="147.721173" xlink:href="#m0b2d87c05c" y="170.310242"/>
     <use style="fill:#988ed5;stroke:#988ed5;" x="152.457863" xlink:href="#m0b2d87c05c" y="165.048525"/>
     <use style="fill:#988ed5;stroke:#988ed5;" x="161.931244" xlink:href="#m0b2d87c05c" y="163.727736"/>
     <use style="fill:#988ed5;stroke:#988ed5;" x="166.667934" xlink:href="#m0b2d87c05c" y="160.701278"/>
     <use style="fill:#988ed5;stroke:#988ed5;" x="171.404624" xlink:href="#m0b2d87c05c" y="159.046447"/>
     <use style="fill:#988ed5;stroke:#988ed5;" x="176.141314" xlink:href="#m0b2d87c05c" y="156.510028"/>
     <use style="fill:#988ed5;stroke:#988ed5;" x="180.878004" xlink:href="#m0b2d87c05c" y="154.206651"/>
     <use style="fill:#988ed5;stroke:#988ed5;" x="185.614694" xlink:href="#m0b2d87c05c" y="152.919744"/>
     <use style="fill:#988ed5;stroke:#988ed5;" x="195.088075" xlink:href="#m0b2d87c05c" y="150.151202"/>
     <use style="fill:#988ed5;stroke:#988ed5;" x="199.824765" xlink:href="#m0b2d87c05c" y="150.151202"/>
     <use style="fill:#988ed5;stroke:#988ed5;" x="204.561455" xlink:href="#m0b2d87c05c" y="148.345445"/>
     <use style="fill:#988ed5;stroke:#988ed5;" x="209.298145" xlink:href="#m0b2d87c05c" y="148.345445"/>
     <use style="fill:#988ed5;stroke:#988ed5;" x="214.034835" xlink:href="#m0b2d87c05c" y="147.658027"/>
     <use style="fill:#988ed5;stroke:#988ed5;" x="218.771525" xlink:href="#m0b2d87c05c" y="146.988943"/>
     <use style="fill:#988ed5;stroke:#988ed5;" x="228.244906" xlink:href="#m0b2d87c05c" y="146.017627"/>
     <use style="fill:#988ed5;stroke:#988ed5;" x="232.981596" xlink:href="#m0b2d87c05c" y="146.017627"/>
    </g>
   </g>
   <g id="line2d_68">
    <path clip-path="url(#p6d179a2db3)" d="M 161.931244 163.727736 
L 166.667934 160.701278 
L 171.404624 162.473016 
L 176.141314 160.701278 
L 180.878004 158.000913 
L 195.088075 161.278067 
L 199.824765 162.473016 
L 204.561455 160.137453 
L 209.298145 162.473016 
L 214.034835 162.473016 
L 228.244906 161.278067 
L 232.981596 161.868428 
" style="fill:none;stroke:#e24a33;stroke-linecap:square;stroke-opacity:0.5;stroke-width:1.5;"/>
   </g>
   <g id="line2d_69">
    <defs>
     <path d="M 0 1.5 
C 0.397805 1.5 0.77937 1.341951 1.06066 1.06066 
C 1.341951 0.77937 1.5 0.397805 1.5 0 
C 1.5 -0.397805 1.341951 -0.77937 1.06066 -1.06066 
C 0.77937 -1.341951 0.397805 -1.5 0 -1.5 
C -0.397805 -1.5 -0.77937 -1.341951 -1.06066 -1.06066 
C -1.341951 -0.77937 -1.5 -0.397805 -1.5 0 
C -1.5 0.397805 -1.341951 0.77937 -1.06066 1.06066 
C -0.77937 1.341951 -0.397805 1.5 0 1.5 
z
" id="mf67bd04d93" style="stroke:#e24a33;"/>
    </defs>
    <g clip-path="url(#p6d179a2db3)">
     <use style="fill:#e24a33;stroke:#e24a33;" x="161.931244" xlink:href="#mf67bd04d93" y="163.727736"/>
     <use style="fill:#e24a33;stroke:#e24a33;" x="166.667934" xlink:href="#mf67bd04d93" y="160.701278"/>
     <use style="fill:#e24a33;stroke:#e24a33;" x="171.404624" xlink:href="#mf67bd04d93" y="162.473016"/>
     <use style="fill:#e24a33;stroke:#e24a33;" x="176.141314" xlink:href="#mf67bd04d93" y="160.701278"/>
     <use style="fill:#e24a33;stroke:#e24a33;" x="180.878004" xlink:href="#mf67bd04d93" y="158.000913"/>
     <use style="fill:#e24a33;stroke:#e24a33;" x="195.088075" xlink:href="#mf67bd04d93" y="161.278067"/>
     <use style="fill:#e24a33;stroke:#e24a33;" x="199.824765" xlink:href="#mf67bd04d93" y="162.473016"/>
     <use style="fill:#e24a33;stroke:#e24a33;" x="204.561455" xlink:href="#mf67bd04d93" y="160.137453"/>
     <use style="fill:#e24a33;stroke:#e24a33;" x="209.298145" xlink:href="#mf67bd04d93" y="162.473016"/>
     <use style="fill:#e24a33;stroke:#e24a33;" x="214.034835" xlink:href="#mf67bd04d93" y="162.473016"/>
     <use style="fill:#e24a33;stroke:#e24a33;" x="228.244906" xlink:href="#mf67bd04d93" y="161.278067"/>
     <use style="fill:#e24a33;stroke:#e24a33;" x="232.981596" xlink:href="#mf67bd04d93" y="161.868428"/>
    </g>
   </g>
   <g id="line2d_70">
    <path clip-path="url(#p6d179a2db3)" d="M 161.931244 220.862515 
L 166.667934 220.862515 
L 171.404624 215.264025 
L 176.141314 215.264025 
L 180.878004 203.472018 
L 195.088075 200.516937 
L 199.824765 200.516937 
L 204.561455 195.482273 
L 209.298145 195.482273 
L 214.034835 189.431714 
L 228.244906 183.12644 
L 232.981596 183.12644 
" style="fill:none;stroke:#8eba42;stroke-linecap:square;stroke-opacity:0.5;stroke-width:1.5;"/>
   </g>
   <g id="line2d_71">
    <path clip-path="url(#p6d179a2db3)" d="M 161.931244 238.253013 
L 166.667934 238.253013 
L 171.404624 228.080224 
L 176.141314 228.080224 
L 180.878004 228.080224 
L 214.034835 215.264025 
L 228.244906 220.862515 
L 232.981596 228.080224 
" style="fill:none;stroke:#777777;stroke-linecap:square;stroke-opacity:0.5;stroke-width:1.5;"/>
   </g>
   <g id="line2d_72">
    <path clip-path="url(#p6d179a2db3)" style="fill:none;stroke:#e24a33;stroke-linecap:square;stroke-width:1.5;"/>
   </g>
   <g id="patch_3">
    <path d="M 43.51399 255.64351 
L 43.51399 24.563582 
" style="fill:none;stroke:#ffffff;stroke-linecap:square;stroke-linejoin:miter;"/>
   </g>
   <g id="patch_4">
    <path d="M 356.13554 255.64351 
L 356.13554 24.563582 
" style="fill:none;stroke:#ffffff;stroke-linecap:square;stroke-linejoin:miter;"/>
   </g>
   <g id="patch_5">
    <path d="M 43.51399 255.64351 
L 356.13554 255.64351 
" style="fill:none;stroke:#ffffff;stroke-linecap:square;stroke-linejoin:miter;"/>
   </g>
   <g id="patch_6">
    <path d="M 43.51399 24.563582 
L 356.13554 24.563582 
" style="fill:none;stroke:#ffffff;stroke-linecap:square;stroke-linejoin:miter;"/>
   </g>
   <g id="text_17">
    <!--       Vanc. Is. -->
    <defs>
     <path id="BitstreamVeraSans-Oblique-32"/>
     <path d="M 20.609375 0 
L 7.8125 72.90625 
L 17.484375 72.90625 
L 28.078125 10.203125 
L 63.484375 72.90625 
L 74.21875 72.90625 
L 32.078125 0 
z
" id="BitstreamVeraSans-Oblique-86"/>
     <path d="M 53.71875 31.203125 
L 47.609375 0 
L 38.625 0 
L 40.28125 8.296875 
Q 36.328125 3.421875 31.265625 1 
Q 26.21875 -1.421875 20.015625 -1.421875 
Q 13.03125 -1.421875 8.5625 2.84375 
Q 4.109375 7.125 4.109375 13.8125 
Q 4.109375 23.390625 11.75 28.953125 
Q 19.390625 34.515625 32.8125 34.515625 
L 45.3125 34.515625 
L 45.796875 36.921875 
Q 45.90625 37.3125 45.953125 37.765625 
Q 46 38.234375 46 39.203125 
Q 46 43.5625 42.453125 45.96875 
Q 38.921875 48.390625 32.515625 48.390625 
Q 28.125 48.390625 23.5 47.265625 
Q 18.890625 46.140625 14.015625 43.890625 
L 15.578125 52.203125 
Q 20.65625 54.109375 25.515625 55.046875 
Q 30.375 56 34.90625 56 
Q 44.578125 56 49.625 51.796875 
Q 54.6875 47.609375 54.6875 39.59375 
Q 54.6875 37.984375 54.4375 35.8125 
Q 54.203125 33.640625 53.71875 31.203125 
z
M 44 27.484375 
L 35.015625 27.484375 
Q 23.96875 27.484375 18.671875 24.53125 
Q 13.375 21.578125 13.375 15.375 
Q 13.375 11.078125 16.078125 8.640625 
Q 18.796875 6.203125 23.578125 6.203125 
Q 30.90625 6.203125 36.375 11.453125 
Q 41.84375 16.703125 43.609375 25.484375 
z
" id="BitstreamVeraSans-Oblique-97"/>
     <path d="M 55.71875 33.015625 
L 49.3125 0 
L 40.28125 0 
L 46.6875 32.671875 
Q 47.125 34.96875 47.359375 36.71875 
Q 47.609375 38.484375 47.609375 39.5 
Q 47.609375 43.609375 45.015625 45.890625 
Q 42.4375 48.1875 37.796875 48.1875 
Q 30.5625 48.1875 25.34375 43.375 
Q 20.125 38.578125 18.5 30.328125 
L 12.5 0 
L 3.515625 0 
L 14.109375 54.6875 
L 23.09375 54.6875 
L 21.296875 46.09375 
Q 25.046875 50.828125 30.3125 53.40625 
Q 35.59375 56 41.40625 56 
Q 48.640625 56 52.609375 52.09375 
Q 56.59375 48.1875 56.59375 41.109375 
Q 56.59375 39.359375 56.375 37.359375 
Q 56.15625 35.359375 55.71875 33.015625 
z
" id="BitstreamVeraSans-Oblique-110"/>
     <path d="M 53.609375 52.59375 
L 51.8125 43.703125 
Q 48.578125 46.046875 44.9375 47.21875 
Q 41.3125 48.390625 37.40625 48.390625 
Q 33.109375 48.390625 29.21875 46.875 
Q 25.34375 45.359375 22.703125 42.578125 
Q 18.5 38.328125 16.203125 32.609375 
Q 13.921875 26.90625 13.921875 20.796875 
Q 13.921875 13.421875 17.609375 9.8125 
Q 21.296875 6.203125 28.8125 6.203125 
Q 32.515625 6.203125 36.6875 7.328125 
Q 40.875 8.453125 45.40625 10.6875 
L 43.703125 1.8125 
Q 39.796875 0.203125 35.671875 -0.609375 
Q 31.546875 -1.421875 27.203125 -1.421875 
Q 16.3125 -1.421875 10.453125 4.015625 
Q 4.59375 9.46875 4.59375 19.578125 
Q 4.59375 28.078125 7.640625 35.234375 
Q 10.6875 42.390625 16.703125 48.09375 
Q 20.796875 52 26.3125 54 
Q 31.84375 56 38.375 56 
Q 42.1875 56 45.9375 55.140625 
Q 49.703125 54.296875 53.609375 52.59375 
z
" id="BitstreamVeraSans-Oblique-99"/>
     <path d="M 8.203125 12.40625 
L 18.5 12.40625 
L 16.109375 0 
L 5.8125 0 
z
" id="BitstreamVeraSans-Oblique-46"/>
     <path d="M 16.890625 72.90625 
L 26.8125 72.90625 
L 12.59375 0 
L 2.6875 0 
z
" id="BitstreamVeraSans-Oblique-73"/>
     <path d="M 50 53.078125 
L 48.296875 44.578125 
Q 44.734375 46.53125 40.765625 47.5 
Q 36.8125 48.484375 32.625 48.484375 
Q 25.53125 48.484375 21.453125 46.0625 
Q 17.390625 43.65625 17.390625 39.5 
Q 17.390625 34.671875 26.859375 32.078125 
Q 27.59375 31.890625 27.9375 31.78125 
L 30.8125 30.90625 
Q 39.796875 28.421875 42.796875 25.6875 
Q 45.796875 22.953125 45.796875 18.21875 
Q 45.796875 9.515625 38.890625 4.046875 
Q 31.984375 -1.421875 20.796875 -1.421875 
Q 16.453125 -1.421875 11.671875 -0.578125 
Q 6.890625 0.25 1.125 2 
L 2.875 11.28125 
Q 7.8125 8.734375 12.59375 7.421875 
Q 17.390625 6.109375 21.78125 6.109375 
Q 28.375 6.109375 32.5 8.9375 
Q 36.625 11.765625 36.625 16.109375 
Q 36.625 20.796875 25.78125 23.6875 
L 24.859375 23.921875 
L 21.78125 24.703125 
Q 14.9375 26.515625 11.765625 29.46875 
Q 8.59375 32.421875 8.59375 37.015625 
Q 8.59375 45.75 15.15625 50.875 
Q 21.734375 56 33.015625 56 
Q 37.453125 56 41.671875 55.265625 
Q 45.90625 54.546875 50 53.078125 
z
" id="BitstreamVeraSans-Oblique-115"/>
    </defs>
    <g transform="translate(261.401737 124.450598)scale(0.0833 -0.0833)">
     <use xlink:href="#BitstreamVeraSans-Oblique-32"/>
     <use x="31.787109" xlink:href="#BitstreamVeraSans-Oblique-32"/>
     <use x="63.574219" xlink:href="#BitstreamVeraSans-Oblique-32"/>
     <use x="95.361328" xlink:href="#BitstreamVeraSans-Oblique-32"/>
     <use x="127.148438" xlink:href="#BitstreamVeraSans-Oblique-32"/>
     <use x="158.935547" xlink:href="#BitstreamVeraSans-Oblique-32"/>
     <use x="190.722656" xlink:href="#BitstreamVeraSans-Oblique-86"/>
     <use x="252.755859" xlink:href="#BitstreamVeraSans-Oblique-97"/>
     <use x="314.035156" xlink:href="#BitstreamVeraSans-Oblique-110"/>
     <use x="377.414062" xlink:href="#BitstreamVeraSans-Oblique-99"/>
     <use x="432.394531" xlink:href="#BitstreamVeraSans-Oblique-46"/>
     <use x="464.181641" xlink:href="#BitstreamVeraSans-Oblique-32"/>
     <use x="495.96875" xlink:href="#BitstreamVeraSans-Oblique-73"/>
     <use x="525.460938" xlink:href="#BitstreamVeraSans-Oblique-115"/>
     <use x="577.560547" xlink:href="#BitstreamVeraSans-Oblique-46"/>
    </g>
    <!--     Doubling time:  -->
    <defs>
     <path d="M 16.890625 72.90625 
L 38.09375 72.90625 
Q 54.984375 72.90625 63.59375 65.75 
Q 72.21875 58.59375 72.21875 44.484375 
Q 72.21875 35.15625 68.9375 26.53125 
Q 65.671875 17.921875 59.90625 12.015625 
Q 54.109375 5.953125 45.171875 2.96875 
Q 36.234375 0 24.03125 0 
L 2.6875 0 
z
M 25.203125 64.796875 
L 14.203125 8.109375 
L 27.09375 8.109375 
Q 43.65625 8.109375 52.734375 17.625 
Q 61.8125 27.15625 61.8125 44.484375 
Q 61.8125 54.984375 55.953125 59.890625 
Q 50.09375 64.796875 37.59375 64.796875 
z
" id="BitstreamVeraSans-Oblique-68"/>
     <path d="M 25.390625 -1.421875 
Q 15.765625 -1.421875 10.171875 4.515625 
Q 4.59375 10.453125 4.59375 20.703125 
Q 4.59375 26.65625 6.515625 32.828125 
Q 8.453125 39.015625 11.53125 43.21875 
Q 16.359375 49.75 22.3125 52.875 
Q 28.265625 56 35.796875 56 
Q 45.125 56 50.859375 50.1875 
Q 56.59375 44.390625 56.59375 35.015625 
Q 56.59375 28.515625 54.6875 22.0625 
Q 52.78125 15.625 49.703125 11.375 
Q 44.921875 4.828125 38.96875 1.703125 
Q 33.015625 -1.421875 25.390625 -1.421875 
z
M 13.921875 21 
Q 13.921875 13.578125 17.015625 9.890625 
Q 20.125 6.203125 26.421875 6.203125 
Q 35.453125 6.203125 41.375 14.078125 
Q 47.3125 21.96875 47.3125 34.078125 
Q 47.3125 41.15625 44.140625 44.765625 
Q 40.96875 48.390625 34.8125 48.390625 
Q 29.734375 48.390625 25.78125 46.015625 
Q 21.828125 43.65625 18.703125 38.8125 
Q 16.40625 35.203125 15.15625 30.5625 
Q 13.921875 25.921875 13.921875 21 
z
" id="BitstreamVeraSans-Oblique-111"/>
     <path d="M 6.6875 21.6875 
L 13.09375 54.6875 
L 22.125 54.6875 
L 15.71875 22.015625 
Q 15.234375 19.625 15.015625 17.921875 
Q 14.796875 16.21875 14.796875 15.09375 
Q 14.796875 10.9375 17.328125 8.65625 
Q 19.875 6.390625 24.515625 6.390625 
Q 31.734375 6.390625 37 11.265625 
Q 42.28125 16.15625 43.890625 24.421875 
L 49.90625 54.6875 
L 58.890625 54.6875 
L 48.296875 0 
L 39.3125 0 
L 41.109375 8.59375 
Q 37.3125 3.8125 32.0625 1.1875 
Q 26.8125 -1.421875 20.90625 -1.421875 
Q 13.71875 -1.421875 9.71875 2.515625 
Q 5.71875 6.453125 5.71875 13.484375 
Q 5.71875 14.9375 5.953125 17.140625 
Q 6.203125 19.34375 6.6875 21.6875 
z
" id="BitstreamVeraSans-Oblique-117"/>
     <path d="M 49.515625 33.40625 
Q 49.515625 40.484375 46.265625 44.484375 
Q 43.015625 48.484375 37.3125 48.484375 
Q 33.15625 48.484375 29.515625 46.453125 
Q 25.875 44.4375 23.1875 40.578125 
Q 20.359375 36.53125 18.71875 31.171875 
Q 17.09375 25.828125 17.09375 20.515625 
Q 17.09375 13.765625 20.28125 9.9375 
Q 23.484375 6.109375 29.109375 6.109375 
Q 33.34375 6.109375 36.953125 8.078125 
Q 40.578125 10.0625 43.3125 13.921875 
Q 46.09375 17.921875 47.796875 23.234375 
Q 49.515625 28.5625 49.515625 33.40625 
z
M 21.578125 46.390625 
Q 24.90625 50.875 29.90625 53.4375 
Q 34.90625 56 40.375 56 
Q 48.78125 56 53.734375 50.328125 
Q 58.6875 44.671875 58.6875 35.015625 
Q 58.6875 27.09375 55.78125 19.671875 
Q 52.875 12.25 47.515625 6.5 
Q 44 2.6875 39.40625 0.625 
Q 34.8125 -1.421875 29.78125 -1.421875 
Q 24.46875 -1.421875 20.5625 1.015625 
Q 16.65625 3.46875 14.203125 8.296875 
L 12.59375 0 
L 3.609375 0 
L 18.40625 75.984375 
L 27.390625 75.984375 
z
" id="BitstreamVeraSans-Oblique-98"/>
     <path d="M 18.3125 75.984375 
L 27.296875 75.984375 
L 12.5 0 
L 3.515625 0 
z
" id="BitstreamVeraSans-Oblique-108"/>
     <path d="M 18.3125 75.984375 
L 27.296875 75.984375 
L 25.09375 64.59375 
L 16.109375 64.59375 
z
M 14.203125 54.6875 
L 23.1875 54.6875 
L 12.5 0 
L 3.515625 0 
z
" id="BitstreamVeraSans-Oblique-105"/>
     <path d="M 59.625 54.6875 
L 50.296875 6.78125 
Q 47.609375 -7.125 40.015625 -13.953125 
Q 32.421875 -20.796875 19.578125 -20.796875 
Q 14.84375 -20.796875 10.78125 -20.09375 
Q 6.734375 -19.390625 3.21875 -17.921875 
L 4.890625 -9.1875 
Q 8.203125 -11.328125 11.90625 -12.34375 
Q 15.625 -13.375 19.828125 -13.375 
Q 28.375 -13.375 33.859375 -8.703125 
Q 39.359375 -4.046875 41.109375 4.6875 
L 41.890625 8.796875 
Q 38.140625 4.5 33.15625 2.25 
Q 28.171875 0 22.40625 0 
Q 14.109375 0 9.34375 5.484375 
Q 4.59375 10.984375 4.59375 20.609375 
Q 4.59375 28.171875 7.46875 35.421875 
Q 10.359375 42.671875 15.578125 48.296875 
Q 19.046875 52 23.65625 54 
Q 28.265625 56 33.296875 56 
Q 38.8125 56 42.90625 53.4375 
Q 47.015625 50.875 49.03125 46.1875 
L 50.59375 54.6875 
z
M 46.09375 34.625 
Q 46.09375 41.265625 42.96875 44.875 
Q 39.84375 48.484375 34.078125 48.484375 
Q 30.515625 48.484375 27.296875 47.0625 
Q 24.078125 45.65625 21.78125 43.109375 
Q 18.0625 38.921875 15.984375 33.234375 
Q 13.921875 27.546875 13.921875 21.484375 
Q 13.921875 14.75 17.0625 11.125 
Q 20.21875 7.515625 26.125 7.515625 
Q 34.671875 7.515625 40.375 15.25 
Q 46.09375 23 46.09375 34.625 
z
" id="BitstreamVeraSans-Oblique-103"/>
     <path d="M 42.28125 54.6875 
L 40.921875 47.703125 
L 23 47.703125 
L 17.1875 18.015625 
Q 16.890625 16.359375 16.75 15.234375 
Q 16.609375 14.109375 16.609375 13.484375 
Q 16.609375 10.359375 18.484375 8.9375 
Q 20.359375 7.515625 24.515625 7.515625 
L 33.59375 7.515625 
L 32.078125 0 
L 23.484375 0 
Q 15.484375 0 11.546875 3.125 
Q 7.625 6.25 7.625 12.59375 
Q 7.625 13.71875 7.765625 15.0625 
Q 7.90625 16.40625 8.203125 18.015625 
L 14.015625 47.703125 
L 6.390625 47.703125 
L 7.8125 54.6875 
L 15.28125 54.6875 
L 18.3125 70.21875 
L 27.296875 70.21875 
L 24.3125 54.6875 
z
" id="BitstreamVeraSans-Oblique-116"/>
     <path d="M 89.796875 33.015625 
L 83.40625 0 
L 74.421875 0 
L 80.71875 32.71875 
Q 81.109375 34.8125 81.296875 36.328125 
Q 81.5 37.84375 81.5 38.921875 
Q 81.5 43.3125 79.046875 45.75 
Q 76.609375 48.1875 72.21875 48.1875 
Q 65.671875 48.1875 60.546875 43.28125 
Q 55.421875 38.375 53.90625 30.515625 
L 47.90625 0 
L 38.921875 0 
L 45.3125 32.71875 
Q 45.703125 34.515625 45.890625 36.046875 
Q 46.09375 37.59375 46.09375 38.8125 
Q 46.09375 43.265625 43.65625 45.71875 
Q 41.21875 48.1875 36.921875 48.1875 
Q 30.28125 48.1875 25.140625 43.28125 
Q 20.015625 38.375 18.5 30.515625 
L 12.5 0 
L 3.515625 0 
L 14.203125 54.6875 
L 23.1875 54.6875 
L 21.484375 46.1875 
Q 25.140625 50.984375 30.046875 53.484375 
Q 34.96875 56 40.578125 56 
Q 46.53125 56 50.359375 52.875 
Q 54.203125 49.75 54.984375 44.1875 
Q 59.078125 49.953125 64.46875 52.96875 
Q 69.875 56 75.875 56 
Q 82.90625 56 86.734375 51.953125 
Q 90.578125 47.90625 90.578125 40.484375 
Q 90.578125 38.875 90.375 36.9375 
Q 90.1875 35.015625 89.796875 33.015625 
z
" id="BitstreamVeraSans-Oblique-109"/>
     <path d="M 48.09375 32.234375 
Q 48.25 33.015625 48.3125 33.84375 
Q 48.390625 34.671875 48.390625 35.5 
Q 48.390625 41.453125 44.890625 44.921875 
Q 41.40625 48.390625 35.40625 48.390625 
Q 28.71875 48.390625 23.578125 44.15625 
Q 18.453125 39.9375 15.828125 32.171875 
z
M 55.90625 25.203125 
L 14.109375 25.203125 
Q 13.8125 23.34375 13.71875 22.265625 
Q 13.625 21.1875 13.625 20.40625 
Q 13.625 13.625 17.796875 9.90625 
Q 21.96875 6.203125 29.59375 6.203125 
Q 35.453125 6.203125 40.671875 7.515625 
Q 45.90625 8.84375 50.390625 11.375 
L 48.6875 2.484375 
Q 43.84375 0.53125 38.6875 -0.4375 
Q 33.546875 -1.421875 28.21875 -1.421875 
Q 16.84375 -1.421875 10.71875 4.015625 
Q 4.59375 9.46875 4.59375 19.484375 
Q 4.59375 28.03125 7.640625 35.375 
Q 10.6875 42.71875 16.609375 48.484375 
Q 20.40625 52.09375 25.65625 54.046875 
Q 30.90625 56 36.8125 56 
Q 46.09375 56 51.578125 50.4375 
Q 57.078125 44.875 57.078125 35.5 
Q 57.078125 33.25 56.78125 30.6875 
Q 56.5 28.125 55.90625 25.203125 
z
" id="BitstreamVeraSans-Oblique-101"/>
     <path d="M 15.28125 51.703125 
L 25.59375 51.703125 
L 23.1875 39.3125 
L 12.890625 39.3125 
z
M 7.625 12.40625 
L 17.921875 12.40625 
L 15.484375 0 
L 5.171875 0 
z
" id="BitstreamVeraSans-Oblique-58"/>
    </defs>
    <g transform="translate(261.401737 133.778375)scale(0.0833 -0.0833)">
     <use xlink:href="#BitstreamVeraSans-Oblique-32"/>
     <use x="31.787109" xlink:href="#BitstreamVeraSans-Oblique-32"/>
     <use x="63.574219" xlink:href="#BitstreamVeraSans-Oblique-32"/>
     <use x="95.361328" xlink:href="#BitstreamVeraSans-Oblique-32"/>
     <use x="127.148438" xlink:href="#BitstreamVeraSans-Oblique-68"/>
     <use x="204.150391" xlink:href="#BitstreamVeraSans-Oblique-111"/>
     <use x="265.332031" xlink:href="#BitstreamVeraSans-Oblique-117"/>
     <use x="328.710938" xlink:href="#BitstreamVeraSans-Oblique-98"/>
     <use x="392.1875" xlink:href="#BitstreamVeraSans-Oblique-108"/>
     <use x="419.970703" xlink:href="#BitstreamVeraSans-Oblique-105"/>
     <use x="447.753906" xlink:href="#BitstreamVeraSans-Oblique-110"/>
     <use x="511.132812" xlink:href="#BitstreamVeraSans-Oblique-103"/>
     <use x="574.609375" xlink:href="#BitstreamVeraSans-Oblique-32"/>
     <use x="606.396484" xlink:href="#BitstreamVeraSans-Oblique-116"/>
     <use x="645.605469" xlink:href="#BitstreamVeraSans-Oblique-105"/>
     <use x="673.388672" xlink:href="#BitstreamVeraSans-Oblique-109"/>
     <use x="770.800781" xlink:href="#BitstreamVeraSans-Oblique-101"/>
     <use x="832.324219" xlink:href="#BitstreamVeraSans-Oblique-58"/>
     <use x="866.015625" xlink:href="#BitstreamVeraSans-Oblique-32"/>
    </g>
    <!--    38.67d  -->
    <defs>
     <path d="M 15.828125 71.09375 
Q 21.1875 72.65625 26.234375 73.4375 
Q 31.296875 74.21875 36.1875 74.21875 
Q 45.84375 74.21875 51.5 69.921875 
Q 57.171875 65.625 57.171875 58.40625 
Q 57.171875 51.3125 52.703125 46.234375 
Q 48.25 41.15625 40.375 39.3125 
Q 46.53125 37.546875 49.40625 33.828125 
Q 52.296875 30.125 52.296875 24.03125 
Q 52.296875 18.171875 49.484375 13.03125 
Q 46.6875 7.90625 41.40625 4.203125 
Q 37.40625 1.375 31.828125 -0.015625 
Q 26.265625 -1.421875 19 -1.421875 
Q 14.40625 -1.421875 9.71875 -0.515625 
Q 5.03125 0.390625 0.203125 2.203125 
L 2 11.53125 
Q 6.59375 8.984375 11.25 7.734375 
Q 15.921875 6.5 20.796875 6.5 
Q 30.421875 6.5 36.40625 11.453125 
Q 42.390625 16.40625 42.390625 24.3125 
Q 42.390625 29.390625 38.578125 32.140625 
Q 34.765625 34.90625 27.6875 34.90625 
L 19.1875 34.90625 
L 20.703125 42.921875 
L 29.6875 42.921875 
Q 37.796875 42.921875 42.453125 46.625 
Q 47.125 50.34375 47.125 56.6875 
Q 47.125 61.28125 43.703125 63.796875 
Q 40.28125 66.3125 34.078125 66.3125 
Q 29.390625 66.3125 24.484375 65.3125 
Q 19.578125 64.3125 14.3125 62.3125 
z
" id="BitstreamVeraSans-Oblique-51"/>
     <path d="M 44.484375 22.125 
Q 44.484375 27.640625 40.625 31.125 
Q 36.765625 34.625 30.515625 34.625 
Q 22.90625 34.625 17.9375 30.046875 
Q 12.984375 25.484375 12.984375 18.5 
Q 12.984375 12.9375 16.765625 9.65625 
Q 20.5625 6.390625 27 6.390625 
Q 34.671875 6.390625 39.578125 10.828125 
Q 44.484375 15.28125 44.484375 22.125 
z
M 49.515625 56.109375 
Q 49.515625 60.75 46.09375 63.578125 
Q 42.671875 66.40625 37.015625 66.40625 
Q 30.328125 66.40625 26 62.640625 
Q 21.6875 58.890625 21.6875 53.21875 
Q 21.6875 48.34375 25.078125 45.359375 
Q 28.46875 42.390625 34.078125 42.390625 
Q 40.828125 42.390625 45.171875 46.265625 
Q 49.515625 50.140625 49.515625 56.109375 
z
M 42.828125 38.375 
Q 48.34375 36.28125 51.265625 32.03125 
Q 54.203125 27.78125 54.203125 21.78125 
Q 54.203125 11.671875 46.390625 5.125 
Q 38.578125 -1.421875 26.21875 -1.421875 
Q 15.71875 -1.421875 9.515625 3.734375 
Q 3.328125 8.890625 3.328125 17.484375 
Q 3.328125 25.296875 8.640625 31.375 
Q 13.96875 37.453125 22.515625 39.109375 
Q 17.390625 40.875 14.703125 44.5625 
Q 12.015625 48.25 12.015625 53.515625 
Q 12.015625 62.359375 19.359375 68.28125 
Q 26.703125 74.21875 37.984375 74.21875 
Q 47.40625 74.21875 53.34375 69.40625 
Q 59.28125 64.59375 59.28125 57.171875 
Q 59.28125 50.734375 54.859375 45.671875 
Q 50.4375 40.625 42.828125 38.375 
z
" id="BitstreamVeraSans-Oblique-56"/>
     <path d="M 45.90625 27 
Q 45.90625 33.203125 42.71875 36.78125 
Q 39.546875 40.375 34.078125 40.375 
Q 26.515625 40.375 21.359375 34.546875 
Q 16.21875 28.71875 16.21875 20.125 
Q 16.21875 13.671875 19.359375 10.03125 
Q 22.515625 6.390625 28.078125 6.390625 
Q 35.6875 6.390625 40.796875 12.375 
Q 45.90625 18.359375 45.90625 27 
z
M 59.1875 71.1875 
L 57.515625 62.203125 
Q 54.6875 64.0625 51.015625 65.03125 
Q 47.359375 66.015625 43.21875 66.015625 
Q 33.109375 66.015625 26.96875 59.671875 
Q 20.84375 53.328125 17.828125 39.796875 
Q 21.390625 43.953125 26.09375 46.0625 
Q 30.8125 48.1875 36.28125 48.1875 
Q 45.21875 48.1875 50.515625 43.03125 
Q 55.8125 37.890625 55.8125 29.203125 
Q 55.8125 22.078125 53.203125 15.9375 
Q 50.59375 9.8125 45.609375 5.171875 
Q 42.1875 2 37.640625 0.28125 
Q 33.109375 -1.421875 27.984375 -1.421875 
Q 17.921875 -1.421875 12.109375 4.96875 
Q 6.296875 11.375 6.296875 22.515625 
Q 6.296875 32.859375 8.953125 42.453125 
Q 11.625 52.046875 16.40625 59.078125 
Q 21.4375 66.5 28.59375 70.359375 
Q 35.75 74.21875 44.390625 74.21875 
Q 48.1875 74.21875 51.890625 73.453125 
Q 55.609375 72.703125 59.1875 71.1875 
z
" id="BitstreamVeraSans-Oblique-54"/>
     <path d="M 12.796875 72.90625 
L 62.703125 72.90625 
L 61.8125 68.703125 
L 20.125 0 
L 9.28125 0 
L 48.6875 64.59375 
L 11.1875 64.59375 
z
" id="BitstreamVeraSans-Oblique-55"/>
     <path d="M 41.796875 8.203125 
Q 38.1875 3.46875 33.25 1.015625 
Q 28.328125 -1.421875 22.3125 -1.421875 
Q 14.109375 -1.421875 9.34375 4.171875 
Q 4.59375 9.765625 4.59375 19.484375 
Q 4.59375 27.59375 7.46875 34.9375 
Q 10.359375 42.28125 15.828125 48.09375 
Q 19.4375 51.953125 23.96875 53.96875 
Q 28.515625 56 33.5 56 
Q 38.765625 56 42.796875 53.453125 
Q 46.828125 50.921875 49.03125 46.1875 
L 54.890625 75.984375 
L 63.921875 75.984375 
L 49.125 0 
L 40.09375 0 
z
M 13.921875 21.09375 
Q 13.921875 14.015625 17.109375 10.0625 
Q 20.3125 6.109375 25.984375 6.109375 
Q 30.171875 6.109375 33.765625 8.125 
Q 37.359375 10.15625 40.09375 14.109375 
Q 42.96875 18.21875 44.625 23.578125 
Q 46.296875 28.953125 46.296875 34.1875 
Q 46.296875 40.96875 43.09375 44.765625 
Q 39.890625 48.578125 34.28125 48.578125 
Q 30.03125 48.578125 26.359375 46.578125 
Q 22.703125 44.578125 20.125 40.828125 
Q 17.28125 36.765625 15.59375 31.390625 
Q 13.921875 26.03125 13.921875 21.09375 
z
" id="BitstreamVeraSans-Oblique-100"/>
    </defs>
    <g transform="translate(261.401737 143.106153)scale(0.0833 -0.0833)">
     <use xlink:href="#BitstreamVeraSans-Oblique-32"/>
     <use x="31.787109" xlink:href="#BitstreamVeraSans-Oblique-32"/>
     <use x="63.574219" xlink:href="#BitstreamVeraSans-Oblique-32"/>
     <use x="95.361328" xlink:href="#BitstreamVeraSans-Oblique-51"/>
     <use x="158.984375" xlink:href="#BitstreamVeraSans-Oblique-56"/>
     <use x="222.607422" xlink:href="#BitstreamVeraSans-Oblique-46"/>
     <use x="254.394531" xlink:href="#BitstreamVeraSans-Oblique-54"/>
     <use x="318.017578" xlink:href="#BitstreamVeraSans-Oblique-55"/>
     <use x="381.640625" xlink:href="#BitstreamVeraSans-Oblique-100"/>
     <use x="445.117188" xlink:href="#BitstreamVeraSans-Oblique-32"/>
    </g>
   </g>
   <g id="text_18">
    <!-- Schools  -->
    <defs>
     <path d="M 60.296875 70.515625 
L 58.40625 60.890625 
Q 53.46875 63.53125 48.609375 64.875 
Q 43.75 66.21875 39.203125 66.21875 
Q 30.375 66.21875 25.140625 62.359375 
Q 19.921875 58.5 19.921875 52.09375 
Q 19.921875 48.578125 21.84375 46.703125 
Q 23.78125 44.828125 31.78125 42.671875 
L 37.703125 41.21875 
Q 47.703125 38.625 51.609375 34.640625 
Q 55.515625 30.671875 55.515625 23.484375 
Q 55.515625 12.453125 46.84375 5.515625 
Q 38.1875 -1.421875 24.03125 -1.421875 
Q 18.21875 -1.421875 12.359375 -0.265625 
Q 6.5 0.875 0.59375 3.21875 
L 2.59375 13.375 
Q 8.015625 10.015625 13.453125 8.296875 
Q 18.890625 6.59375 24.3125 6.59375 
Q 33.546875 6.59375 39.109375 10.6875 
Q 44.671875 14.796875 44.671875 21.390625 
Q 44.671875 25.78125 42.453125 28.046875 
Q 40.234375 30.328125 32.90625 32.171875 
L 27 33.6875 
Q 16.890625 36.328125 13.203125 39.765625 
Q 9.515625 43.21875 9.515625 49.421875 
Q 9.515625 60.296875 17.890625 67.25 
Q 26.265625 74.21875 39.703125 74.21875 
Q 44.921875 74.21875 50.046875 73.28125 
Q 55.171875 72.359375 60.296875 70.515625 
z
" id="BitstreamVeraSans-Oblique-83"/>
     <path d="M 55.71875 33.015625 
L 49.3125 0 
L 40.28125 0 
L 46.6875 32.671875 
Q 47.125 34.96875 47.359375 36.71875 
Q 47.609375 38.484375 47.609375 39.5 
Q 47.609375 43.609375 45.015625 45.890625 
Q 42.4375 48.1875 37.796875 48.1875 
Q 30.5625 48.1875 25.265625 43.296875 
Q 19.96875 38.421875 18.40625 30.328125 
L 12.5 0 
L 3.515625 0 
L 18.3125 75.984375 
L 27.296875 75.984375 
L 21.484375 46.09375 
Q 24.90625 50.6875 30.21875 53.34375 
Q 35.546875 56 41.40625 56 
Q 48.640625 56 52.609375 52.09375 
Q 56.59375 48.1875 56.59375 41.109375 
Q 56.59375 39.359375 56.375 37.359375 
Q 56.15625 35.359375 55.71875 33.015625 
z
" id="BitstreamVeraSans-Oblique-104"/>
    </defs>
    <g style="fill:#0000ff;opacity:0.7;" transform="translate(110.086447 96.593065)rotate(-90)scale(0.0694 -0.0694)">
     <use xlink:href="#BitstreamVeraSans-Oblique-83"/>
     <use x="63.476562" xlink:href="#BitstreamVeraSans-Oblique-99"/>
     <use x="118.457031" xlink:href="#BitstreamVeraSans-Oblique-104"/>
     <use x="181.835938" xlink:href="#BitstreamVeraSans-Oblique-111"/>
     <use x="243.017578" xlink:href="#BitstreamVeraSans-Oblique-111"/>
     <use x="304.199219" xlink:href="#BitstreamVeraSans-Oblique-108"/>
     <use x="331.982422" xlink:href="#BitstreamVeraSans-Oblique-115"/>
     <use x="384.082031" xlink:href="#BitstreamVeraSans-Oblique-32"/>
    </g>
    <!-- Closed  -->
    <defs>
     <path d="M 69.484375 67.28125 
L 67.484375 56.890625 
Q 62.796875 61.625 57.546875 63.921875 
Q 52.296875 66.21875 46.1875 66.21875 
Q 37.84375 66.21875 31.515625 62.203125 
Q 25.203125 58.203125 20.609375 50 
Q 17.671875 44.734375 16.125 38.84375 
Q 14.59375 32.953125 14.59375 27 
Q 14.59375 17.046875 19.75 11.8125 
Q 24.90625 6.59375 34.71875 6.59375 
Q 41.5 6.59375 47.75 8.765625 
Q 54 10.9375 59.90625 15.28125 
L 57.625 3.609375 
Q 51.8125 1.125 45.875 -0.140625 
Q 39.9375 -1.421875 33.984375 -1.421875 
Q 19.96875 -1.421875 12.078125 6.1875 
Q 4.203125 13.8125 4.203125 27.390625 
Q 4.203125 36.078125 7.203125 44.46875 
Q 10.203125 52.875 15.828125 59.8125 
Q 21.78125 67.1875 29.421875 70.703125 
Q 37.0625 74.21875 47.21875 74.21875 
Q 53.46875 74.21875 59.0625 72.484375 
Q 64.65625 70.75 69.484375 67.28125 
z
" id="BitstreamVeraSans-Oblique-67"/>
    </defs>
    <g style="fill:#0000ff;opacity:0.7;" transform="translate(117.857729 93.248853)rotate(-90)scale(0.0694 -0.0694)">
     <use xlink:href="#BitstreamVeraSans-Oblique-67"/>
     <use x="69.824219" xlink:href="#BitstreamVeraSans-Oblique-108"/>
     <use x="97.607422" xlink:href="#BitstreamVeraSans-Oblique-111"/>
     <use x="158.789062" xlink:href="#BitstreamVeraSans-Oblique-115"/>
     <use x="210.888672" xlink:href="#BitstreamVeraSans-Oblique-101"/>
     <use x="272.412109" xlink:href="#BitstreamVeraSans-Oblique-100"/>
     <use x="335.888672" xlink:href="#BitstreamVeraSans-Oblique-32"/>
    </g>
   </g>
   <g id="text_19">
    <!-- Restaurants  -->
    <defs>
     <path d="M 25.203125 64.796875 
L 20.21875 38.921875 
L 32.90625 38.921875 
Q 40.375 38.921875 44.984375 43.046875 
Q 49.609375 47.171875 49.609375 53.8125 
Q 49.609375 59.125 46.5 61.953125 
Q 43.40625 64.796875 37.59375 64.796875 
z
M 43.3125 35.015625 
Q 46.4375 34.28125 48.515625 31.390625 
Q 50.59375 28.515625 53.328125 19.921875 
L 59.515625 0 
L 49.125 0 
L 43.40625 18.703125 
Q 41.21875 25.921875 38.328125 28.359375 
Q 35.453125 30.8125 29.5 30.8125 
L 18.609375 30.8125 
L 12.59375 0 
L 2.6875 0 
L 16.890625 72.90625 
L 39.109375 72.90625 
Q 49.21875 72.90625 54.609375 68.328125 
Q 60.015625 63.765625 60.015625 55.171875 
Q 60.015625 47.5625 55.421875 41.984375 
Q 50.828125 36.421875 43.3125 35.015625 
z
" id="BitstreamVeraSans-Oblique-82"/>
     <path d="M 44.578125 46.390625 
Q 43.21875 47.125 41.453125 47.515625 
Q 39.703125 47.90625 37.703125 47.90625 
Q 30.515625 47.90625 25.140625 42.453125 
Q 19.78125 37.015625 18.015625 27.875 
L 12.5 0 
L 3.515625 0 
L 14.203125 54.6875 
L 23.1875 54.6875 
L 21.484375 46.1875 
Q 25.046875 50.921875 30 53.453125 
Q 34.96875 56 40.578125 56 
Q 42.046875 56 43.453125 55.828125 
Q 44.875 55.671875 46.296875 55.28125 
z
" id="BitstreamVeraSans-Oblique-114"/>
    </defs>
    <g style="fill:#0000ff;opacity:0.7;" transform="translate(143.243278 99.705445)rotate(-90)scale(0.0694 -0.0694)">
     <use xlink:href="#BitstreamVeraSans-Oblique-82"/>
     <use x="69.482422" xlink:href="#BitstreamVeraSans-Oblique-101"/>
     <use x="131.005859" xlink:href="#BitstreamVeraSans-Oblique-115"/>
     <use x="183.105469" xlink:href="#BitstreamVeraSans-Oblique-116"/>
     <use x="222.314453" xlink:href="#BitstreamVeraSans-Oblique-97"/>
     <use x="283.59375" xlink:href="#BitstreamVeraSans-Oblique-117"/>
     <use x="346.972656" xlink:href="#BitstreamVeraSans-Oblique-114"/>
     <use x="388.085938" xlink:href="#BitstreamVeraSans-Oblique-97"/>
     <use x="449.365234" xlink:href="#BitstreamVeraSans-Oblique-110"/>
     <use x="512.744141" xlink:href="#BitstreamVeraSans-Oblique-116"/>
     <use x="551.953125" xlink:href="#BitstreamVeraSans-Oblique-115"/>
     <use x="604.052734" xlink:href="#BitstreamVeraSans-Oblique-32"/>
    </g>
    <!-- Closed  -->
    <g style="fill:#0000ff;opacity:0.7;" transform="translate(151.01456 81.09757)rotate(-90)scale(0.0694 -0.0694)">
     <use xlink:href="#BitstreamVeraSans-Oblique-67"/>
     <use x="69.824219" xlink:href="#BitstreamVeraSans-Oblique-108"/>
     <use x="97.607422" xlink:href="#BitstreamVeraSans-Oblique-111"/>
     <use x="158.789062" xlink:href="#BitstreamVeraSans-Oblique-115"/>
     <use x="210.888672" xlink:href="#BitstreamVeraSans-Oblique-101"/>
     <use x="272.412109" xlink:href="#BitstreamVeraSans-Oblique-100"/>
     <use x="335.888672" xlink:href="#BitstreamVeraSans-Oblique-32"/>
    </g>
   </g>
   <g id="text_20">
    <!-- VANCOUVER ISLAND COVID-19 STATS  -->
    <defs>
     <path d="M 7.625 72.90625 
L 25.484375 72.90625 
L 34.421875 18.40625 
L 64.59375 72.90625 
L 83.984375 72.90625 
L 42.828125 0 
L 20.40625 0 
z
" id="BitstreamVeraSans-BoldOblique-86"/>
     <path d="M 49.125 13.28125 
L 20.015625 13.28125 
L 12.796875 0 
L -6.5 0 
L 34.71875 72.90625 
L 56.203125 72.90625 
L 69.09375 0 
L 51.21875 0 
z
M 27.09375 26.515625 
L 46.6875 26.515625 
L 42.28125 54.59375 
z
" id="BitstreamVeraSans-BoldOblique-65"/>
     <path d="M 16.3125 72.90625 
L 37.3125 72.90625 
L 54 22.40625 
L 63.8125 72.90625 
L 81.59375 72.90625 
L 67.390625 0 
L 46.390625 0 
L 29.6875 50.484375 
L 19.921875 0 
L 2.09375 0 
z
" id="BitstreamVeraSans-BoldOblique-78"/>
     <path d="M 60.59375 3.421875 
Q 53.859375 1.03125 47.65625 -0.1875 
Q 41.453125 -1.421875 35.890625 -1.421875 
Q 21.1875 -1.421875 12.390625 6.640625 
Q 3.609375 14.703125 3.609375 27.984375 
Q 3.609375 36.71875 6.390625 44.453125 
Q 9.1875 52.203125 14.59375 58.59375 
Q 21 66.109375 30 70.15625 
Q 39.015625 74.21875 49.421875 74.21875 
Q 55.078125 74.21875 60.78125 72.875 
Q 66.5 71.53125 72.40625 68.796875 
L 69.390625 53.71875 
Q 64.703125 57.28125 59.953125 58.9375 
Q 55.21875 60.59375 49.8125 60.59375 
Q 38.53125 60.59375 30.90625 51.90625 
Q 23.296875 43.21875 23.296875 30.171875 
Q 23.296875 21.78125 27.984375 16.984375 
Q 32.671875 12.203125 40.921875 12.203125 
Q 45.84375 12.203125 51.390625 13.984375 
Q 56.9375 15.765625 63.8125 19.578125 
z
" id="BitstreamVeraSans-BoldOblique-67"/>
     <path d="M 61.53125 43.015625 
Q 61.53125 51.609375 57.640625 56.09375 
Q 53.765625 60.59375 46.390625 60.59375 
Q 36.625 60.59375 30 51.828125 
Q 23.390625 43.0625 23.390625 29.890625 
Q 23.390625 21.484375 27.25 16.84375 
Q 31.109375 12.203125 37.984375 12.203125 
Q 43.609375 12.203125 47.96875 14.5625 
Q 52.34375 16.9375 55.421875 21.578125 
Q 58.34375 26.03125 59.9375 31.59375 
Q 61.53125 37.15625 61.53125 43.015625 
z
M 49.125 74.21875 
Q 63.671875 74.21875 72.53125 66.140625 
Q 81.390625 58.0625 81.390625 45.015625 
Q 81.390625 36.140625 78.6875 28.21875 
Q 75.984375 20.3125 70.796875 14.015625 
Q 64.453125 6.25 55.78125 2.40625 
Q 47.125 -1.421875 35.796875 -1.421875 
Q 21.296875 -1.421875 12.453125 6.640625 
Q 3.609375 14.703125 3.609375 27.78125 
Q 3.609375 36.71875 6.296875 44.625 
Q 8.984375 52.546875 14.203125 58.890625 
Q 20.453125 66.609375 29.125 70.40625 
Q 37.796875 74.21875 49.125 74.21875 
z
" id="BitstreamVeraSans-BoldOblique-79"/>
     <path d="M 16.3125 72.90625 
L 35.109375 72.90625 
L 26.609375 29.25 
Q 26.125 26.90625 25.90625 25.09375 
Q 25.6875 23.296875 25.6875 21.921875 
Q 25.6875 17.140625 28.25 14.765625 
Q 30.8125 12.40625 35.890625 12.40625 
Q 42.71875 12.40625 46.375 16.234375 
Q 50.046875 20.0625 51.8125 29.203125 
L 60.296875 72.90625 
L 79.109375 72.90625 
L 70.609375 29.203125 
Q 67.4375 13.09375 58.5625 5.828125 
Q 49.703125 -1.421875 33.203125 -1.421875 
Q 20.265625 -1.421875 13.515625 4.125 
Q 6.78125 9.671875 6.78125 20.21875 
Q 6.78125 21.96875 7.03125 24.140625 
Q 7.28125 26.3125 7.8125 29.203125 
z
" id="BitstreamVeraSans-BoldOblique-85"/>
     <path d="M 16.3125 72.90625 
L 67 72.90625 
L 64.203125 58.6875 
L 32.328125 58.6875 
L 29.6875 45.125 
L 59.71875 45.125 
L 56.890625 30.90625 
L 26.90625 30.90625 
L 23.6875 14.203125 
L 56.59375 14.203125 
L 53.90625 0 
L 2.09375 0 
z
" id="BitstreamVeraSans-BoldOblique-69"/>
     <path d="M 36.71875 40.578125 
Q 43.109375 40.578125 46.40625 43.546875 
Q 49.703125 46.53125 49.703125 52.296875 
Q 49.703125 55.90625 47.4375 57.59375 
Q 45.171875 59.28125 40.28125 59.28125 
L 32.515625 59.28125 
L 28.8125 40.578125 
z
M 26.3125 27.59375 
L 20.90625 0 
L 2.09375 0 
L 16.3125 72.90625 
L 44.09375 72.90625 
Q 56.109375 72.90625 62.296875 68.40625 
Q 68.5 63.921875 68.5 55.171875 
Q 68.5 46.34375 63.609375 40.625 
Q 58.734375 34.90625 50.390625 34.078125 
Q 54.203125 33.296875 56.734375 30.1875 
Q 59.28125 27.09375 61.1875 20.703125 
L 67.390625 0 
L 48.6875 0 
L 43.21875 18.109375 
Q 41.546875 23.53125 39.171875 25.5625 
Q 36.8125 27.59375 32.328125 27.59375 
z
" id="BitstreamVeraSans-BoldOblique-82"/>
     <path id="BitstreamVeraSans-BoldOblique-32"/>
     <path d="M 16.3125 72.90625 
L 35.109375 72.90625 
L 20.90625 0 
L 2.09375 0 
z
" id="BitstreamVeraSans-BoldOblique-73"/>
     <path d="M 66.5 70.609375 
L 63.484375 55.171875 
Q 57.953125 57.90625 52.578125 59.25 
Q 47.21875 60.59375 42.09375 60.59375 
Q 35.0625 60.59375 31.125 58.390625 
Q 27.203125 56.203125 27.203125 52.296875 
Q 27.203125 49.8125 28.9375 48.40625 
Q 30.671875 47.015625 36.078125 45.703125 
L 43.796875 43.796875 
Q 53.46875 41.359375 57.984375 36.734375 
Q 62.5 32.125 62.5 24.8125 
Q 62.5 12.9375 53.484375 5.75 
Q 44.484375 -1.421875 29.296875 -1.421875 
Q 22.21875 -1.421875 15.203125 -0.09375 
Q 8.203125 1.21875 1.515625 3.8125 
L 4.5 19.671875 
Q 10.984375 15.921875 17.109375 14.0625 
Q 23.25 12.203125 29.203125 12.203125 
Q 35.640625 12.203125 39.671875 14.84375 
Q 43.703125 17.484375 43.703125 21.578125 
Q 43.703125 24.265625 41.890625 25.75 
Q 40.09375 27.25 33.984375 28.8125 
L 26.3125 30.71875 
Q 17.828125 32.8125 13.671875 37.34375 
Q 9.515625 41.890625 9.515625 49.125 
Q 9.515625 60.5 18.234375 67.359375 
Q 26.953125 74.21875 41.703125 74.21875 
Q 47.609375 74.21875 53.828125 73.3125 
Q 60.0625 72.40625 66.5 70.609375 
z
" id="BitstreamVeraSans-BoldOblique-83"/>
     <path d="M 16.3125 72.90625 
L 35.109375 72.90625 
L 23.6875 14.203125 
L 56.59375 14.203125 
L 53.90625 0 
L 2.09375 0 
z
" id="BitstreamVeraSans-BoldOblique-76"/>
     <path d="M 32.421875 58.6875 
L 23.6875 14.203125 
L 30.421875 14.203125 
Q 43.5625 14.203125 51.21875 21.578125 
Q 58.890625 28.953125 58.890625 41.5 
Q 58.890625 50 53.875 54.34375 
Q 48.875 58.6875 39.015625 58.6875 
z
M 16.3125 72.90625 
L 36.078125 72.90625 
Q 50.25 72.90625 57.328125 71.21875 
Q 64.40625 69.53125 69.09375 65.578125 
Q 73.828125 61.625 76.21875 55.984375 
Q 78.609375 50.34375 78.609375 43.21875 
Q 78.609375 33.296875 74.53125 24.53125 
Q 70.453125 15.765625 63.09375 9.8125 
Q 56.640625 4.5 48.109375 2.25 
Q 39.59375 0 21.921875 0 
L 2.09375 0 
z
" id="BitstreamVeraSans-BoldOblique-68"/>
     <path d="M 5.328125 35.890625 
L 35.984375 35.890625 
L 33.203125 21.6875 
L 2.484375 21.6875 
z
" id="BitstreamVeraSans-BoldOblique-45"/>
     <path d="M 6.890625 12.984375 
L 23.484375 12.984375 
L 32.625 60.109375 
L 14.890625 56.59375 
L 17.390625 69.390625 
L 35.015625 72.90625 
L 52.875 72.90625 
L 41.3125 12.984375 
L 57.8125 12.984375 
L 55.328125 0 
L 4.296875 0 
z
" id="BitstreamVeraSans-BoldOblique-49"/>
     <path d="M 4.109375 1.609375 
L 6.6875 15.09375 
Q 10.9375 12.890625 14.890625 11.84375 
Q 18.84375 10.796875 22.796875 10.796875 
Q 31.890625 10.796875 37.5 15.671875 
Q 43.109375 20.5625 44.28125 29.390625 
Q 40.53125 26.90625 36.515625 25.703125 
Q 32.515625 24.515625 27.984375 24.515625 
Q 19.046875 24.515625 13.328125 29.828125 
Q 7.625 35.15625 7.625 43.40625 
Q 7.625 56.890625 16.4375 65.5 
Q 25.25 74.125 39.109375 74.125 
Q 51.5625 74.125 58.375 67.0625 
Q 65.1875 60.015625 65.1875 47.125 
Q 65.1875 37.203125 62.15625 28.140625 
Q 59.125 19.09375 53.609375 12.5 
Q 47.75 5.515625 39.8125 2 
Q 31.890625 -1.515625 21.921875 -1.515625 
Q 17.28125 -1.515625 12.890625 -0.734375 
Q 8.5 0.046875 4.109375 1.609375 
z
M 33.890625 36.625 
Q 39.453125 36.625 43.015625 41.203125 
Q 46.578125 45.796875 46.578125 52.984375 
Q 46.578125 57.421875 44.453125 59.8125 
Q 42.328125 62.203125 38.375 62.203125 
Q 32.859375 62.203125 29.21875 57.65625 
Q 25.59375 53.125 25.59375 46.296875 
Q 25.59375 41.609375 27.734375 39.109375 
Q 29.890625 36.625 33.890625 36.625 
z
" id="BitstreamVeraSans-BoldOblique-57"/>
     <path d="M 7.625 72.90625 
L 74.8125 72.90625 
L 72.015625 58.6875 
L 47.796875 58.6875 
L 36.375 0 
L 17.578125 0 
L 29 58.6875 
L 4.78125 58.6875 
z
" id="BitstreamVeraSans-BoldOblique-84"/>
    </defs>
    <g transform="translate(43.51399 13.941983)scale(0.144 -0.144)">
     <use xlink:href="#BitstreamVeraSans-BoldOblique-86"/>
     <use x="70.642578" xlink:href="#BitstreamVeraSans-BoldOblique-65"/>
     <use x="148.035156" xlink:href="#BitstreamVeraSans-BoldOblique-78"/>
     <use x="231.726562" xlink:href="#BitstreamVeraSans-BoldOblique-67"/>
     <use x="305.115234" xlink:href="#BitstreamVeraSans-BoldOblique-79"/>
     <use x="390.125" xlink:href="#BitstreamVeraSans-BoldOblique-85"/>
     <use x="471.326172" xlink:href="#BitstreamVeraSans-BoldOblique-86"/>
     <use x="548.71875" xlink:href="#BitstreamVeraSans-BoldOblique-69"/>
     <use x="617.029297" xlink:href="#BitstreamVeraSans-BoldOblique-82"/>
     <use x="694.03125" xlink:href="#BitstreamVeraSans-BoldOblique-32"/>
     <use x="728.845703" xlink:href="#BitstreamVeraSans-BoldOblique-73"/>
     <use x="766.052734" xlink:href="#BitstreamVeraSans-BoldOblique-83"/>
     <use x="838.074219" xlink:href="#BitstreamVeraSans-BoldOblique-76"/>
     <use x="901.794922" xlink:href="#BitstreamVeraSans-BoldOblique-65"/>
     <use x="979.1875" xlink:href="#BitstreamVeraSans-BoldOblique-78"/>
     <use x="1062.878906" xlink:href="#BitstreamVeraSans-BoldOblique-68"/>
     <use x="1145.886719" xlink:href="#BitstreamVeraSans-BoldOblique-32"/>
     <use x="1180.701172" xlink:href="#BitstreamVeraSans-BoldOblique-67"/>
     <use x="1254.089844" xlink:href="#BitstreamVeraSans-BoldOblique-79"/>
     <use x="1335.474609" xlink:href="#BitstreamVeraSans-BoldOblique-86"/>
     <use x="1412.867188" xlink:href="#BitstreamVeraSans-BoldOblique-73"/>
     <use x="1450.074219" xlink:href="#BitstreamVeraSans-BoldOblique-68"/>
     <use x="1534.957031" xlink:href="#BitstreamVeraSans-BoldOblique-45"/>
     <use x="1576.460938" xlink:href="#BitstreamVeraSans-BoldOblique-49"/>
     <use x="1646.041016" xlink:href="#BitstreamVeraSans-BoldOblique-57"/>
     <use x="1715.621094" xlink:href="#BitstreamVeraSans-BoldOblique-32"/>
     <use x="1750.435547" xlink:href="#BitstreamVeraSans-BoldOblique-83"/>
     <use x="1822.457031" xlink:href="#BitstreamVeraSans-BoldOblique-84"/>
     <use x="1882.919922" xlink:href="#BitstreamVeraSans-BoldOblique-65"/>
     <use x="1950.6875" xlink:href="#BitstreamVeraSans-BoldOblique-84"/>
     <use x="2018.900391" xlink:href="#BitstreamVeraSans-BoldOblique-83"/>
     <use x="2090.921875" xlink:href="#BitstreamVeraSans-BoldOblique-32"/>
    </g>
   </g>
   <g id="legend_1">
    <g id="patch_7">
     <path d="M 255.805852 91.276082 
L 349.13554 91.276082 
Q 351.13554 91.276082 351.13554 89.276082 
L 351.13554 31.563582 
Q 351.13554 29.563582 349.13554 29.563582 
L 255.805852 29.563582 
Q 253.805852 29.563582 253.805852 31.563582 
L 253.805852 89.276082 
Q 253.805852 91.276082 255.805852 91.276082 
z
" style="fill:#e5e5e5;opacity:0.8;stroke:#cccccc;stroke-linejoin:miter;stroke-width:0.5;"/>
    </g>
    <g id="line2d_73"/>
    <g id="line2d_74">
     <g>
      <use style="fill:#988ed5;stroke:#988ed5;" x="267.805852" xlink:href="#m0b2d87c05c" y="37.66202"/>
     </g>
    </g>
    <g id="text_21">
     <!-- Cases -->
     <g transform="translate(285.805852 41.16202)scale(0.1 -0.1)">
      <use xlink:href="#BitstreamVeraSans-Roman-67"/>
      <use x="69.824219" xlink:href="#BitstreamVeraSans-Roman-97"/>
      <use x="131.103516" xlink:href="#BitstreamVeraSans-Roman-115"/>
      <use x="183.203125" xlink:href="#BitstreamVeraSans-Roman-101"/>
      <use x="244.726562" xlink:href="#BitstreamVeraSans-Roman-115"/>
     </g>
    </g>
    <g id="line2d_75"/>
    <g id="line2d_76">
     <g>
      <use style="fill:#e24a33;stroke:#e24a33;" x="267.805852" xlink:href="#mf67bd04d93" y="52.340145"/>
     </g>
    </g>
    <g id="text_22">
     <!-- Active -->
     <defs>
      <path d="M 48.78125 52.59375 
L 48.78125 44.1875 
Q 44.96875 46.296875 41.140625 47.34375 
Q 37.3125 48.390625 33.40625 48.390625 
Q 24.65625 48.390625 19.8125 42.84375 
Q 14.984375 37.3125 14.984375 27.296875 
Q 14.984375 17.28125 19.8125 11.734375 
Q 24.65625 6.203125 33.40625 6.203125 
Q 37.3125 6.203125 41.140625 7.25 
Q 44.96875 8.296875 48.78125 10.40625 
L 48.78125 2.09375 
Q 45.015625 0.34375 40.984375 -0.53125 
Q 36.96875 -1.421875 32.421875 -1.421875 
Q 20.0625 -1.421875 12.78125 6.34375 
Q 5.515625 14.109375 5.515625 27.296875 
Q 5.515625 40.671875 12.859375 48.328125 
Q 20.21875 56 33.015625 56 
Q 37.15625 56 41.109375 55.140625 
Q 45.0625 54.296875 48.78125 52.59375 
z
" id="BitstreamVeraSans-Roman-99"/>
      <path d="M 18.3125 70.21875 
L 18.3125 54.6875 
L 36.8125 54.6875 
L 36.8125 47.703125 
L 18.3125 47.703125 
L 18.3125 18.015625 
Q 18.3125 11.328125 20.140625 9.421875 
Q 21.96875 7.515625 27.59375 7.515625 
L 36.8125 7.515625 
L 36.8125 0 
L 27.59375 0 
Q 17.1875 0 13.234375 3.875 
Q 9.28125 7.765625 9.28125 18.015625 
L 9.28125 47.703125 
L 2.6875 47.703125 
L 2.6875 54.6875 
L 9.28125 54.6875 
L 9.28125 70.21875 
z
" id="BitstreamVeraSans-Roman-116"/>
      <path d="M 9.421875 54.6875 
L 18.40625 54.6875 
L 18.40625 0 
L 9.421875 0 
z
M 9.421875 75.984375 
L 18.40625 75.984375 
L 18.40625 64.59375 
L 9.421875 64.59375 
z
" id="BitstreamVeraSans-Roman-105"/>
      <path d="M 2.984375 54.6875 
L 12.5 54.6875 
L 29.59375 8.796875 
L 46.6875 54.6875 
L 56.203125 54.6875 
L 35.6875 0 
L 23.484375 0 
z
" id="BitstreamVeraSans-Roman-118"/>
     </defs>
     <g transform="translate(285.805852 55.840145)scale(0.1 -0.1)">
      <use xlink:href="#BitstreamVeraSans-Roman-65"/>
      <use x="66.658203" xlink:href="#BitstreamVeraSans-Roman-99"/>
      <use x="121.638672" xlink:href="#BitstreamVeraSans-Roman-116"/>
      <use x="160.847656" xlink:href="#BitstreamVeraSans-Roman-105"/>
      <use x="188.630859" xlink:href="#BitstreamVeraSans-Roman-118"/>
      <use x="247.810547" xlink:href="#BitstreamVeraSans-Roman-101"/>
     </g>
    </g>
    <g id="line2d_77"/>
    <g id="line2d_78">
     <g>
      <use style="fill:#8eba42;fill-opacity:0.5;stroke:#8eba42;stroke-opacity:0.5;" x="267.805852" xlink:href="#mbbcf284faf" y="67.01827"/>
     </g>
    </g>
    <g id="text_23">
     <!-- Hospitalized -->
     <defs>
      <path d="M 9.8125 72.90625 
L 19.671875 72.90625 
L 19.671875 43.015625 
L 55.515625 43.015625 
L 55.515625 72.90625 
L 65.375 72.90625 
L 65.375 0 
L 55.515625 0 
L 55.515625 34.71875 
L 19.671875 34.71875 
L 19.671875 0 
L 9.8125 0 
z
" id="BitstreamVeraSans-Roman-72"/>
      <path d="M 30.609375 48.390625 
Q 23.390625 48.390625 19.1875 42.75 
Q 14.984375 37.109375 14.984375 27.296875 
Q 14.984375 17.484375 19.15625 11.84375 
Q 23.34375 6.203125 30.609375 6.203125 
Q 37.796875 6.203125 41.984375 11.859375 
Q 46.1875 17.53125 46.1875 27.296875 
Q 46.1875 37.015625 41.984375 42.703125 
Q 37.796875 48.390625 30.609375 48.390625 
z
M 30.609375 56 
Q 42.328125 56 49.015625 48.375 
Q 55.71875 40.765625 55.71875 27.296875 
Q 55.71875 13.875 49.015625 6.21875 
Q 42.328125 -1.421875 30.609375 -1.421875 
Q 18.84375 -1.421875 12.171875 6.21875 
Q 5.515625 13.875 5.515625 27.296875 
Q 5.515625 40.765625 12.171875 48.375 
Q 18.84375 56 30.609375 56 
z
" id="BitstreamVeraSans-Roman-111"/>
      <path d="M 9.421875 75.984375 
L 18.40625 75.984375 
L 18.40625 0 
L 9.421875 0 
z
" id="BitstreamVeraSans-Roman-108"/>
      <path d="M 5.515625 54.6875 
L 48.1875 54.6875 
L 48.1875 46.484375 
L 14.40625 7.171875 
L 48.1875 7.171875 
L 48.1875 0 
L 4.296875 0 
L 4.296875 8.203125 
L 38.09375 47.515625 
L 5.515625 47.515625 
z
" id="BitstreamVeraSans-Roman-122"/>
      <path d="M 45.40625 46.390625 
L 45.40625 75.984375 
L 54.390625 75.984375 
L 54.390625 0 
L 45.40625 0 
L 45.40625 8.203125 
Q 42.578125 3.328125 38.25 0.953125 
Q 33.9375 -1.421875 27.875 -1.421875 
Q 17.96875 -1.421875 11.734375 6.484375 
Q 5.515625 14.40625 5.515625 27.296875 
Q 5.515625 40.1875 11.734375 48.09375 
Q 17.96875 56 27.875 56 
Q 33.9375 56 38.25 53.625 
Q 42.578125 51.265625 45.40625 46.390625 
z
M 14.796875 27.296875 
Q 14.796875 17.390625 18.875 11.75 
Q 22.953125 6.109375 30.078125 6.109375 
Q 37.203125 6.109375 41.296875 11.75 
Q 45.40625 17.390625 45.40625 27.296875 
Q 45.40625 37.203125 41.296875 42.84375 
Q 37.203125 48.484375 30.078125 48.484375 
Q 22.953125 48.484375 18.875 42.84375 
Q 14.796875 37.203125 14.796875 27.296875 
z
" id="BitstreamVeraSans-Roman-100"/>
     </defs>
     <g transform="translate(285.805852 70.51827)scale(0.1 -0.1)">
      <use xlink:href="#BitstreamVeraSans-Roman-72"/>
      <use x="75.195312" xlink:href="#BitstreamVeraSans-Roman-111"/>
      <use x="136.376953" xlink:href="#BitstreamVeraSans-Roman-115"/>
      <use x="188.476562" xlink:href="#BitstreamVeraSans-Roman-112"/>
      <use x="251.953125" xlink:href="#BitstreamVeraSans-Roman-105"/>
      <use x="279.736328" xlink:href="#BitstreamVeraSans-Roman-116"/>
      <use x="318.945312" xlink:href="#BitstreamVeraSans-Roman-97"/>
      <use x="380.224609" xlink:href="#BitstreamVeraSans-Roman-108"/>
      <use x="408.007812" xlink:href="#BitstreamVeraSans-Roman-105"/>
      <use x="435.791016" xlink:href="#BitstreamVeraSans-Roman-122"/>
      <use x="488.28125" xlink:href="#BitstreamVeraSans-Roman-101"/>
      <use x="549.804688" xlink:href="#BitstreamVeraSans-Roman-100"/>
     </g>
    </g>
    <g id="line2d_79"/>
    <g id="line2d_80">
     <g>
      <use style="fill:#777777;fill-opacity:0.5;stroke:#777777;stroke-opacity:0.5;" x="267.805852" xlink:href="#m0b579371fa" y="81.696395"/>
     </g>
    </g>
    <g id="text_24">
     <!-- ICU -->
     <defs>
      <path d="M 9.8125 72.90625 
L 19.671875 72.90625 
L 19.671875 0 
L 9.8125 0 
z
" id="BitstreamVeraSans-Roman-73"/>
      <path d="M 8.6875 72.90625 
L 18.609375 72.90625 
L 18.609375 28.609375 
Q 18.609375 16.890625 22.84375 11.734375 
Q 27.09375 6.59375 36.625 6.59375 
Q 46.09375 6.59375 50.34375 11.734375 
Q 54.59375 16.890625 54.59375 28.609375 
L 54.59375 72.90625 
L 64.5 72.90625 
L 64.5 27.390625 
Q 64.5 13.140625 57.4375 5.859375 
Q 50.390625 -1.421875 36.625 -1.421875 
Q 22.796875 -1.421875 15.734375 5.859375 
Q 8.6875 13.140625 8.6875 27.390625 
z
" id="BitstreamVeraSans-Roman-85"/>
     </defs>
     <g transform="translate(285.805852 85.196395)scale(0.1 -0.1)">
      <use xlink:href="#BitstreamVeraSans-Roman-73"/>
      <use x="29.492188" xlink:href="#BitstreamVeraSans-Roman-67"/>
      <use x="99.316406" xlink:href="#BitstreamVeraSans-Roman-85"/>
     </g>
    </g>
   </g>
  </g>
 </g>
 <defs>
  <clipPath id="p6d179a2db3">
   <rect height="231.079928" width="312.62155" x="43.51399" y="24.563582"/>
  </clipPath>
 </defs>
</svg>
